<svg xmlns="http://www.w3.org/2000/svg" height="24" viewBox="0 -960 960 960" width="24"><path d="M480-100.001q-78.769 0-148.115-29.962-69.346-29.961-120.653-81.269-51.308-51.307-81.269-120.653Q100.001-401.231 100.001-480t29.962-148.115q29.961-69.346 81.269-120.653 51.307-51.308 120.653-81.269Q401.231-859.999 480-859.999q142.923 0 248.384 91.885 105.461 91.885 126.307 228.731h-61.229q-14.769-79.924-65.615-143.193Q677-745.846 600-776.769V-760q0 33-23.5 56.5T520-680h-80v80q0 17-11.5 28.5T400-560h-80v80h76.923v120H360L168-552q-3 18-5.5 36t-2.5 36q0 131 92 225t228 95v59.999Zm362.461-15.385-133-132.231q-19.461 12.385-41.923 20-22.461 7.616-47.538 7.616-66.922 0-113.461-46.538Q460.001-313.078 460.001-380t46.538-113.461Q553.078-539.999 620-539.999t113.461 46.538Q779.999-446.922 779.999-380q0 25.461-7.808 48.115-7.808 22.654-20.577 42.115l133 132.231-42.153 42.153ZM620-280q42 0 71-29t29-71q0-42-29-71t-71-29q-42 0-71 29t-29 71q0 42 29 71t71 29Z"/></svg>