<svg xmlns="http://www.w3.org/2000/svg" height="24" viewBox="0 -960 960 960" width="24"><path d="M779-138.463 531.154-385.539l42.153-42.153 247.845 247.846L779-138.463Zm-540.615-38.77q-50.384-55-74.769-121.922-24.384-66.923-24.384-136.46 0-74.539 27.654-144.884 27.654-70.346 84.577-126.885 56.922-56.922 127.576-84.884 70.654-27.961 144.422-27.961 69.923 0 136.345 24.692 66.423 24.692 121.807 75.076L238.385-177.233Zm6.461-91.998 63.232-63.231q-16-21.769-31.077-45.308-15.077-23.539-27.077-48.616-12-25.077-20.039-51.885-8.038-26.808-11.961-54.347-23.693 65.924-16.117 134.732 7.577 68.808 43.039 128.655ZM352.23-374.615l232.001-234.001q-43-33-87.077-52.73-44.077-19.731-83.038-26.654-38.962-6.923-70.424-1.154-31.461 5.769-48.846 23.154-17.385 18-23.154 49.462-5.769 31.461.962 70.731 6.73 39.269 26.461 83.23 19.731 43.962 53.115 87.962Zm274.923-276.154L691.615-714q-61.462-36.616-130.463-43.923-69-7.308-134.924 16.232 28.539 3.538 55.347 11.961t51.885 20.115q25.077 11.693 48.501 26.769 23.423 15.077 45.192 32.077Z"/></svg>