<?xml version="1.0" ?>
<!-- Uploaded to: SVG Repo, www.svgrepo.com, Generator: SVG Repo Mixer Tools -->
<svg width="800px" height="800px" viewBox="0 0 512 512" xmlns="http://www.w3.org/2000/svg">
<defs>
<style>.e{fill:#f4c762;}.f{fill:#eab84b;}.g{fill:#dfdfdf;}.h{fill:#41a08e;}.i{fill:#365650;}</style>
</defs>
<g id="a"/>
<g id="b"/>
<g id="c">
<g>
<rect class="f" height="40" width="8" x="404" y="144"/>
<rect class="f" height="7.99984" transform="translate(2.0947 357.05645) rotate(-45.00495)" width="45.25483" x="409.37258" y="172.00008"/>
<rect class="f" height="8" width="40" x="424" y="196"/>
<rect class="f" height="45.25483" transform="translate(-31.86205 371.07821) rotate(-45)" width="7.99984" x="428.00008" y="201.37258"/>
<rect class="f" height="40" width="8" x="404" y="216"/>
<rect class="f" height="7.99984" transform="translate(-45.91116 337.17419) rotate(-45.00495)" width="45.25483" x="361.37258" y="220.00008"/>
<rect class="f" height="8" width="40" x="352" y="196"/>
<rect class="f" height="45.25483" transform="translate(-11.9798 323.07821) rotate(-45)" width="7.99984" x="380.00008" y="153.37258"/>
<polygon class="e" points="240 24 272 24 272 72 320 72 320 104 272 104 272 200 240 200 240 104 192 104 192 72 240 72 240 24"/>
<polygon class="f" points="166.24487 150.75928 178.39771 127.1709 154.44678 138.4873 137.34009 120 140.75903 144.95459 116.80811 156.271 142.74731 161.86133 145.36157 186.99414 158.40796 164.5896 184 168.73804 166.24487 150.75928"/>
<path class="e" d="M141.81775,246.8125c-38.52991,6.06934-74.68445-20.24536-80.75354-58.77515-4.17261-26.48926,6.9613-51.85596,26.84766-67.09546l1.1449-.85889c-42.26672,7.20557-70.99951,47.08496-64.30847,89.5625,6.74341,42.81104,46.91504,72.04956,89.72607,65.30591,25.00232-3.93823,45.37537-19.27808,56.65527-39.88647-8.48828,5.90576-18.41138,10.03076-29.31189,11.74756Z"/>
<path class="f" d="M407.5979,120c-4.41821,0-8,3.58179-8,8v16h16v-16c0-4.41821-3.58167-8-8-8Z"/>
<path class="f" d="M479.5979,192h-15.5979v16h15.5979c4.41833,0,8-3.58179,8-8s-3.58167-8-8-8Z"/>
<path class="f" d="M461.25488,146.74512h0c-3.12427-3.12402-8.18958-3.12402-11.31372,0l-11.59802,11.59802,11.3136,11.3136,11.59814-11.5979c3.12415-3.12427,3.12415-8.18945,0-11.31372Z"/>
<path class="f" d="M399.5979,256v16c0,4.41821,3.58179,8,8,8s8-3.58179,8-8v-16h-16Z"/>
<path class="f" d="M461.25488,242.34326l-11.79907-11.79907-11.31372,11.31372,11.79907,11.79883c3.12415,3.12427,8.18945,3.12427,11.31372,0,3.12415-3.12402,3.12415-8.18945,0-11.31348Z"/>
<path class="f" d="M336,191.5979c-4.41821,0-8,3.58179-8,8s3.58179,8,8,8h16v-16h-16Z"/>
<path class="f" d="M365.65686,146.34326c-3.12415-3.12427-8.18958-3.12427-11.31372,0-3.12415,3.12402-3.12415,8.18945,0,11.31348l12,12,11.31372-11.31348-12-12Z"/>
<path class="f" d="M366.14215,230.14215l-11.79901,11.79901c-3.12415,3.12427-3.12415,8.18945,0,11.31372,3.12415,3.12402,8.18958,3.12402,11.31372,0l11.79901-11.79901-11.31372-11.31372Z"/>
<path class="e" d="M407.5979,176c-13.25476,0-24,10.74512-24,24s10.74524,24,24,24,24-10.74512,24-24-10.74512-24-24-24Zm0,32c-4.41821,0-8-3.58179-8-8s3.58179-8,8-8,8,3.58179,8,8-3.58167,8-8,8Z"/>
<path class="e" d="M407.5979,136c-35.34619,0-64,28.65381-64,64s28.65381,64,64,64,64-28.65381,64-64-28.65369-64-64-64Zm0,112c-26.50952,0-48-21.49023-48-48s21.49048-48,48-48,48,21.49023,48,48-21.49023,48-48,48Z"/>
<path class="h" d="M256,232c-70.69238,0-128,57.30762-128,128s57.30762,128,128,128,128-57.30762,128-128-57.30762-128-128-128Zm-96,128c0-47.56787,34.59631-87.05518,79.99951-94.67261l.00049,78.67261-65.9801,65.979c-8.89441-14.55811-14.0199-31.66992-14.0199-49.979Zm36.58936,75.41309l43.41064-43.41309,.00964,62.67432c-16.21191-2.71826-31.04626-9.49951-43.42029-19.26123Zm75.41089,19.25952l-.00024-62.67261,43.41125,43.4126c-12.37158,9.76001-27.20276,16.54077-43.41101,19.26001Zm65.97998-44.6936l-65.98022-65.979-.0166-78.67554c45.41162,7.6106,80.0166,47.10181,80.0166,94.67554,0,18.30884-5.12549,35.4209-14.01978,49.979Z"/>
<path class="g" d="M83.74512,106.62207l-6.04199-5.24414C115.24561,58.12402,167.00732,30.01367,223.45312,22.22559l1.09375,7.92578c-54.52588,7.52246-104.53027,34.68066-140.80176,76.4707Z"/>
<path class="g" d="M142.06641,462.72559c-75.29346-41.58398-122.06641-120.79688-122.06641-206.72559h8c0,83.0166,45.18945,159.5459,117.93359,199.72168l-3.86719,7.00391Z"/>
<path class="g" d="M369.93408,462.72461l-3.86816-7.00195c72.74463-40.17676,117.93408-116.70605,117.93408-199.72266,0-7.87207-.40576-15.80859-1.20557-23.59082l7.95801-.81836c.82764,8.05273,1.24756,16.26562,1.24756,24.40918,0,85.92871-46.77295,165.1416-122.06592,206.72461Z"/>
<path class="g" d="M446.18994,130.20996c-36.23096-54.66992-94.08838-91.13965-158.73682-100.05859l1.09375-7.92578c66.92285,9.2334,126.81201,46.98145,164.31201,103.56445l-6.66895,4.41992Z"/>
<path class="i" d="M188,72v32c0,2.20898,1.79102,4,4,4h44v92c0,2.20898,1.79102,4,4,4h32c2.20898,0,4-1.79102,4-4V108h44c2.20898,0,4-1.79102,4-4v-32c0-2.20898-1.79102-4-4-4h-44V24c0-2.20898-1.79102-4-4-4h-32c-2.20898,0-4,1.79102-4,4v44h-44c-2.20898,0-4,1.79102-4,4Zm8,4h44c2.20898,0,4-1.79102,4-4V28h24v44c0,2.20898,1.79102,4,4,4h44v24h-44c-2.20898,0-4,1.79102-4,4v92h-24V104c0-2.20898-1.79102-4-4-4h-44v-24Z"/>
<path class="i" d="M112.83447,156.72852c.1958,1.70312,1.45508,3.0918,3.13086,3.45312l23.104,4.97852,2.31396,22.24805c.1792,1.72168,1.44531,3.13281,3.1377,3.49609,.28076,.06055,.5625,.08984,.8418,.08984,1.40186,0,2.729-.73926,3.45557-1.9873l11.66309-20.02832,22.87842,3.70801c1.70801,.27832,3.40137-.57617,4.19531-2.11426,.79346-1.53906,.50732-3.41309-.70898-4.64453l-15.7168-15.91504,10.82422-21.00977c.78516-1.52441,.51221-3.37891-.6792-4.61133-1.19141-1.2334-3.03662-1.57227-4.58545-.83691l-21.29883,10.0625-15.11377-16.33398c-1.18604-1.28223-3.06592-1.64648-4.64502-.89941-1.57861,.74512-2.49121,2.42969-2.25391,4.15918l3.02051,22.04883-21.29883,10.06348c-1.5498,.73145-2.46094,2.37012-2.26465,4.07324Zm29.63379-8.15723c1.57861-.74512,2.49121-2.42969,2.25391-4.15918l-1.6958-12.37695,8.48438,9.16895c1.18555,1.28223,3.06543,1.64648,4.64502,.89941l13.28223-6.27539-6.74854,13.09961c-.79248,1.53809-.50635,3.41113,.70947,4.64258l9.14307,9.25879-13.49365-2.1875c-1.6377-.27051-3.26367,.50391-4.09668,1.93555l-6.87939,11.81348-1.34619-12.94336c-.1792-1.7207-1.44434-3.13184-3.13574-3.49609l-14.4043-3.10449,13.28223-6.27539Z"/>
<path class="i" d="M53.73242,264.11621c14.25488,10.375,31.05713,15.81055,48.35547,15.80957,4.31494,0,8.66455-.33887,13.00879-1.02344,25.45312-4.00879,47.15527-19.28711,59.54199-41.91699,.89111-1.62891,.54492-3.65625-.83594-4.89648-1.38086-1.23926-3.43213-1.36914-4.95752-.30762-8.29004,5.76855-17.59277,9.49609-27.6499,11.08008-17.57764,2.76562-35.18457-1.47363-49.57324-11.94531-14.38818-10.47266-23.8374-25.92188-26.60645-43.50098-3.80518-24.15527,5.90088-48.40918,25.29639-63.27344l1.14453-.8584c1.47754-1.1084,2.00439-3.08398,1.27441-4.78027-.72998-1.69727-2.52539-2.6709-4.34668-2.36328-21.49756,3.66504-40.35205,15.44336-53.08887,33.16309-12.74854,17.73633-17.89746,39.38672-14.49805,60.96484,3.42725,21.76172,15.12402,40.88477,32.93506,53.84863Zm-11.94092-110.14453c8.31445-11.56738,19.51514-20.33008,32.41748-25.54883-14.09521,16.41602-20.5415,38.36328-17.0957,60.23633,3.10107,19.69043,13.68506,36.99414,29.80127,48.72461,16.11572,11.72949,35.83496,16.4834,55.52588,13.37988,5.53027-.87109,10.85938-2.32227,15.9502-4.33887-11.36865,13.08789-26.96338,21.80762-44.53857,24.5752-19.64893,3.09375-39.3291-1.64648-55.41211-13.35254s-26.64502-28.97461-29.74023-48.62402c-3.06934-19.48535,1.58008-39.03613,13.0918-55.05176Z"/>
<path class="i" d="M446.64795,144.38135c-7.94116-5.59229-17.12354-9.52368-27.0498-11.29932v-5.08203c0-6.61719-5.3833-12-12-12s-12,5.38281-12,12v5.08203c-9.72986,1.74048-18.74805,5.54785-26.58032,10.96509l-.53247-.53247c-4.67822-4.67871-12.2915-4.68066-16.9707,0-4.67822,4.67871-4.67822,12.29199,0,16.9707l.46484,.46484c-5.5166,7.83398-9.41821,16.87524-11.22742,26.64746h-4.75208c-6.6167,0-12,5.38281-12,12s5.3833,12,12,12h4.60791c1.72339,9.98218,5.625,19.22266,11.20447,27.21729l-.29724,.29736c-2.26709,2.2666-3.51514,5.28027-3.51514,8.48633,0,3.20508,1.24805,6.21875,3.51465,8.48438,2.33936,2.33984,5.4126,3.50977,8.48535,3.50977s6.146-1.16992,8.48535-3.50977l.29736-.29736c7.88721,5.50439,16.9873,9.37427,26.81543,11.13232v5.08203c0,6.61719,5.3833,12,12,12s12-5.38281,12-12v-5.08203c9.82788-1.75806,18.92773-5.62769,26.8147-11.13184l.69995,.7002c2.33936,2.33887,5.41211,3.50781,8.48535,3.50781,3.07275,0,6.146-1.16992,8.48584-3.50879,4.67725-4.67871,4.67725-12.29199-.00098-16.97168l-.69897-.69873c5.50439-7.88696,9.37402-16.98706,11.1322-26.81494h5.08191c6.6167,0,12-5.38281,12-12s-5.3833-12-12-12h-5.08191c-1.7406-9.72998-5.5481-18.74829-10.96545-26.58057l.53271-.53271c4.67871-4.67871,4.67871-12.29102,0-16.96973-4.6792-4.67871-12.29199-4.67871-16.97119,0l-.46436,.46436Zm-43.0498-16.38135c0-2.20605,1.79443-4,4-4s4,1.79395,4,4v4.1272c-1.32471-.07715-2.65637-.1272-4-.1272s-2.67529,.05005-4,.1272v-4.1272Zm-46.42627,21.1709c.75537-.75488,1.75977-1.1709,2.82812-1.1709,.99365,0,1.9231,.37305,2.65723,1.03052-1.98926,1.7561-3.87964,3.61987-5.65222,5.59424-1.37415-1.56958-1.32922-3.95776,.16687-5.45386Zm-21.17188,54.42676c-2.20557,0-4-1.79395-4-4s1.79443-4,4-4h3.7561c-.09363,1.45703-.15796,2.92188-.15796,4.40234,0,1.20703,.03418,2.40601,.09656,3.59766h-3.6947Zm21.17139,46.82812c-.75537-.75488-1.17139-1.75977-1.17139-2.82715,0-.88916,.30273-1.7251,.83521-2.41943,1.7522,1.9668,3.61572,3.83032,5.58228,5.58252-1.56689,1.19678-3.81421,1.09692-5.24609-.33594Zm54.42676,21.57422c0,2.20605-1.79443,4-4,4s-4-1.79395-4-4v-4.1272c1.32471,.07715,2.65637,.1272,4,.1272s2.67529-.05005,4-.1272v4.1272Zm46.82764-26.8291c1.55957,1.55957,1.55957,4.09863,.00049,5.6582-1.55859,1.55859-4.09668,1.55957-5.65625,0l-.03198-.03198c1.99438-1.77417,3.88281-3.6626,5.65698-5.65698l.03076,.03076Zm21.17236-49.1709c2.20557,0,4,1.79395,4,4s-1.79443,4-4,4h-4.1272c.07715-1.32471,.1272-2.65625,.1272-4s-.05005-2.67529-.1272-4h4.1272Zm-72,64c-33.08398,0-60-26.91602-60-60s26.91602-60,60-60,60,26.91602,60,60-26.91602,60-60,60Zm50.82812-110.42676c.75537,.75586,1.17139,1.75977,1.17139,2.8291,0,.99316-.3728,1.92212-1.03027,2.65649-1.75586-1.98901-3.61963-3.87939-5.59363-5.65161,1.57019-1.37476,3.95752-1.3291,5.45251,.16602Z"/>
<path class="i" d="M407.59814,212c6.6167,0,12-5.38281,12-12s-5.3833-12-12-12-12,5.38281-12,12,5.3833,12,12,12Zm0-16c2.20557,0,4,1.79395,4,4s-1.79443,4-4,4-4-1.79395-4-4,1.79443-4,4-4Z"/>
<path class="i" d="M407.59814,148c-28.67285,0-52,23.32715-52,52s23.32715,52,52,52,52-23.32715,52-52-23.32715-52-52-52Zm16.98438,29.76025c-3.6084-2.76245-7.90308-4.66919-12.58252-5.41138v-16.12817c9.07568,.90576,17.34253,4.58545,23.9519,10.17017l-11.36938,11.36938Zm-20.58252-5.52124c-4.79175,.61792-9.20728,2.44727-12.92725,5.17651l-11.39575-11.39551c6.7312-5.54102,15.13367-9.11279,24.323-9.8606v16.07959Zm3.59814,7.76099c11.02783,0,20,8.97168,20,20s-8.97217,20-20,20-20-8.97168-20-20,8.97217-20,20-20Zm-16.52539,42.58447c3.71997,2.72925,8.1355,4.55859,12.92725,5.17651v16.07959c-9.18933-.7478-17.5918-4.31958-24.323-9.8606l11.39575-11.39551Zm20.92725,5.06665c4.67944-.74219,8.97412-2.64893,12.58252-5.41138l11.36938,11.36938c-6.60938,5.58472-14.87622,9.2644-23.9519,10.17017v-16.12817Zm18.18225-11.12524c2.6532-3.61597,4.45935-7.88843,5.12561-12.52588h16.10022c-.81824,9.03296-4.36975,17.28833-9.8302,23.92163l-11.39563-11.39575Zm5.12561-20.52588c-.66626-4.63745-2.47241-8.90991-5.12561-12.52588l11.39563-11.39575c5.46045,6.6333,9.01196,14.88867,9.8302,23.92163h-16.10022Zm-61.3186-24.354l11.36938,11.36914c-2.84131,3.71143-4.77539,8.14941-5.47021,12.98486h-16.10022c.8363-9.23267,4.5343-17.64771,10.20105-24.354Zm-10.20105,32.354h16.10022c.69482,4.83545,2.62891,9.27344,5.47021,12.98486l-11.36938,11.36914c-5.66675-6.7063-9.36475-15.12134-10.20105-24.354Z"/>
<path class="i" d="M256,228c-72.78516,0-132,59.21484-132,132s59.21484,132,132,132,132-59.21484,132-132-59.21484-132-132-132Zm0,256c-68.37402,0-124-55.62598-124-124s55.62598-124,124-124,124,55.62598,124,124-55.62598,124-124,124Z"/>
<path class="i" d="M244,344l-.00049-78.67285c0-1.17676-.51807-2.29395-1.41602-3.05371-.89844-.75977-2.08398-1.08301-3.24609-.8916-23.04736,3.86719-44.14453,15.83691-59.40527,33.70312-15.43311,18.06738-23.93213,41.12109-23.93213,64.91504,0,18.41992,5.05078,36.42383,14.60645,52.06445,.63965,1.04688,1.72314,1.74219,2.94092,1.88672,.15771,.01953,.31592,.02832,.47266,.02832,1.05469,0,2.07373-.41699,2.82861-1.17188l65.97998-65.97949c.75-.75,1.17139-1.76758,1.17139-2.82812Zm-69.11133,59.4541c-7.1377-13.30664-10.88867-28.22461-10.88867-43.4541,0-21.89062,7.81836-43.09961,22.01514-59.71973,13.00586-15.22656,30.61426-25.79688,49.98438-30.09961l.00049,72.16211-61.11133,61.11133Z"/>
<path class="i" d="M332.0625,295.07812c-15.26465-17.86816-36.3667-29.83594-59.41797-33.69922-1.16309-.19043-2.34814,.13184-3.24561,.89258-.89795,.75977-1.41602,1.87695-1.41553,3.05371l.0166,78.67578c0,1.06055,.42188,2.07715,1.17139,2.82715l65.98047,65.97852c.75488,.75488,1.77393,1.17188,2.82812,1.17188,.15723,0,.31543-.00879,.47314-.02832,1.21777-.14453,2.30127-.83984,2.94092-1.88672,9.55518-15.63965,14.60596-33.64355,14.60596-52.06348,0-23.79688-8.50098-46.85352-23.9375-64.92188Zm5.04932,108.375l-61.1123-61.11035-.01514-72.16602c19.37354,4.2998,36.98633,14.87012,49.99561,30.09766,14.19971,16.62109,22.02002,37.83203,22.02002,59.72559,0,15.22949-3.75098,30.14746-10.88818,43.45312Z"/>
<path class="i" d="M241.53027,388.30469c-1.49414-.61914-3.21533-.27637-4.35889,.86719l-43.41064,43.41309c-.80762,.80762-1.23145,1.92285-1.16455,3.06348,.06738,1.13965,.61865,2.19727,1.51562,2.90527,13.14404,10.36914,28.78662,17.30762,45.23682,20.06543,.22021,.03613,.44092,.05469,.66113,.05469,.93896,0,1.85693-.33105,2.58447-.94727,.89795-.75977,1.41553-1.87695,1.41553-3.05371l-.00977-62.67383c-.00049-1.61719-.9751-3.07617-2.46973-3.69434Zm-38.85156,46.67578l33.32275-33.3252,.00732,48.16504c-11.9502-2.6543-23.32324-7.71777-33.33008-14.83984Z"/>
<path class="i" d="M274.82861,389.17188c-1.14404-1.14355-2.86328-1.48535-4.35938-.86719-1.49463,.61914-2.46924,2.07715-2.46924,3.69531l.00049,62.67285c0,1.17676,.51807,2.29395,1.41602,3.05371,.72754,.61523,1.64502,.94629,2.58398,.94629,.22021,0,.44141-.01855,.66211-.05469,16.44678-2.75977,32.08545-9.69824,45.22607-20.06445,.89697-.70801,1.44824-1.76562,1.51562-2.90625,.06689-1.13965-.35693-2.25488-1.16455-3.0625l-43.41113-43.41309Zm1.17188,60.64746l-.00049-48.16211,33.32129,33.32324c-10.00244,7.11914-21.375,12.18262-33.3208,14.83887Z"/>
<path class="i" d="M224.54688,30.15137l-1.09375-7.92578c-56.4458,7.78809-108.20752,35.89844-145.75,79.15234l6.04199,5.24414C120.0166,64.83203,170.021,37.67383,224.54688,30.15137Z"/>
<path class="i" d="M28,256h-8c0,85.92871,46.77295,165.1416,122.06641,206.72559l3.86719-7.00391c-72.74414-40.17578-117.93359-116.70508-117.93359-199.72168Z"/>
<path class="i" d="M490.75244,231.59082l-7.95801,.81836c.7998,7.78223,1.20557,15.71875,1.20557,23.59082,0,83.0166-45.18945,159.5459-117.93408,199.72266l3.86816,7.00195c75.29297-41.58301,122.06592-120.7959,122.06592-206.72461,0-8.14355-.41992-16.35645-1.24756-24.40918Z"/>
<path class="i" d="M446.18994,130.20996l6.66895-4.41992c-37.5-56.58301-97.38916-94.33105-164.31201-103.56445l-1.09375,7.92578c64.64844,8.91895,122.50586,45.38867,158.73682,100.05859Z"/>
</g>
</g>
<g id="d"/>
</svg>