<?xml version="1.0" encoding="utf-8"?>
<!-- Uploaded to: SVG Repo, www.svgrepo.com, Generator: SVG Repo Mixer Tools -->
<svg width="800px" height="800px" viewBox="0 0 1024 1024" fill="#000000" class="icon"  version="1.1" xmlns="http://www.w3.org/2000/svg"><path d="M890.378 185.931v-87.011l-394.703 87.011h-33.281l-394.703-87.011v87.011h-41.486v695.564h431.986v0.957l4.205-0.957h33.281l4.205 0.957v-0.957h497.918v-695.564h-107.421zM109.383 185.931v-35.199l348.804 76.934v603.011l-348.804-76.973v-567.774zM848.722 150.654v602.969l-348.844 76.934v-602.969l348.844-76.934zM961.559 558.27h-48.986v-49.111h48.986v49.111zM88.513 831.553v-39.819l180.482 39.819h-180.482zM876.463 790.151v41.319h-187.354l187.354-41.319zM411.698 339.134l-258.582-86.096 5.747-17.164 7.497-22.368 258.582 86.096-13.247 39.529zM411.698 450.802l-258.582-86.096 13.164-39.529 258.582 86.096-13.164 39.529zM411.698 562.518l-258.582-86.096 13.164-39.529 258.582 86.096-13.164 39.529zM411.698 674.106l-258.582-86.055 13.164-39.529 258.582 86.055-13.164 39.529zM411.698 772.951l-258.582-86.055 13.164-39.529 258.582 86.055-13.164 39.529zM546.405 339.134l-13.164-39.529 258.54-86.096 7.497 22.368 5.79 17.164-258.666 86.096zM546.405 450.802l-13.164-39.529 258.54-86.096 13.164 39.529-258.54 86.096zM546.405 562.518l-13.164-39.529 258.54-86.096 13.164 39.529-258.54 86.096zM546.405 674.106l-13.164-39.529 258.54-86.055 13.164 39.529-258.54 86.055zM546.405 772.951l-13.164-39.529 258.54-86.055 13.164 39.529-258.54 86.055z" /></svg>