<svg xmlns="http://www.w3.org/2000/svg" height="24" viewBox="0 -960 960 960" width="24"><path d="M720-723.846q-30.461 0-52.154-21.693-21.692-21.692-21.692-52.153 0-30.462 21.692-52.154 21.693-21.692 52.154-21.692 30.461 0 52.154 21.692 21.692 21.692 21.692 52.154 0 30.461-21.692 52.153-21.693 21.693-52.154 21.693ZM674.615-90.001v-315.384q0-37.485-18.192-67.473t-49.808-47.219l38.462-106.462q8-23.461 28.731-37.692 20.731-14.23 46.192-14.23t46.192 14.038q20.731 14.038 28.731 37.884L900-332.309H796.923v242.308H674.615Zm-174.66-411.538q-23.416 0-39.762-16.391-16.347-16.391-16.347-39.807 0-23.417 16.392-39.763 16.391-16.346 39.807-16.346 23.416 0 39.762 16.392 16.347 16.391 16.347 39.807 0 23.416-16.392 39.762-16.391 16.346-39.807 16.346ZM220-723.846q-30.461 0-52.154-21.693-21.692-21.692-21.692-52.153 0-30.462 21.692-52.154 21.693-21.692 52.154-21.692 30.461 0 52.154 21.692 21.692 21.692 21.692 52.154 0 30.461-21.692 52.153-21.693 21.693-52.154 21.693ZM144.616-90.001v-271.538H81.539v-237.692q0-29.826 21.24-51.067 21.24-21.24 51.067-21.24h132.308q29.827 0 51.067 21.24 21.24 21.241 21.24 51.067v237.692h-63.077v271.538H144.616Zm300.769 0V-240h-40v-165.385q0-22.756 15.929-38.686Q437.244-460 460-460h80q22.756 0 38.686 15.929 15.929 15.93 15.929 38.686V-240h-40v150h-109.23Z"/></svg>