<?xml version="1.0" encoding="utf-8"?><!-- Uploaded to: SVG Repo, www.svgrepo.com, Generator: SVG Repo Mixer Tools -->
<svg fill="#000000" width="800px" height="800px" viewBox="0 0 24 24" id="trekking" data-name="Line Color" xmlns="http://www.w3.org/2000/svg" class="icon line-color"><circle id="primary" cx="12" cy="5" r="2" style="fill: none; stroke: rgb(0, 0, 0); stroke-linecap: round; stroke-linejoin: round; stroke-width: 2;"></circle><path id="primary-2" data-name="primary" d="M19,10l-2.28.76a1,1,0,0,1-1.14-.4l-1-1.47A2,2,0,0,0,12.93,8H10.24a1,1,0,0,0-.45.11L6.3,9.85a1,1,0,0,0-.45.45L5,12" style="fill: none; stroke: rgb(0, 0, 0); stroke-linecap: round; stroke-linejoin: round; stroke-width: 2;"></path><path id="primary-3" data-name="primary" d="M10,8.05s0,3.37,0,5.67a2,2,0,0,0,1.18,1.83c.74.32,1.49.62,2.13.86a2,2,0,0,1,1.23,2.36L14,21" style="fill: none; stroke: rgb(0, 0, 0); stroke-linecap: round; stroke-linejoin: round; stroke-width: 2;"></path><line id="primary-4" data-name="primary" x1="11.18" y1="15.7" x2="8" y2="21" style="fill: none; stroke: rgb(0, 0, 0); stroke-linecap: round; stroke-linejoin: round; stroke-width: 2;"></line><line id="primary-5" data-name="primary" x1="14" y1="12" x2="14" y2="8.45" style="fill: none; stroke: rgb(0, 0, 0); stroke-linecap: round; stroke-linejoin: round; stroke-width: 2;"></line></svg>