<svg xmlns="http://www.w3.org/2000/svg" height="24" viewBox="0 -960 960 960" width="24"><path d="M220.001-97.694v-59.998h230v-174.617H360q-74.922 0-127.461-52.538-52.538-52.538-52.538-127.46 0-56.538 33.77-102.23 33.769-45.692 86.692-67.923 8.615-76.923 58.769-123.384Q409.385-852.306 480-852.306q70.615 0 120.768 46.462 50.154 46.461 58.769 123.384 53.308 21.461 86.885 67.538 33.577 46.077 33.577 102.615 0 74.922-52.538 127.46Q674.922-332.309 600-332.309h-90.001v174.617h230v59.998H220.001ZM360-392.307h240q50 0 85-35t35-85q0-38.693-23.769-69.27-23.77-30.577-60.232-45.346L604-640.307l-4.461-35.999q-6.385-53.847-39.308-84.924-32.923-31.077-80.231-31.077-47.308 0-80.231 31.077-32.923 31.077-39.308 84.924L356-640.307l-35.076 14.923Q286-610.615 263-580.423q-23 30.193-23 68.116 0 50 35 85t85 35Zm120-200Z"/></svg>