<?xml version="1.0" encoding="utf-8"?><!-- Uploaded to: SVG Repo, www.svgrepo.com, Generator: SVG Repo Mixer Tools -->
<svg fill="#000000" width="800px" height="800px" viewBox="0 0 1024 1024" xmlns="http://www.w3.org/2000/svg"><path d="M829.44 911.36c45.245 0 81.92-36.675 81.92-81.92V194.56c0-45.245-36.675-81.92-81.92-81.92H194.56c-45.245 0-81.92 36.675-81.92 81.92v634.88c0 45.245 36.675 81.92 81.92 81.92h634.88zm0 40.96H194.56c-67.866 0-122.88-55.014-122.88-122.88V194.56c0-67.866 55.014-122.88 122.88-122.88h634.88c67.866 0 122.88 55.014 122.88 122.88v634.88c0 67.866-55.014 122.88-122.88 122.88z"/><path d="M378.88 375.014c0-73.517 59.603-133.12 133.12-133.12s133.12 59.603 133.12 133.12-59.603 133.12-133.12 133.12c-11.311 0-20.48 9.169-20.48 20.48s9.169 20.48 20.48 20.48c96.139 0 174.08-77.941 174.08-174.08S608.139 200.934 512 200.934c-96.139 0-174.08 77.941-174.08 174.08 0 11.311 9.169 20.48 20.48 20.48s20.48-9.169 20.48-20.48z"/><path d="M491.276 532.509v122.88c0 11.311 9.169 20.48 20.48 20.48s20.48-9.169 20.48-20.48v-122.88c0-11.311-9.169-20.48-20.48-20.48s-20.48 9.169-20.48 20.48zm64.79 249.597c0 22.62-18.34 40.96-40.96 40.96s-40.96-18.34-40.96-40.96 18.34-40.96 40.96-40.96 40.96 18.34 40.96 40.96z"/></svg>