<?xml version="1.0" encoding="iso-8859-1"?>
<!-- Uploaded to: SVG Repo, www.svgrepo.com, Generator: SVG Repo Mixer Tools -->
<svg height="800px" width="800px" version="1.1" id="Layer_1" xmlns="http://www.w3.org/2000/svg" xmlns:xlink="http://www.w3.org/1999/xlink" 
	 viewBox="0 0 511.999 511.999" xml:space="preserve">
<path style="fill:#B88C1D;" d="M326.679,52.642c0-11.877-9.717-21.594-21.594-21.594h-98.179c-11.877,0-21.594,9.717-21.594,21.594
	v87.77c0,11.877,9.717,21.594,21.594,21.594h98.179c11.877,0,21.594-9.717,21.594-21.594V52.642z"/>
<path style="fill:#333E48;" d="M442.772,142.065c0-11.877-9.717-21.594-21.594-21.594H90.813c-11.877,0-21.594,9.717-21.594,21.594
	v170.598c0,11.877,9.717,21.594,21.594,21.594h330.365c11.877,0,21.594-9.717,21.594-21.594V142.065z"/>
<g>
	<path style="fill:#FFFFFF;" d="M418.12,279.493c0,9.36-7.587,16.948-16.947,16.948c-9.361,0-16.948-7.587-16.948-16.948v-57.791
		c0-9.36,7.587-16.948,16.948-16.948c9.36,0,16.947,7.588,16.947,16.948V279.493z"/>
	<circle style="fill:#FFFFFF;" cx="401.167" cy="167.178" r="16.948"/>
</g>
<circle style="fill:#F9BE00;" cx="255.993" cy="227.36" r="72.825"/>
<circle style="fill:#333E48;" cx="255.993" cy="227.36" r="46.283"/>
<circle style="opacity:0.2;enable-background:new    ;" cx="255.993" cy="227.36" r="21.437"/>
<g>
	<path style="fill:#F9BE00;" d="M165.298,174.07c0,2.969-2.429,5.398-5.398,5.398H98.897c-2.969,0-5.398-2.429-5.398-5.398v-24.129
		c0-2.969,2.429-5.398,5.398-5.398H159.9c2.969,0,5.398,2.429,5.398,5.398V174.07z"/>
	<path style="fill:#F9BE00;" d="M214.91,91.393c0,2.969,2.429,5.398,5.398,5.398h71.382c2.969,0,5.398-2.429,5.398-5.398v-29.78
		c0-2.969-2.429-5.398-5.398-5.398h-71.382c-2.969,0-5.398,2.429-5.398,5.398V91.393z"/>
	<path style="fill:#F9BE00;" d="M479.57,350.11c-1.82-8.72-10.597-15.854-19.505-15.854H51.933c-8.907,0-17.685,7.133-19.505,15.854
		L8.425,465.097c-1.821,8.72,3.978,15.854,12.886,15.854H490.69c8.907,0,14.706-7.133,12.886-15.854L479.57,350.11z"/>
</g>
<path style="fill:#B88C1D;" d="M337.307,388.584c0-8.907-7.288-16.195-16.195-16.195H190.889c-8.907,0-16.195,7.288-16.195,16.195
	v38.039c0,8.907,7.288,16.195,16.195,16.195h130.222c8.907,0,16.195-7.288,16.195-16.195v-38.039H337.307z"/>
<path style="opacity:0.2;enable-background:new    ;" d="M297.09,415.701H214.9c-4.472,0-8.098-3.626-8.098-8.098
	c0-4.472,3.626-8.098,8.098-8.098h82.189c4.472,0,8.098,3.626,8.098,8.098C305.188,412.075,301.562,415.701,297.09,415.701z"/>
<path style="fill:#FFFFFF;" d="M453.118,453.861c-6.758,0-12.818-4.725-14.254-11.6l-13.226-63.358
	c-1.644-7.881,3.41-15.601,11.29-17.247c7.878-1.641,15.601,3.41,17.247,11.289l13.226,63.358
	c1.644,7.881-3.41,15.601-11.289,17.248C455.106,453.76,454.104,453.861,453.118,453.861z"/>
<path style="fill:#1E252B;" d="M255.996,281.744c29.985,0,54.379-24.394,54.379-54.381c0-29.985-24.394-54.381-54.379-54.381
	s-54.381,24.394-54.381,54.381S226.011,281.744,255.996,281.744z M255.996,189.18c21.055,0,38.184,17.129,38.184,38.185
	c0,21.055-17.129,38.185-38.184,38.185s-38.185-17.129-38.185-38.185S234.941,189.18,255.996,189.18z M291.692,48.117h-71.382
	c-7.442,0-13.496,6.054-13.496,13.496v29.78c0,7.442,6.054,13.496,13.496,13.496h71.382c7.442,0,13.496-6.054,13.496-13.496v-29.78
	C305.188,54.17,299.133,48.117,291.692,48.117z M288.992,88.693h-65.984V64.312h65.984V88.693z M511.5,463.441l-24.004-114.985
	c-2.61-12.503-14.659-22.297-27.432-22.297h-12.453c2.077-4.052,3.258-8.637,3.258-13.496V142.065
	c0-16.372-13.319-29.691-29.691-29.691h-86.402V52.642c0-16.372-13.319-29.691-29.691-29.691h-98.179
	c-16.372,0-29.691,13.319-29.691,29.691v59.731H90.813c-16.372,0-29.691,13.319-29.691,29.691v170.598
	c0,4.859,1.18,9.444,3.258,13.496H51.933c-12.773,0-24.822,9.794-27.432,22.297L0.498,463.441
	c-1.368,6.554,0.112,13.099,4.063,17.96c3.949,4.86,10.055,7.647,16.75,7.647H490.69c6.695,0,12.8-2.788,16.75-7.647
	C511.388,476.54,512.868,469.995,511.5,463.441z M193.41,52.642c0-7.442,6.054-13.496,13.496-13.496h98.179
	c7.442,0,13.496,6.054,13.496,13.496v59.731H193.41V52.642z M77.317,142.065c0-7.442,6.054-13.496,13.496-13.496h330.365
	c7.442,0,13.496,6.054,13.496,13.496v170.598c0,7.442-6.054,13.496-13.496,13.496H90.813c-7.442,0-13.496-6.054-13.496-13.496
	V142.065z M494.871,471.186c-0.873,1.075-2.359,1.667-4.183,1.667H21.31c-1.824,0-3.308-0.592-4.183-1.667
	c-0.873-1.074-1.149-2.65-0.776-4.434l24.004-114.987c1.028-4.926,6.547-9.411,11.579-9.411h408.132
	c5.031,0,10.55,4.485,11.579,9.411l24.004,114.987C496.02,468.537,495.745,470.111,494.871,471.186z M255.996,308.282
	c44.618,0,80.917-36.299,80.917-80.917c0-44.619-36.299-80.918-80.917-80.918c-44.619,0-80.918,36.3-80.918,80.918
	S211.377,308.282,255.996,308.282z M255.996,162.641c35.688,0,64.722,29.035,64.722,64.723s-29.035,64.722-64.722,64.722
	c-35.689,0-64.723-29.035-64.723-64.722C191.273,191.676,220.307,162.641,255.996,162.641z M321.112,364.291H190.889
	c-13.396,0-24.293,10.897-24.293,24.293v38.039c0,13.396,10.897,24.293,24.293,24.293h130.222c13.396,0,24.293-10.897,24.293-24.293
	v-38.039C345.405,375.188,334.507,364.291,321.112,364.291z M329.21,426.623c0,4.465-3.633,8.098-8.098,8.098H190.889
	c-4.465,0-8.098-3.633-8.098-8.098v-38.039c0-4.465,3.633-8.098,8.098-8.098h130.222c4.465,0,8.098,3.633,8.098,8.098v38.039H329.21
	z M98.897,187.566H159.9c7.442,0,13.496-6.054,13.496-13.496v-24.129c0-7.442-6.054-13.496-13.496-13.496H98.897
	c-7.442,0-13.496,6.054-13.496,13.496v24.129C85.401,181.512,91.456,187.566,98.897,187.566z M101.597,152.64H157.2v18.73h-55.604
	V152.64z"/>
</svg>