<?xml version="1.0" encoding="iso-8859-1"?>
<!-- Uploaded to: SVG Repo, www.svgrepo.com, Generator: SVG Repo Mixer Tools -->
<svg fill="#000000" height="800px" width="800px" version="1.1" id="Layer_1" xmlns="http://www.w3.org/2000/svg" xmlns:xlink="http://www.w3.org/1999/xlink" 
	 viewBox="0 0 511.998 511.998" xml:space="preserve">
<g>
	<g>
		<polygon points="427.87,45.392 418.616,54.648 409.272,45.305 398.638,55.938 418.616,75.917 438.506,56.028 		"/>
	</g>
</g>
<g>
	<g>
		<polygon points="169.468,470.955 160.213,480.21 150.87,470.866 140.236,481.501 160.213,501.48 180.103,481.591 		"/>
	</g>
</g>
<g>
	<g>
		<polygon points="36.203,189.797 26.948,199.051 17.604,189.708 6.97,200.345 26.948,220.321 46.838,200.432 		"/>
	</g>
</g>
<g>
	<g>
		<polygon points="288.54,267.499 279.286,276.754 269.942,267.41 259.307,278.045 279.286,298.023 299.176,278.135 		"/>
	</g>
</g>
<g>
	<g>
		<path d="M158.76,81.684v9.641v85.42v158.312c-6.943-5.677-15.77-9.087-25.375-9.087c-11.342,0-21.928,4.65-29.521,12.598
			c-7.592-7.948-18.178-12.598-29.521-12.598c-22.246,0-40.344,18.325-40.344,40.85c0,10.276,3.014,16.377,5.216,20.83l0.135,0.274
			c8.898,18.025,54.541,56.156,59.716,60.443l4.786,3.967l4.796-3.953c5.222-4.305,51.261-42.578,59.783-60.565l0.229-0.48
			c2.047-4.305,5.14-10.812,5.14-20.515c0-0.907-0.04-1.806-0.098-2.698h0.098v-183.6l222.634,55.89v158.312
			c-6.943-5.677-15.77-9.087-25.375-9.087c-11.342,0-21.928,4.65-29.521,12.599c-7.592-7.949-18.178-12.599-29.521-12.599
			c-22.246,0-40.344,18.325-40.344,40.85c0,10.276,3.014,16.377,5.216,20.831l0.135,0.272c8.898,18.026,54.541,56.157,59.716,60.444
			l4.786,3.967l4.796-3.953c5.222-4.305,51.261-42.578,59.783-60.565l0.229-0.48c2.047-4.305,5.14-10.812,5.14-20.515
			c0-0.907-0.04-1.806-0.098-2.698h0.098v-183.6v-89.195v-5.866L158.76,81.684z M155.078,380.877l-0.237,0.497
			c-4.905,10.352-32.058,35.413-50.96,51.392c-15.694-13.352-45.35-39.965-51.043-51.499l-0.137-0.279
			c-1.882-3.808-3.659-7.406-3.659-14.169c0-14.474,11.115-25.81,25.304-25.81c9.622,0,18.382,5.297,22.864,13.826l6.657,12.667
			l6.657-12.667c4.482-8.529,13.242-13.826,22.864-13.826c14.229,0,25.375,11.337,25.375,25.81
			C158.76,373.129,156.888,377.068,155.078,380.877z M173.801,165.014v-64.049l222.634,55.891v64.048L173.801,165.014z
			 M392.752,440.543l-0.237,0.497c-4.905,10.352-32.058,35.413-50.96,51.392c-15.694-13.352-45.35-39.965-51.043-51.499
			l-0.137-0.279c-1.882-3.808-3.659-7.406-3.659-14.169c0-14.474,11.115-25.81,25.304-25.81c9.621,0,18.382,5.298,22.864,13.827
			l6.657,12.667l6.657-12.667c4.482-8.529,13.243-13.827,22.864-13.827c14.229,0,25.375,11.337,25.375,25.81
			C396.435,432.795,394.562,436.732,392.752,440.543z"/>
	</g>
</g>
<g>
	<g>
		<path d="M97.66,58.942l32.731-32.731L104.181,0L60.815,43.367L81.707,64.26l14.556,14.555c-0.973,0.66-1.892,1.412-2.741,2.261
			c-7.242,7.243-7.242,19.029,0,26.272c3.509,3.508,8.174,5.44,13.136,5.44s9.628-1.932,13.136-5.44
			c3.509-3.509,5.442-8.174,5.442-13.137c0-4.963-1.932-9.628-5.442-13.137L97.66,58.942z M87.024,48.308l-4.941-4.941
			l22.098-22.097l4.941,4.941L87.024,48.308z M109.159,96.713c-0.901,0.901-1.954,1.036-2.502,1.036c-0.547,0-1.6-0.134-2.501-1.035
			c-1.379-1.38-1.379-3.624,0-5.002c0.901-0.901,1.954-1.036,2.502-1.036c0.547,0,1.6,0.134,2.502,1.036
			c0.899,0.9,1.035,1.953,1.035,2.501C110.195,94.759,110.061,95.812,109.159,96.713z"/>
	</g>
</g>
<g>
	<g>
		<path d="M499.587,273.699l-28.486-28.486c3.37-0.293,7.185-1.442,10.621-4.877c4.503-4.503,6.037-9.276,7.269-13.111
			c0.96-2.987,1.652-5.145,3.585-7.077c1.313-1.313,3.227-2.2,5.852-2.713l-2.885-14.76c-5.578,1.09-10.154,3.391-13.602,6.838
			c-4.503,4.503-6.037,9.276-7.269,13.111c-0.96,2.987-1.652,5.145-3.585,7.076c-0.597,0.599-1.086,0.708-4.513,0.406
			c-3.802-0.335-9.547-0.837-14.867,3.335c-1.936,1.518-3.132,3.799-3.281,6.258c-0.149,2.461,0.764,4.871,2.507,6.618
			l25.122,25.122c-0.973,0.66-1.892,1.412-2.741,2.261c-7.242,7.243-7.242,19.029,0,26.272c3.509,3.508,8.174,5.44,13.136,5.44
			s9.628-1.932,13.136-5.44c3.509-3.509,5.441-8.174,5.441-13.137C505.028,281.871,503.097,277.208,499.587,273.699z
			 M488.953,289.336c-0.901,0.901-1.954,1.036-2.502,1.036c-0.547,0-1.6-0.134-2.501-1.035c-1.379-1.38-1.379-3.624,0-5.002
			c0.901-0.901,1.954-1.036,2.502-1.036c0.547,0,1.6,0.134,2.502,1.036c0.901,0.9,1.036,1.953,1.036,2.501
			C489.99,287.383,489.855,288.435,488.953,289.336z"/>
	</g>
</g>
</svg>