<?xml version="1.0" encoding="utf-8"?>
<!-- Uploaded to: SVG Repo, www.svgrepo.com, Generator: SVG Repo Mixer Tools -->
<svg width="800px" height="800px" viewBox="-79.86 0 435.993 435.993" xmlns="http://www.w3.org/2000/svg"><defs><style>.a{fill:#ffffff;}.b{fill:#7a7473;}.c{fill:#b5886a;}.d{fill:#211715;}.e{fill:#f4bb67;}.f{fill:#bdbdbd;}</style></defs><path class="a" d="M84.544,90.259s9.223.376,12.278.723c7.874.893,26.769,4.239,32.221,9.754,3.723,3.767,4.649,9.933,4.791,14.094.708,20.682,2.527,57.67-.546,78.39-.883,5.956-3.221,12.621-13.864,14.225-2.037.308-10.407.656-12.411.79l-5.636.274Z"/><path class="a" d="M43.913,218.519c-8.143-.045-14.833-.078-18.135-.089a2.242,2.242,0,0,1-2.24-2.3c.217-8.949.977-32.808.977-32.808l-3.388-4.476a13.038,13.038,0,0,1-12.11.473c-5.06-2.58-7.9-8.59-6.81-18.16q.27-2.37.57-4.8c.93-10.53,6.824-30.773,8.874-34.613a33.114,33.114,0,0,1,4.79-6.72,41.036,41.036,0,0,1,6.71-5.71,194.173,194.173,0,0,1,20.62-12.2l1.049-.54,1.661,2.4c1.133,1.637,5.609,2.881,7.578,3.172,6.619.978,12.667-.721,19.028-2.794a41.775,41.775,0,0,0,13.088-6.812,161.555,161.555,0,0,1,25.486,15.217,24.061,24.061,0,0,1,7.04,7.59,27.551,27.551,0,0,1,3.22,8.22c1.53,8.11,2.69,12.99,3.44,22.24.27,5.33,1.193,13.793,1.183,19.123-.01,6.15-.27,12.54-3.14,17.97s-9.913,6.437-15.863,4.907a14.341,14.341,0,0,1-3.69-1.5s.311,23.894.395,30.774a1.759,1.759,0,0,1-1.771,1.783C94.864,218.815,64.667,218.632,43.913,218.519Z"/><path class="a" d="M20.811,142.973c1.08-6.46,4.62-24.36,5.28-27.82,3.83.42,19.33,2.45,24.65,3.58-1.32,12.37-4.73,37.94-6,47.22-3.25-.45-8.49-1.31-12.09-1.97Z"/><path class="a" d="M196.879,396.365l-.083-1,.267.014a74.879,74.879,0,0,0,15.557-.792c.022,1.2.044,2.248.044,2.248.01,1.04,0,5.953,1.417,7.058a56.208,56.208,0,0,0-4.912,2.945c-1.256.84-2.548.051-3.456-1.156-2.186-2.9-5.17-4.734-7.072-4.78l-1.23-.03-.02-.344a21.98,21.98,0,0,0-.434-3.222Z"/><path class="a" d="M57.309,391.359c-4.165,1.34-9.9,1.553-15.333,1.316l.184,1.475a23.566,23.566,0,0,1,.465,3.449l.079.546,1.794-.05c2.036.05,6.107.844,7.571,5.118a2.459,2.459,0,0,0,3.7,1.237,60.362,60.362,0,0,1,5.362-3.208l-.08-.1a7.816,7.816,0,0,1-1.3-4.865Z"/><path class="a" d="M26.514,54.15c.2,2.88.372,5.7.569,8.392.593,8.074,2.782,15.437,8.251,20.253a25.808,25.808,0,0,0,14.688,6.736v.349c.009,1.987.018,2.892.027,4.879a1.252,1.252,0,0,1-.742,1.4q-1.506.915-3.051,1.763c-.575,2.133,5.432,3.866,7.8,4.217,6.619.978,12.667-.721,19.028-2.794a41.113,41.113,0,0,0,12.628-6.484l-2.926-1.289a5.9,5.9,0,0,1-2.383-4.766c-.043-1.688-.093-5.752-.117-8.83,0,0,0-.028,0-.08a46.483,46.483,0,0,0,4.638-5.5s1.534-2.19,2.2-3.449l.281-.63a9.35,9.35,0,0,0,4.164-1.565,12.69,12.69,0,0,0,4.1-6.17,12.841,12.841,0,0,0,.646-4.306c5.769-11.128,5.759-26.4-.722-37.247-1.974-3.305-3.625-4.753-7.048-8.387-6.857-5.851-15.75-8.551-25.138-8.6C52.6,1.991,41.354,6.19,34.825,13.8c-3.079,3.587-6.688,7.788-8.364,16.2-.672,3.375-1.522,8.29-.462,17.77C26.2,49.906,26.367,52.043,26.514,54.15Z"/><path class="b" d="M27.334,26.5c-.329,1.082-.622,2.246-.873,3.5-.672,3.375-1.522,8.29-.462,17.77l.127,1.131.147-.709c.684-3.3,7.332-12.231,12-14.677.547-.286,1.249.1,1.471,1.015a6,6,0,0,1,.143,2.188,1.139,1.139,0,0,0,1.624,1.223c3.329-1.849,9.787-7.05,16.748-8.335l.765-.142a28.888,28.888,0,0,1,5.568,1.266c2.008.873,11.289,4.413,17.857,17.04L88,50.971A4.852,4.852,0,0,1,91.389,49.8a4.376,4.376,0,0,1,3.9,2.063,9.083,9.083,0,0,1,1.023,4.418c5.768-11.127,5.758-26.4-.723-37.246a28.1,28.1,0,0,0-4.147-5.34l-4.872-4.6c-6.55-4.775-14.655-7-23.167-7.042C52.6,1.991,41.354,6.19,34.825,13.8,32.206,16.847,29.2,20.341,27.334,26.5Z"/><path class="c" d="M229.833,43.024a33.483,33.483,0,0,0-22.083-7.035c-11.454.3-20.76,4.5-27.1,11.614a35.211,35.211,0,0,0-7.475,15.548,56.017,56.017,0,0,0-.068,19.225l4.448,28.12c-.092,3.471-1.4,8.322-1.78,9.989-1,4.346,4,8.346,8.082,9.6l63.289,3.684a15.872,15.872,0,0,0,2.79-8.209c.264-6.28-3.3-12.013-4.846-18.109a73.445,73.445,0,0,1-1.842-13.9,50.511,50.511,0,0,1,.542-9.624c.425-3.485,1.25-6.86,1.4-10.4a33.491,33.491,0,0,0-1.059-9.772c-1.644-6.324-4.4-11.845-9.189-16.291"/><path class="a" d="M185.081,68.645c-.519,2.768-.883,5.439.473,5.036a40.506,40.506,0,0,0,21.318-14.818c1.087,4.175,2.621,9.375,3.97,11.9,1.931,3.621,7.97,11.629,12.976,13.156l8.141.073a4.613,4.613,0,0,1,3.222-1.119,4.164,4.164,0,0,1,3.714,1.962c1.259,2.086,1.207,5.923.357,8.3a12.079,12.079,0,0,1-3.9,5.87,8.891,8.891,0,0,1-3.937,1.485l-.292.6c-.628,1.2-2.087,3.281-2.087,3.281a44.1,44.1,0,0,1-4.5,5.319c.022,2.936.069,6.8.11,8.413a5.639,5.639,0,0,0,2.274,4.548l3.239,1.427a128.074,128.074,0,0,1-11.833,5.475c-6.363,2.429-13.8,4.1-20.222,3.15-2.331-.344-6.346-1.359-6.456-3.768q1.684-.912,3.322-1.907a1.579,1.579,0,0,0,.542-.455,1.606,1.606,0,0,0,.167-.883c-.009-1.9-.017-2.76-.026-4.657v-.374a24.636,24.636,0,0,1-13.8-6.4c-5.2-4.582-7.286-11.586-7.85-19.267-.294-4.013-.525-8.339-.909-12.7a48.779,48.779,0,0,1-.632-5.214c4.46-3.9,9.055-8.287,13.34-12.5C185.676,65.676,185.357,67.174,185.081,68.645Z"/><path class="d" d="M89.417,52.386a3.161,3.161,0,0,1,2.834-.461,1.69,1.69,0,0,1,.57.226c.075.044.489.351.218.125a4.766,4.766,0,0,1,.459.462c-.325-.356-.055-.085.007.031a9.387,9.387,0,0,1,.536,6.249,11.092,11.092,0,0,1-3.052,5.6,5.853,5.853,0,0,1-5.448,1.551c-2.456-.79-3.508,3.07-1.063,3.857a9.7,9.7,0,0,0,7.564-1.19,12.716,12.716,0,0,0,4.921-6.1,15.621,15.621,0,0,0,1.324-7.177c-.15-2.254-.74-4.723-2.559-6.228a7.212,7.212,0,0,0-9.14.224,2.017,2.017,0,0,0,0,2.829,2.044,2.044,0,0,0,2.829,0Z"/><path class="d" d="M41.718,75.206c-.675-.493-.128-.079.1.105a7.242,7.242,0,0,0,1.143.8,8.906,8.906,0,0,0,3.82.963,10.643,10.643,0,0,0,7.065-2.182,2,2,0,0,0,0-2.828,2.06,2.06,0,0,0-2.828,0c.643-.5.215-.167.049-.058-.141.094-.286.181-.433.264-.18.1-.365.188-.549.279-.31.153.345-.12.105-.041-.118.039-.232.09-.349.132-.255.09-.515.168-.777.235a2.782,2.782,0,0,1-.8.165c.473.046.037,0-.107.008-.169.015-.338.025-.507.031a10.031,10.031,0,0,1-1.026-.014,1.614,1.614,0,0,1-.459-.041l.247.033c-.09-.013-.18-.028-.269-.045a6.473,6.473,0,0,1-.66-.16c-.106-.031-.21-.07-.315-.1a1.357,1.357,0,1,0,.148.069c-.138-.1-.331-.157-.479-.243-.132-.077-.256-.162-.382-.248-.347-.235.415.349.062.044-.251-.217-.5-.424-.773-.62A2.008,2.008,0,0,0,41,72.47a2.057,2.057,0,0,0,.718,2.736Z"/><path class="d" d="M61.529,53.024c.591,1.581.486,5.3-2.546,5.8-4.033.213-4.512-4.252-3.279-6.438C56.714,50.6,59.939,49.687,61.529,53.024Z"/><path class="d" d="M38.991,53.22c.474,1.641.285,5.435-2.376,5.8-3.528.027-3.829-4.552-2.695-6.723C34.849,50.516,37.69,49.74,38.991,53.22Z"/><path class="d" d="M78.289,77.979q.03,3.662.086,7.323c.036,2.108.12,4.13,1.4,5.913a6.714,6.714,0,0,0,2.188,2.168c.52.256,1.065.469,1.595.7L86.6,95.428a2.064,2.064,0,0,0,2.737-.718,2.014,2.014,0,0,0-.718-2.736l-2.765-1.219L84.2,90.023c-.124-.055-.257-.1-.376-.166.384.2-.011-.057-.15-.2s-.375-.382-.44-.464a4.717,4.717,0,0,1-.369-.561c-.07-.12-.135-.242-.2-.367.066.176.059.154-.022-.064-.055-.176-.111-.352-.153-.532-.027-.117-.049-.234-.069-.352q.045.36.009.008-.043-1.219-.063-2.44-.054-3.454-.079-6.91c-.021-2.573-4.021-2.579-4,0Z"/><path class="d" d="M43.518,60.233a34.064,34.064,0,0,0-1.488,3.145l.2-.478a4.091,4.091,0,0,0-.47,1.709,2.51,2.51,0,0,0,.922,1.964,3.468,3.468,0,0,0,1.518.8c.365.068.721.078,1.086.113A2,2,0,0,0,46.7,66.9a2,2,0,0,0,0-2.828l-.405-.313a1.987,1.987,0,0,0-1.009-.273c-.169-.016-.338-.013-.507-.034l.532.072a1.625,1.625,0,0,1-.349-.095l.478.2a1.852,1.852,0,0,1-.334-.194l.4.313a2.013,2.013,0,0,1-.22-.193l.313.405a.661.661,0,0,1-.081-.141l.2.478a.537.537,0,0,1-.026-.105l.071.531a1.086,1.086,0,0,1,0-.228l-.072.532a2.162,2.162,0,0,1,.14-.473l-.2.478q.153-.355.3-.713l-.2.478c.367-.866.795-1.711,1.235-2.542a2.106,2.106,0,0,0,.2-1.541,2.041,2.041,0,0,0-.919-1.2,2,2,0,0,0-2.737.717Z"/><path class="d" d="M77.952,82.639a42.272,42.272,0,0,0,6.892-6.86,38.821,38.821,0,0,0,4.006-5.821A2,2,0,1,0,85.4,67.939a32.357,32.357,0,0,1-1.839,2.932c-.613.9-1.1,1.527-1.666,2.235a42.158,42.158,0,0,1-6.767,6.705,2,2,0,0,0,0,2.828,2.059,2.059,0,0,0,2.828,0Z"/><path class="d" d="M67.647,84.424c-7.949,3.3-17.148,4.924-25.157.87a22.971,22.971,0,0,1-9.284-8.107,29.7,29.7,0,0,1-3.842-11.8c-.76-5.829-.815-11.76-1.365-17.614a2.054,2.054,0,0,0-2-2,2.015,2.015,0,0,0-2,2c.532,5.659.648,11.365,1.293,17.011A36.042,36.042,0,0,0,29.2,78.26C33.757,86.5,43.155,91.471,52.416,91.7A40.067,40.067,0,0,0,68.71,88.281a2.065,2.065,0,0,0,1.4-2.46,2.013,2.013,0,0,0-2.46-1.4Z"/><path class="d" d="M28,47.769C26.87,37.437,27.358,26.55,33.964,17.95A33.625,33.625,0,0,1,46.371,7.711,40.157,40.157,0,0,1,64.7,4.068a37.464,37.464,0,0,1,20.863,6.746A2.015,2.015,0,0,0,88.3,10.1a2.045,2.045,0,0,0-.717-2.737C76.238-.8,60.23-2.039,47.344,2.975A36.651,36.651,0,0,0,24.48,29.733,59.218,59.218,0,0,0,24,47.769a2.06,2.06,0,0,0,2,2,2.014,2.014,0,0,0,2-2Z"/><path class="d" d="M63.577,32.456a35.877,35.877,0,0,1,4.939,2.533,26.583,26.583,0,0,1,3.613,2.679,35.851,35.851,0,0,1,4.119,4.238,39.81,39.81,0,0,1,4.469,6.872c1.2,2.281,4.65.261,3.454-2.019-3.653-6.962-9.154-13.143-16.25-16.7-.762-.382-1.543-.718-2.325-1.057a2.065,2.065,0,0,0-2.736.718,2.015,2.015,0,0,0,.717,2.736Z"/><path class="d" d="M28.2,48.722a7.55,7.55,0,0,1,1-2.333A34.25,34.25,0,0,1,31.4,43,35.268,35.268,0,0,1,37.26,36.6a12.356,12.356,0,0,1,1.163-.858c.515-.335.985-.311.016-.538-1.108-.259-.472-.227-.539.278a4.885,4.885,0,0,0,.024.578c-.015,1.762.442,3.432,2.383,3.919,1.468.368,2.753-.611,3.921-1.357,1.237-.791,2.46-1.6,3.709-2.379a32.667,32.667,0,0,1,10.849-4.713c2.524-.493,1.455-4.349-1.064-3.857a33.689,33.689,0,0,0-10.54,4.349c-1.391.823-2.746,1.7-4.1,2.584-.553.359-1.106.718-1.668,1.063-.114.071-.717.341-.723.432.019-.269,1.039.367.992.355q.288.548.231-.064l.013-.332c.011-1.844-.6-4.061-2.632-4.562-1.57-.388-3.026.833-4.18,1.731a36.663,36.663,0,0,0-6.472,6.819c-1.694,2.22-3.66,4.827-4.3,7.607-.572,2.506,3.284,3.576,3.858,1.063Z"/><path class="d" d="M43.031,101.821a65,65,0,0,0,7.413-4.011,3.278,3.278,0,0,0,1.583-2.569c.057-.622.019-1.257.015-1.882q-.009-1.738-.02-3.479a2,2,0,0,0-4,0q.008,1.585.018,3.173c0,.568.013,1.138.009,1.706,0,.083-.079.479.007.214a1.144,1.144,0,0,1,.208-.481c.172-.2.158-.133-.049-.007l-.413.248q-3.307,1.977-6.79,3.634a2.01,2.01,0,0,0-.718,2.736,2.054,2.054,0,0,0,2.737.718Z"/><path class="a" d="M186.7,389.3c-.789-23.48-3.48-62.489-4.048-84.651-.364-14.216-.811-30.323-1.276-45.682,0,0-.661-28.487-1.052-45.373l1.13.033c1.95.057,36.935.172,54,.239h15.607c-.421,21.146-1.116,56.06-1.116,56.06-.994,49.326-3.139,113.738-3.364,122.6-2.14,2.06-9.81,3.02-15.05,3.3-5.621.291-11.335.384-17.1-1.659-4.7,1.4-18.194,2-25.752.144a2.46,2.46,0,0,1-1.89-2.215Q186.753,390.737,186.7,389.3Z"/><path class="a" d="M272.7,258.49c-2.069-5.873-5.521-11.038-7.409-16.9-.316-.983-.688-2.479-1.008-4.034a39,39,0,0,1-.727-4.778,64.746,64.746,0,0,1-13.195,3.527l.074,2.617c.722,5.444.389,8.611.574,13.811.113,3.167-.572,6.383,0,9.4.259,1.356.755,2.327,1.812,2.7a2.29,2.29,0,0,0,2.69-.75,12.381,12.381,0,0,0,2.652-4.8,29.27,29.27,0,0,0,6.3,10.137c1.119,1.25,3.075,2.879,4.583,3.167,2.625.5,4.386-.165,4.958-3.167S273.654,261.2,272.7,258.49Z"/><path class="a" d="M232.243,405.574a7.454,7.454,0,0,0-3.935-1.673c-.336,0-.659.015-.965.039l.107-4.9-.031-3.067c1.377-.019,2.749-.079,4.115-.149a57.616,57.616,0,0,0,11.567-1.65c-.017,2.044-.032,4.142-.032,4.142l.068,2.557a10.45,10.45,0,0,0,.248,2.383,3.52,3.52,0,0,0,1.255,1.992l1.053.759a40.42,40.42,0,0,0-6.858,3.831c-1.255.84-2.526.035-3.456-1.156A16.465,16.465,0,0,0,232.243,405.574Z"/><path class="e" d="M228.269,125.018a98.948,98.948,0,0,1-9.942,4.542c-6.363,2.429-13.8,4.1-20.222,3.15-1.91-.282-4.952-1.014-6.051-2.6,0,0-.367-.53-.955-1.382-3.739,1.817-8.082,3.882-10.765,5.6-7.443,4.775-10.9,10.152-14.915,19.311-2.945,6.837-6.576,16.081-7.4,21.816a20.606,20.606,0,0,0,.759,10.587,14.189,14.189,0,0,0,8.414,8.074,20.609,20.609,0,0,0,12.345.057c.239,5.444.319,11.212.409,19.268l0,.141,1.511.044c1.95.057,36.935.172,54,.239h6.979c.085,1.831.166,3.556.243,5.148.237,4.936.848,10.988,1.643,17.975a64.306,64.306,0,0,0,24.1-6.356c-1.5-21.916-6.339-71.837-6.234-70.97-1.085-9.247-2.364-16.207-9.5-22.4a43.565,43.565,0,0,0-7.878-5.054l-14.8-8.056C229.412,124.449,228.834,124.735,228.269,125.018Z"/><path class="d" d="M181.317,180.87c-.286,3.623-.6,7.813-.89,11.424-1.769-.147-3.679-.254-5.528-.276l.928-11.425s3.439-29.167,3.425-29.709c-.095-3.73.6-6.686,1.875-11.625a67.508,67.508,0,0,1,2.421-7.726,1.712,1.712,0,0,1,.991-.956l4.505-1.7a.507.507,0,0,1,.648.664c-1.278,3.328-2.239,8.712-3.065,11.3-.861,4.944-1.277,6.916-2.041,12.25Z"/><path class="f" d="M30.965,385.91c-.971-26.332-5.879-131.362-5.366-159.151,0,0,.106-4.111.214-8.328,11.782.036,66.074.366,76.662.429h1.267c-1.512,53.524-2.812,118.192-4.326,171.655a75.792,75.792,0,0,1-20.6,3.494,35.41,35.41,0,0,1-13.555-2.484c-.056-.562-.113-1.128-.167-1.7l-7.786,1.532c-6.551,2.108-16.979,1.427-24.032.6a2.477,2.477,0,0,1-2.188-2.392C31.061,388.613,31.019,387.385,30.965,385.91Z"/><path class="d" d="M90.032,15.1c9.863,10.51,11,27.562,4.557,40.163-1.169,2.287,2.281,4.314,3.454,2.019,7.281-14.241,5.959-33.138-5.182-45.01-1.766-1.881-4.59.951-2.829,2.828Z"/><path class="d" d="M205.036,59.755c1.439,5.437,2.955,10.832,6.263,15.453,3,4.193,6.9,8.99,11.987,10.642,2.454.8,3.5-3.063,1.064-3.857a14.08,14.08,0,0,1-5.193-3.636,39.908,39.908,0,0,1-4.758-5.669c-2.919-4.2-4.21-9.1-5.506-14-.658-2.486-4.518-1.431-3.857,1.064Z"/><path class="d" d="M205.431,57.484a40.977,40.977,0,0,1-14.831,12.2,35.724,35.724,0,0,1-4.432,1.721,5.253,5.253,0,0,0-1.145.345,1.48,1.48,0,0,1,1.53.677l.095.229q-.071-.317-.017.036l-.013-.194a7.559,7.559,0,0,1,.016-.782c.148-2.393.868-4.743,1.169-7.121.23-1.807-2.288-2.519-3.414-1.415-5.536,5.434-11.158,10.8-17.157,15.73-1.991,1.635.853,4.45,2.828,2.829,6-4.926,11.621-10.3,17.158-15.73L183.8,64.6c-.306,2.412-1.366,5.424-1.172,8.1.1,1.459.882,2.954,2.538,3.013,1.582.055,3.4-.86,4.838-1.437a43.677,43.677,0,0,0,18.252-13.958,2.065,2.065,0,0,0,0-2.828,2.012,2.012,0,0,0-2.828,0Z"/><path class="d" d="M193.645,125.234c-5.869,3.017-12.121,5.461-17.373,9.533-4.9,3.8-8.319,8.837-10.988,14.384a133.893,133.893,0,0,0-7.95,20.369c-1.931,6.623-2.93,14.573,1.355,20.525,5.232,7.266,14.783,8.389,22.8,5.6,2.416-.841,1.377-4.706-1.064-3.857-6.147,2.138-13.873,1.987-18.172-3.605-3.909-5.085-2.691-12.079-1.013-17.779a129.734,129.734,0,0,1,7.244-18.709c2.372-5.016,5.237-9.664,9.545-13.247,5.174-4.3,11.7-6.712,17.631-9.759,2.29-1.178.269-4.63-2.019-3.454Z"/><path class="d" d="M190.327,131.118c2.022,2.629,5.463,3.353,8.6,3.7a36.561,36.561,0,0,0,11.6-.83c7.451-1.6,14.117-5.018,20.915-8.31,2.316-1.122.29-4.572-2.019-3.454-5.952,2.883-11.747,5.869-18.2,7.5a36.946,36.946,0,0,1-10.19,1.246,20.054,20.054,0,0,1-4.24-.546c-.888-.221-2.413-.541-3.013-1.321a2.065,2.065,0,0,0-2.736-.717,2.013,2.013,0,0,0-.718,2.736Z"/><path class="d" d="M222.536,109.684q.029,3.494.082,6.988c.035,2.027.119,3.974,1.349,5.689a6.51,6.51,0,0,0,2.121,2.1c.5.244,1.017.448,1.523.671l2.9,1.28a2.064,2.064,0,0,0,2.737-.717,2.014,2.014,0,0,0-.718-2.736L229.9,121.8l-1.585-.7c-.118-.052-.243-.1-.358-.158.4.2.023-.025-.124-.173-.093-.091-.182-.185-.269-.281q-.238-.307-.138-.144a4.528,4.528,0,0,1-.352-.535c-.066-.114-.128-.231-.186-.35q.109.284-.011-.039c-.052-.169-.106-.336-.146-.508q-.039-.166-.066-.336c.032.254.035.265.012.032q-.04-1.164-.06-2.328-.052-3.3-.076-6.594c-.021-2.573-4.021-2.579-4,0Z"/><path class="d" d="M189.029,132.514a62.083,62.083,0,0,0,7.074-3.828,3.224,3.224,0,0,0,1.556-2.53c.053-.593.018-1.2.014-1.8q-.009-1.66-.019-3.321a2,2,0,0,0-4,0q.007,1.515.017,3.028c0,.543.013,1.086.009,1.629,0,.087-.08.466.008.191a1.19,1.19,0,0,1,.223-.511c.166-.187.195-.157-.028-.021l-.394.237q-3.156,1.885-6.479,3.467a2.01,2.01,0,0,0-.718,2.736,2.054,2.054,0,0,0,2.737.718Z"/><path class="d" d="M184.389,128.153c-2.794-.889-6.979-3.529-6.736-6.779a37.364,37.364,0,0,1,.991-4.393,37.759,37.759,0,0,0,.911-6.485c.089-2.575-3.911-2.571-4,0a35.413,35.413,0,0,1-1.038,6.642c-.437,1.913-1.079,3.783-.743,5.766.771,4.557,5.436,7.8,9.551,9.106,2.459.781,3.512-3.079,1.064-3.857Z"/><path class="d" d="M230.843,41.3a36.45,36.45,0,0,0-18.232-7.15A43.9,43.9,0,0,0,194.7,36.18a36.3,36.3,0,0,0-14.256,8.725A35.4,35.4,0,0,0,171.5,61.479a53.4,53.4,0,0,0-.324,21.429,2.019,2.019,0,0,0,2.461,1.4,2.047,2.047,0,0,0,1.4-2.461c-1.937-11.023-.69-24.124,7.028-32.827,7.135-8.044,17.944-11.438,28.49-11.01a32.773,32.773,0,0,1,18.27,6.744,2.014,2.014,0,0,0,2.736-.717,2.048,2.048,0,0,0-.717-2.737Z"/><path class="d" d="M233.373,85.409a2.874,2.874,0,0,1,2.6-.414c.147.041.292.088.435.143-.152-.057-.125-.036.084.063.1.06.461.335.187.1.16.136.29.293.437.441-.342-.345-.077-.122-.008.009a9,9,0,0,1,.5,5.87,10.333,10.333,0,0,1-2.878,5.282,5.478,5.478,0,0,1-2.077,1.252,4.564,4.564,0,0,1-3.012.2c-2.456-.79-3.507,3.07-1.063,3.857a9.324,9.324,0,0,0,7.271-1.142,12.187,12.187,0,0,0,4.721-5.846,14.942,14.942,0,0,0,1.268-6.865c-.144-2.17-.713-4.544-2.463-5.993a6.958,6.958,0,0,0-8.832.212,2.016,2.016,0,0,0,0,2.829,2.042,2.042,0,0,0,2.828,0Z"/><path class="d" d="M187.878,107.634c-.675-.493-.152-.1.074.085a7.076,7.076,0,0,0,1.106.777,8.584,8.584,0,0,0,3.683.929,10.231,10.231,0,0,0,6.791-2.1,2,2,0,0,0,0-2.828,2.062,2.062,0,0,0-2.829,0c.647-.5.233-.18.067-.07-.134.089-.272.172-.412.251-.171.095-.347.179-.523.265-.3.15.361-.128.124-.049-.112.038-.221.086-.332.126q-.365.129-.74.223a2.274,2.274,0,0,1-.765.158q.426-.053.08-.012l-.156.015c-.161.015-.322.025-.483.031-.325.011-.651.006-.975-.014-.1-.007-.363.019-.437-.039l.26.035c-.085-.013-.17-.027-.255-.043a6.192,6.192,0,0,1-.629-.152c-.1-.03-.2-.067-.3-.1-.318-.1.076.018.164.076-.137-.091-.312-.147-.456-.231-.125-.073-.243-.154-.363-.236-.146-.1-.289-.29.207.163-.041-.037-.087-.07-.128-.106-.245-.211-.493-.413-.755-.6a2.008,2.008,0,0,0-2.737.718,2.057,2.057,0,0,0,.718,2.736Z"/><path class="d" d="M206.774,86.448c.562,1.5.462,5.045-2.422,5.516-3.837.2-4.292-4.045-3.119-6.124C202.193,84.138,205.261,83.272,206.774,86.448Z"/><path class="d" d="M185.332,86.634c.451,1.561.271,5.17-2.26,5.514-3.357.026-3.643-4.329-2.564-6.395C181.392,84.061,184.1,83.323,185.332,86.634Z"/><path class="d" d="M189.555,93.256a33.03,33.03,0,0,0-1.425,3.015l.2-.477a3.977,3.977,0,0,0-.46,1.674,2.478,2.478,0,0,0,.9,1.938,3.408,3.408,0,0,0,1.487.782c.356.066.7.076,1.059.11a2,2,0,0,0,1.414-.586,2,2,0,0,0,0-2.828l-.405-.313a1.987,1.987,0,0,0-1.009-.273c-.161-.015-.322-.012-.482-.032l.532.071a1.6,1.6,0,0,1-.332-.089l.478.2a1.809,1.809,0,0,1-.319-.184l.405.313a1.924,1.924,0,0,1-.209-.184l.313.405a.618.618,0,0,1-.078-.134l.2.478a.5.5,0,0,1-.025-.1l.071.532a.993.993,0,0,1,0-.218l-.072.532a2.026,2.026,0,0,1,.134-.45l-.2.478c.1-.233.2-.467.3-.7l-.2.478c.348-.825.755-1.628,1.174-2.419a2.1,2.1,0,0,0,.2-1.541,2.044,2.044,0,0,0-.919-1.195,2,2,0,0,0-2.737.717Z"/><path class="d" d="M222.466,114.19a40.237,40.237,0,0,0,6.557-6.526,37.022,37.022,0,0,0,3.826-5.558,2,2,0,0,0-3.454-2.019,30.522,30.522,0,0,1-1.749,2.79c-.147.216-.295.432-.45.643q-.333.456-.677.9c.17-.222-.016.021-.091.116-.116.149-.234.3-.352.443a40.129,40.129,0,0,1-6.438,6.379,2,2,0,0,0,0,2.828,2.059,2.059,0,0,0,2.828,0Z"/><path class="d" d="M212.568,115.726c-7.586,3.142-16.332,4.68-23.96.785a21.69,21.69,0,0,1-8.76-7.731,28.3,28.3,0,0,1-3.608-11.334c-.67-5.468-.752-11.012-1.267-16.5a2.054,2.054,0,0,0-2-2,2.014,2.014,0,0,0-2,2c.5,5.354.621,10.752,1.22,16.1a34.483,34.483,0,0,0,3.741,12.964c4.339,7.837,13.271,12.585,22.085,12.826a38.156,38.156,0,0,0,15.613-3.25,2.067,2.067,0,0,0,1.4-2.461,2.013,2.013,0,0,0-2.461-1.4Z"/><path class="d" d="M233.526,48.87a30.21,30.21,0,0,1,8,13.075,34.161,34.161,0,0,1,1.652,8.755,44.672,44.672,0,0,1-.828,9.385c-.488,2.96-.888,5.951-1.082,8.946a55.838,55.838,0,0,0,.237,8.228,69.1,69.1,0,0,0,1.318,9.316,62.76,62.76,0,0,0,2.695,8.359,31.537,31.537,0,0,1,2.4,8.922,14.239,14.239,0,0,1-2.5,8.9c-1.427,2.151,2.036,4.156,3.454,2.019,3.5-5.279,3.652-11.337,1.8-17.245-.908-2.888-2.13-5.665-3.053-8.548a47.547,47.547,0,0,1-1.891-9.415,67.958,67.958,0,0,1-.524-9.027,67.455,67.455,0,0,1,.933-8.921,56.3,56.3,0,0,0,1.077-9.979,37.118,37.118,0,0,0-1.475-9.6,34.869,34.869,0,0,0-9.381-16c-1.874-1.763-4.708,1.06-2.829,2.828Z"/><path class="d" d="M181.457,215.628c4.783.131,9.577.066,14.361.087q13.191.057,26.381.1,6.628.024,13.258.05c2.574.01,2.578-3.99,0-4q-24.249-.1-48.5-.194c-1.833-.011-3.669,0-5.5-.045-2.575-.071-2.573,3.929,0,4Z"/><path class="d" d="M181.252,150.884a74.022,74.022,0,0,1,2.808-14.7c.387-1.278.884-2.516,1.284-3.787-.017.055-.448.149,0,0,.268-.087.53-.2.794-.3l2.164-.817c.289-.109.583-.211.869-.328.179-.074.6-.129.168-.1l-1.01-.273.241.139-.717-.718.133.246-.273-1.01a7.383,7.383,0,0,1-.43,1.145c-.142.445-.273.893-.4,1.343-.282,1-.535,2.016-.781,3.029-.441,1.818-.914,3.626-1.371,5.439-.487,1.932-.725,3.971-1.065,5.936-.371,2.138-.7,4.281-1.012,6.428a2.066,2.066,0,0,0,1.4,2.46,2.014,2.014,0,0,0,2.46-1.4c.577-4.008,1.144-8.076,2-12.035a92.442,92.442,0,0,1,2.887-10.926,2.79,2.79,0,0,0-.408-3.082,2.611,2.611,0,0,0-2.611-.585c-1.053.3-2.083.786-3.109,1.173-1.235.466-2.539.851-3.289,2.041a14.461,14.461,0,0,0-1.208,3.1c-.4,1.189-.758,2.391-1.093,3.6a79.07,79.07,0,0,0-2.435,13.98c-.238,2.562,3.763,2.546,4,0Z"/><path class="d" d="M44.754,99.98c1.847,2.4,5.219,3.405,8.088,3.97A31.614,31.614,0,0,0,65.32,103.6,68.212,68.212,0,0,0,77.4,99.893a48.056,48.056,0,0,0,9.666-5.545,2.058,2.058,0,0,0,.718-2.737,2.016,2.016,0,0,0-2.736-.717,46.529,46.529,0,0,1-8.506,5.052,66.6,66.6,0,0,1-10.5,3.392,29.98,29.98,0,0,1-11.452.875,20.674,20.674,0,0,1-3.633-.915,8.221,8.221,0,0,1-2.75-1.337,2.068,2.068,0,0,0-2.737-.718,2.014,2.014,0,0,0-.717,2.737Z"/><path class="d" d="M20.118,177.116a10.838,10.838,0,0,1-10.552.225,10.489,10.489,0,0,1-4.694-6.022c-1.247-3.85-.936-7.875-.472-11.83.39-3.321.764-6.621,1.395-9.908a181.255,181.255,0,0,1,5.021-19.749c.4-1.273.808-2.541,1.249-3.8.174-.5.353-.994.54-1.487.086-.229.176-.457.265-.684l.1-.237c.2-.506-.169.366.039-.092a27.929,27.929,0,0,1,6.117-8.361c3.613-3.5,7.94-6.121,12.2-8.754C35.7,103.706,40.2,101.2,44.78,98.84c2.289-1.179.268-4.632-2.019-3.454-4.33,2.229-8.589,4.59-12.742,7.134A86.278,86.278,0,0,0,17.9,110.855,33.709,33.709,0,0,0,9.8,120.98a47.965,47.965,0,0,0-2.462,6.6,178.2,178.2,0,0,0-5.428,21.1c-.7,3.662-1.1,7.353-1.536,11.053-.5,4.264-.69,8.665.692,12.8a14.558,14.558,0,0,0,6.712,8.392,14.967,14.967,0,0,0,14.361-.351c2.214-1.309.2-4.769-2.019-3.454Z"/><path class="a" d="M82.361,404.116a7.053,7.053,0,0,1,3.357,4.031,2.459,2.459,0,0,0,3.7,1.237,43.292,43.292,0,0,1,7.342-4.1l-1.127-.814a3.77,3.77,0,0,1-1.345-2.132,29.775,29.775,0,0,1-.252-4.167V392a88.712,88.712,0,0,1-15.8,2.011c-.3.014-.616.021-.942.018l-.041,1.366c-.03.993-.077,5.188-.115,7.6l1,.034A9.491,9.491,0,0,1,82.361,404.116Z"/><path class="a" d="M39.316,427.8c-3.3.975-10.333,2.281-14.063,1.667-7.048-1.16-9.033-4.286-9.766-9.42-.4-2.823,1.648-6.089,3.965-7.9,2.66-2.077,9.308-5.02,12.783-7.254,3.875-2.491,5.462-6.752,12.263-6.8,2.036.05,6.107.844,7.571,5.118a2.459,2.459,0,0,0,3.7,1.237,40.777,40.777,0,0,1,7.566-4.178c2.081,1.68,2.758,7.157,2.887,11.187a5.587,5.587,0,0,1-2.765,5.029,35.252,35.252,0,0,1-6.9,3.318c-6.794,2.073-10.663,5.916-16.85,7.877Q39.523,427.743,39.316,427.8Z"/><path class="d" d="M38.785,425.875a45.69,45.69,0,0,1-8.721,1.632,16.436,16.436,0,0,1-8.4-1.1,6.622,6.622,0,0,1-3.786-4.578,6.908,6.908,0,0,1-.275-3.685,8.754,8.754,0,0,1,2.576-4c2.093-1.942,5.026-3.141,7.529-4.451a39.043,39.043,0,0,0,7.583-4.637c1.766-1.519,3.305-3.436,5.526-4.321a8.257,8.257,0,0,1,6.669.054,5.408,5.408,0,0,1,2.652,2.947,4.614,4.614,0,0,0,4.188,3.125c1.952.046,3.573-1.456,5.156-2.405a22.731,22.731,0,0,1,4.381-2.264l-1.946-.514a6.037,6.037,0,0,1,1.5,3.147,27.955,27.955,0,0,1,.711,4.877c.1,1.41.293,2.877-.6,4.087-1.053,1.423-3.234,2.219-4.781,2.976-1.739.849-3.6,1.328-5.388,2.057a47.878,47.878,0,0,0-4.965,2.39c-3.137,1.722-6.167,3.6-9.613,4.655-2.455.75-1.408,4.612,1.063,3.857,5.372-1.643,9.79-5.159,14.97-7.2,5-1.973,12.689-3.742,13.36-10.172a26.414,26.414,0,0,0-.739-7.905c-.425-1.98-1.2-4.8-3.095-5.907-1.126-.659-2.47.118-3.5.613-1.216.58-2.388,1.256-3.541,1.952q-.823.5-1.634,1.02c-.28.18-.959.8-1.277.755-.694-.1-.88-1.468-1.169-1.981-2.239-3.978-6.923-5.246-11.178-4.6a12.878,12.878,0,0,0-6.078,2.775c-1.42,1.124-2.61,2.515-4.049,3.612-3.764,2.871-8.456,4.413-12.419,6.991a13.787,13.787,0,0,0-5.027,5.534,10.386,10.386,0,0,0-.544,7.292c2.809,11.4,17.292,9.726,25.925,7.221C42.315,429.016,41.266,425.155,38.785,425.875Z"/><path class="d" d="M92.036,398.171c.028,1.1.027,2.194.124,3.287a7.108,7.108,0,0,0,.385,1.978,6.221,6.221,0,0,0,.673,1.348,5.928,5.928,0,0,0,1.405,1.413,2.012,2.012,0,0,0,1.542.2,2.043,2.043,0,0,0,1.195-.919,2.018,2.018,0,0,0,.2-1.541,2.332,2.332,0,0,0-.919-1.2l-.079-.059.405.313a3.5,3.5,0,0,1-.55-.558l.313.4a4.288,4.288,0,0,1-.492-.857l.2.478a4.5,4.5,0,0,1-.3-1.07l.072.531a35.368,35.368,0,0,1-.176-3.755,2,2,0,0,0-4,0Z"/><path class="d" d="M75.258,395.393c-.057,1.92-.087,3.841-.145,5.761a2.018,2.018,0,0,0,2,2,2.04,2.04,0,0,0,2-2c.058-1.92.088-3.841.145-5.761a2.017,2.017,0,0,0-2-2,2.041,2.041,0,0,0-2,2Z"/><path class="d" d="M57.748,396.273a9.853,9.853,0,0,0,1.576,5.875,2.2,2.2,0,0,0,1.2.919,2.043,2.043,0,0,0,1.541-.2,2.017,2.017,0,0,0,.919-1.195,1.939,1.939,0,0,0-.2-1.541,5.808,5.808,0,0,1-.7-1.206l.2.478a7.584,7.584,0,0,1-.483-1.838l.072.532a15.628,15.628,0,0,1-.12-1.822,2.077,2.077,0,0,0-.586-1.414,2,2,0,0,0-3.414,1.414Z"/><path class="d" d="M40.232,394.681q.178.853.3,1.716l-.072-.531q.115.862.169,1.733a2.118,2.118,0,0,0,.585,1.414,2,2,0,0,0,2.829,0,2,2,0,0,0,.586-1.414,27.777,27.777,0,0,0-.536-3.981,2,2,0,0,0-3.656-.478,2.2,2.2,0,0,0-.2,1.541Z"/><path class="d" d="M23.6,226.759c-.18,9.913.129,19.841.4,29.749.386,14.223.894,28.444,1.432,42.663q.845,22.248,1.789,44.493.726,17.367,1.453,34.735c.137,3.382.276,6.765.386,10.148a6.269,6.269,0,0,0,.761,3.385c1.417,2.193,4.108,2.122,6.431,2.342a79.622,79.622,0,0,0,14.774.26,32.86,32.86,0,0,0,6.817-1.247c2.449-.765,1.4-4.628-1.063-3.857-4.466,1.395-9.286,1.437-13.921,1.28-2.389-.08-4.775-.253-7.153-.489-.566-.056-2.02.072-2.441-.352-.224-.226-.18-.537-.189-.833-.1-3.153-.228-6.305-.355-9.457q-.668-16.6-1.387-33.2-.906-21.648-1.752-43.3c-.547-14.244-1.065-28.489-1.474-42.737-.3-10.372-.609-20.757-.536-31.135q.009-1.227.031-2.454c.046-2.575-3.954-2.575-4,0Z"/><path class="d" d="M56.488,255.648q.474,26.213,1.495,52.411c.717,18.411,1.628,36.817,2.913,55.2.659,9.433,1.419,18.86,2.366,28.268a2.137,2.137,0,0,0,1.469,1.929,35.777,35.777,0,0,0,15.961,2.45,76.706,76.706,0,0,0,19.358-3.5c2.431-.808,1.389-4.672-1.064-3.857A72.4,72.4,0,0,1,80.692,391.9a33.044,33.044,0,0,1-14.9-2.307l1.468,1.928c-1.747-17.344-2.895-34.748-3.835-52.153q-1.491-27.618-2.261-55.27-.418-14.224-.678-28.454c-.046-2.571-4.046-2.579-4,0Z"/><path class="d" d="M101.746,218.728q-.937,33.188-1.7,66.38-.824,34.308-1.656,68.614-.459,18.249-.967,36.5c-.073,2.575,3.927,2.573,4,0q.938-33.187,1.7-66.381.823-34.306,1.656-68.613.459-18.25.967-36.5c.073-2.575-3.927-2.573-4,0Z"/><path class="d" d="M179.379,258.968c.579,19.126.875,38.27,1.691,57.387.721,16.86,1.752,33.7,2.626,50.556.435,8.39.854,16.783,1.094,25.182.074,2.568,4.074,2.579,4,0-.456-15.941-1.447-31.868-2.312-47.79-.89-16.373-1.634-32.735-2.07-49.125q-.482-18.106-1.029-36.21c-.078-2.568-4.078-2.579-4,0Z"/><path class="d" d="M245.006,238.943a66.854,66.854,0,0,0,24.422-6.582,1.948,1.948,0,0,0,.991-1.727c-.763-11.113-1.756-22.211-2.748-33.306q-1.4-15.651-2.887-31.293c-.2-2.112-.539-4.261-.6-6.382l-3.415,1.414h0l-.515-.882-.07-.521a2.065,2.065,0,0,0,2,2,2.012,2.012,0,0,0,2-2c-.706-5.976-1.527-12.119-4.658-17.386a26.393,26.393,0,0,0-6.285-7.132,68.389,68.389,0,0,0-10.01-6.068l-12.5-6.8c-2.261-1.232-4.283,2.221-2.019,3.454L242.075,133c3.912,2.13,7.887,4.154,11.013,7.4,5.058,5.253,6.273,12.285,7.1,19.262h4a2.4,2.4,0,0,0-.587-1.425c-1.122-1.349-3.462-.233-3.414,1.414.048,1.691.318,3.4.477,5.086q.607,6.42,1.206,12.842,1.655,17.784,3.184,35.579c.491,5.822.968,11.646,1.368,17.474l.991-1.727a61.633,61.633,0,0,1-22.4,6.036c-2.549.2-2.571,4.2,0,4Z"/><path class="d" d="M238.235,161.426q1.038,28.515,2.416,57.019c.295,6.156.961,12.286,1.655,18.407a2.061,2.061,0,0,0,2,2,2.013,2.013,0,0,0,2-2c-2.242-19.782-2.653-39.744-3.459-59.625q-.32-7.9-.612-15.8c-.094-2.566-4.094-2.579-4,0Z"/><path class="a" d="M198.641,400.9c1.9.046,4.886,1.875,7.072,4.78.908,1.207,2.2,2,3.456,1.156a38.03,38.03,0,0,1,7.067-3.9c1.944,1.569,2.577,6.685,2.7,10.449a5.221,5.221,0,0,1-2.583,4.7,33.012,33.012,0,0,1-6.443,3.1c-6.346,1.936-9.961,5.526-15.74,7.358a29.14,29.14,0,0,1-11.645,1.126c-6.584-1.083-9.7-4.315-10.389-9.111-.377-2.637,2.806-5.375,4.97-7.065,2.485-1.94,6.838-4.147,10.083-6.234,3.62-2.327,5.1-6.307,11.455-6.353"/><path class="d" d="M198.641,402.9a7.162,7.162,0,0,1,3.675,2.022c1.513,1.367,2.545,3.484,4.626,4.092,2.156.63,3.766-.84,5.485-1.884a22.2,22.2,0,0,1,4.34-2.269l-1.946-.514a5.63,5.63,0,0,1,1.4,3,26.892,26.892,0,0,1,.656,4.8c.082,1.378.156,2.756-.952,3.773a18.443,18.443,0,0,1-4.856,2.7c-1.755.779-3.628,1.257-5.391,2.035-1.556.687-3.05,1.5-4.532,2.331a36.073,36.073,0,0,1-8.854,4,24.019,24.019,0,0,1-9.437.715c-2.618-.423-5.475-1.349-7.181-3.511a7.553,7.553,0,0,1-1.325-2.75,3.191,3.191,0,0,1,.6-3.192c1.86-2.5,4.753-4.226,7.385-5.779,3.075-1.815,6.225-3.445,8.842-5.909,2.249-2.117,4.248-3.591,7.468-3.659,2.571-.055,2.58-4.055,0-4a13.006,13.006,0,0,0-6.378,1.636,23.988,23.988,0,0,0-4.117,3.382c-3.18,2.967-7.4,4.606-10.966,7.052-3.474,2.385-7.745,5.858-6.905,10.549a11.615,11.615,0,0,0,6.418,8.43c4.347,2.1,9.128,2.193,13.815,1.464,4.628-.721,8.615-2.7,12.656-4.976a38.46,38.46,0,0,1,6.426-3.056,39.81,39.81,0,0,0,7.566-3.457,7.378,7.378,0,0,0,3.716-5.561,24.3,24.3,0,0,0-.567-7.024c-.384-2.031-1.031-4.41-2.655-5.821-1.222-1.061-2.563-.333-3.808.259a38.514,38.514,0,0,0-3.434,1.9c-.632.384-1.961,1.619-2.563,1.37-.49-.2-.917-1.054-1.257-1.457a15.326,15.326,0,0,0-1.444-1.495,11.02,11.02,0,0,0-6.5-3.194c-2.571-.156-2.562,3.845,0,4Z"/><path class="d" d="M210.664,396.834a31.9,31.9,0,0,0,.2,3.631,13.672,13.672,0,0,0,.5,2.626,4.743,4.743,0,0,0,1.306,2.218,2.165,2.165,0,0,0,1.414.585,2,2,0,0,0,1.415-3.414,2.654,2.654,0,0,1-.222-.215c-.195-.2.318.459.179.227-.031-.051-.064-.1-.094-.151-.064-.11-.11-.227-.17-.339.35.648.09.213.018-.008a10.929,10.929,0,0,1-.4-1.9l.072.532a31.46,31.46,0,0,1-.218-3.8,2,2,0,0,0-4,0Z"/><path class="d" d="M195.029,397.837q.166.8.276,1.6l-.071-.532q.107.807.157,1.619a2.114,2.114,0,0,0,.586,1.414,2,2,0,0,0,2.828,0,1.989,1.989,0,0,0,.586-1.414,26.087,26.087,0,0,0-.5-3.754,2,2,0,0,0-3.656-.477l-.2.477a2,2,0,0,0,0,1.064Z"/><path class="a" d="M228.308,403.9c1.9.046,4.719,1.763,7.071,4.78.93,1.191,2.2,2,3.456,1.156a38.03,38.03,0,0,1,7.067-3.9c1.944,1.569,2.577,6.685,2.7,10.449a5.221,5.221,0,0,1-2.584,4.7,32.977,32.977,0,0,1-6.442,3.1c-6.346,1.936-9.961,5.526-15.74,7.358a29.145,29.145,0,0,1-11.646,1.126c-6.583-1.083-9.7-4.315-10.389-9.111-.376-2.637,2.806-5.375,4.971-7.065,2.485-1.94,6.837-4.147,10.083-6.234,3.62-2.327,5.1-6.307,11.455-6.353"/><path class="d" d="M247.948,269.927q-.611,30.221-1.507,60.432-.694,24.519-1.464,49.036c-.134,4.375-.281,8.751-.393,13.128l.586-1.415c-.331.3.1.013-.15.121-.169.073-.327.2-.492.288a6.883,6.883,0,0,1-.993.422,24.038,24.038,0,0,1-2.972.8,54.822,54.822,0,0,1-6.966.947c-5.8.462-11.74.615-17.371-1.031-2.476-.723-3.533,3.135-1.064,3.857,6.641,1.941,13.816,1.708,20.633.968a43.437,43.437,0,0,0,8.234-1.5c1.888-.587,4.448-1.468,4.563-3.753.262-5.234.313-10.488.474-15.726q1-32.454,1.891-64.913.553-20.831.991-41.664c.052-2.575-3.948-2.574-4,0Z"/><path class="d" d="M247.234,236.873c.429,5.292.761,10.593.879,15.9.127,5.716-.05,11.436-.165,17.151-.052,2.575,3.948,2.575,4,0,.115-5.715.292-11.435.165-17.151-.118-5.31-.45-10.611-.879-15.9-.207-2.548-4.209-2.571-4,0Z"/><path class="d" d="M205.016,254.537c.072,6.414.4,12.83.673,19.237q.7,16.59,1.519,33.176.906,18.721,1.9,37.44.862,16.232,1.837,32.459c.367,5.924.586,11.909,1.314,17.8.05.4.1.81.168,1.211a2.017,2.017,0,0,0,2.461,1.4,2.046,2.046,0,0,0,1.4-2.461c-.133-.767.037.429-.042-.282-.043-.388-.085-.777-.123-1.165-.106-1.095-.195-2.192-.281-3.288-.268-3.437-.492-6.878-.711-10.318-.66-10.384-1.235-20.774-1.8-31.164q-1-18.664-1.914-37.335-.834-17.031-1.582-34.065c-.307-7.116-.646-14.235-.8-21.356-.009-.429-.017-.859-.021-1.289-.03-2.572-4.03-2.579-4,0Z"/><path class="d" d="M241.069,398.315c.037,1.393,0,2.813.171,4.2a7.734,7.734,0,0,0,.721,2.574,5.336,5.336,0,0,0,1.67,1.887,2.009,2.009,0,0,0,1.541.2,2,2,0,0,0,1.4-2.46,2.344,2.344,0,0,0-.919-1.195c.472.356.178.134.074.031-.074-.075-.136-.175-.216-.242q.3.394.122.14l-.058-.093c-.067-.109-.12-.225-.181-.337-.095-.178.182.487.035.071-.037-.1-.069-.208-.1-.314a6.5,6.5,0,0,1-.159-.8l.071.532c-.175-1.383-.134-2.806-.171-4.2a2,2,0,0,0-4,0Z"/><path class="d" d="M225.45,399.039,225.341,404a2,2,0,0,0,4,0l.109-4.959a2.019,2.019,0,0,0-2-2,2.04,2.04,0,0,0-2,2Z"/><path class="d" d="M228.308,405.9a6.994,6.994,0,0,1,3.6,1.974c1.525,1.374,2.617,3.52,4.706,4.135,2.153.633,3.76-.836,5.478-1.879a22.172,22.172,0,0,1,4.34-2.269l-1.946-.514a5.637,5.637,0,0,1,1.4,3,26.983,26.983,0,0,1,.656,4.8c.082,1.378.156,2.756-.952,3.773a18.465,18.465,0,0,1-4.857,2.7c-1.755.779-3.627,1.257-5.39,2.035-1.556.687-3.051,1.5-4.532,2.331a36.09,36.09,0,0,1-8.854,4,24.022,24.022,0,0,1-9.437.715c-2.619-.423-5.476-1.349-7.181-3.511a7.553,7.553,0,0,1-1.325-2.75,3.191,3.191,0,0,1,.6-3.192c1.86-2.5,4.753-4.226,7.385-5.779,3.075-1.815,6.225-3.445,8.842-5.909,2.249-2.117,4.247-3.591,7.468-3.659,2.57-.055,2.579-4.055,0-4a13.006,13.006,0,0,0-6.378,1.636,24,24,0,0,0-4.118,3.382c-3.179,2.967-7.4,4.606-10.965,7.052-3.475,2.385-7.745,5.858-6.906,10.549a11.614,11.614,0,0,0,6.419,8.43c4.347,2.1,9.128,2.193,13.815,1.464,4.628-.721,8.615-2.7,12.656-4.976a38.412,38.412,0,0,1,6.425-3.056,39.818,39.818,0,0,0,7.567-3.457,7.38,7.38,0,0,0,3.716-5.561,24.3,24.3,0,0,0-.568-7.024c-.383-2.031-1.031-4.41-2.655-5.821-1.221-1.061-2.562-.333-3.807.259a38.514,38.514,0,0,0-3.434,1.9q-.829.5-1.644,1.034c-.43.279-.488.5-.91.329-.5-.206-.95-1.066-1.3-1.472a17.046,17.046,0,0,0-1.483-1.522,10.833,10.833,0,0,0-6.43-3.145c-2.572-.15-2.563,3.85,0,4Z"/><path class="d" d="M184.862,392.624c.458,3.281,3.8,3.829,6.5,4.214a66.707,66.707,0,0,0,8.531.625,56.692,56.692,0,0,0,14.726-1.273c2.491-.644,1.435-4.5-1.063-3.857a50.073,50.073,0,0,1-12.19,1.136c-2.425.012-4.855-.072-7.269-.3-1.094-.1-2.182-.244-3.263-.443-.925-.171-1.963-.094-2.112-1.163a2.013,2.013,0,0,0-2.46-1.4,2.053,2.053,0,0,0-1.4,2.46Z"/><path class="d" d="M177.534,194.163c.28,6.422.338,12.852.41,19.28.029,2.572,4.029,2.579,4,0-.072-6.428-.13-12.858-.41-19.28-.112-2.564-4.112-2.578-4,0Z"/><path class="a" d="M159.711,243.315c-.582,3.473.555,5.444,2.711,6.444,4.293,1.991,13.955,3.778,19.178.111,3.113-3.113,1.959-40.094,1.463-53.816a4,4,0,0,0-3.724-3.844c-2.138-.152-4.415-.236-6.5-.179a4.236,4.236,0,0,0-4.007,3.271C165.49,209.506,161.2,234.392,159.711,243.315Z"/><path class="d" d="M157.782,242.783c-.468,3.114-.049,6.2,2.677,8.147,2.029,1.445,4.9,2.078,7.313,2.516a27.641,27.641,0,0,0,9.189.258c2.146-.332,5.373-1.109,6.588-3.116,1.45-2.4,1.458-5.875,1.667-8.566.362-4.66.436-9.344.464-14.017.06-9.991-.2-19.985-.547-29.97-.095-2.743-.353-5.34-2.927-6.946-1.554-.968-3.429-.937-5.2-1.012a19.293,19.293,0,0,0-5.69.169,6.346,6.346,0,0,0-3.716,2.821,13.306,13.306,0,0,0-1.235,4.031c-.65,2.887-1.256,5.783-1.843,8.684-2.311,11.418-4.353,22.893-6.3,34.378q-.222,1.311-.442,2.623a2.059,2.059,0,0,0,1.4,2.46,2.015,2.015,0,0,0,2.46-1.4q2.458-14.676,5.23-29.3c1.029-5.375,2.094-10.746,3.289-16.087a11.445,11.445,0,0,1,.9-3.377c.7-1.143,1.949-1.073,3.144-1.073a27.027,27.027,0,0,1,5.137.2,2.084,2.084,0,0,1,1.731,2.03c.326,3.748.258,7.579.356,11.338.127,4.856.219,9.714.251,14.572.03,4.643.012,9.29-.147,13.931-.067,1.982-.161,3.964-.314,5.941-.065.831-.14,1.661-.234,2.489-.089.785-.078.77-.247,1.719a14.909,14.909,0,0,1-.391,1.723c-.055.18-.28,1.023-.078.29a.886.886,0,0,1-.113.226c-.265.386.148-.056.115-.1.073.107-.084-.092.07-.05-.136-.037-.907.525-1.07.6a10.312,10.312,0,0,1-1.914.645,16.729,16.729,0,0,1-4.143.432,26.779,26.779,0,0,1-8.382-1.424,5.622,5.622,0,0,1-2.549-1.3,4.14,4.14,0,0,1-.641-3.418,2.066,2.066,0,0,0-1.4-2.461A2.016,2.016,0,0,0,157.782,242.783Z"/><path class="d" d="M173.827,180.593l-.912,11.222a2.009,2.009,0,0,0,2,2,2.05,2.05,0,0,0,2-2l.912-11.222a2.008,2.008,0,0,0-2-2,2.05,2.05,0,0,0-2,2Z"/><path class="d" d="M179.317,180.87c-.3,3.778-.584,7.556-.882,11.334a2.008,2.008,0,0,0,2,2,2.051,2.051,0,0,0,2-2c.3-3.778.584-7.556.882-11.334a2.01,2.01,0,0,0-2-2,2.05,2.05,0,0,0-2,2Z"/><path class="d" d="M101.851,186.3q.171,13.229.341,26.458.02,1.6.04,3.2a10.438,10.438,0,0,0,.014,1.119c-.03-.244.33-.138.131-.217a1.393,1.393,0,0,0-.418,0l-4.373-.026-13.579-.081q-17.745-.106-35.492-.206-7.5-.042-14.99-.08-2.719-.013-5.439-.025c-.658,0-1.317-.018-1.975-.008-.36.006-.464.09-.568-.239a5.7,5.7,0,0,1,.033-1.579c.265-10.189.593-20.375.915-30.562l.024-.732c.081-2.575-3.919-2.572-4,0q-.462,14.477-.876,28.954c-.082,2.96-.691,6.885,2.948,7.986,1.546.468,3.568.18,5.17.187q6.991.032,13.984.072,18.372.1,36.743.211l15.16.09,5.171.031a13.924,13.924,0,0,0,2.247-.053,3.85,3.85,0,0,0,3.18-4.017c.116-9.889-.253-19.807-.381-29.7l-.01-.78c-.034-2.572-4.034-2.579-4,0Z"/><path class="d" d="M81.449,155.124c1.106,6.79,3.332,13.952,7.236,19.7a64.474,64.474,0,0,0,5.1,6.39,24.955,24.955,0,0,0,9.067,6.974,2.012,2.012,0,0,0,2.46-1.4,2.049,2.049,0,0,0-1.4-2.46c-3.061-1.24-5.531-3.9-7.649-6.341-1.019-1.176-1.983-2.4-2.94-3.622-.2-.255-.4-.512-.6-.765-.087-.109-.483-.632-.105-.124q-.352-.474-.676-.967c-3.582-5.475-5.594-12.046-6.637-18.451a2.015,2.015,0,0,0-2.46-1.4,2.047,2.047,0,0,0-1.4,2.46Z"/><path class="a" d="M172.39,177.956c-2.832-1.345-5.053-6.808-4.627-11.3.4-4.175,1.114-8.048,4.252-11.19,2.854-2.859,6.592-3.5,10.637-3.206.554.062,1.694.183,1.694.183,1.963.208,3.833.883,4.545,2.45a3.369,3.369,0,0,1-1.355,4.37c1.741.621,2.864,1.563,2.946,3.231s-.587,3-2.095,3.32c1.031.447,1.3,2.037,1.084,3.092s-.9,2.8-2.185,2.914c.9.7.643,2.12.258,3.459a5.411,5.411,0,0,1-3.22,2.953A15.89,15.89,0,0,1,172.39,177.956Z"/><path class="d" d="M173.4,176.229c-2.725-1.409-3.7-5.672-3.689-8.464.015-3.376.752-7.285,2.9-9.982,2.383-3,5.974-3.783,9.64-3.549a9.536,9.536,0,0,1,4.122.806,1.421,1.421,0,0,1,.156,2.5,2.028,2.028,0,0,0,.478,3.656c.632.239,1.315.548,1.469,1.253.136.623.006,1.271-.618,1.44a2.023,2.023,0,0,0-.478,3.656c.278.154.161.81.106,1.088a5.69,5.69,0,0,1-.351.94.7.7,0,0,1-.241.334q.362-.143-.138-.012a2.015,2.015,0,0,0-.883,3.343c.093.088.082-.431.023.245a4.75,4.75,0,0,1-.133.718,1.846,1.846,0,0,1-.457,1.008,6.488,6.488,0,0,1-3.8,1.766,13.333,13.333,0,0,1-8.1-.742,2.058,2.058,0,0,0-2.736.718,2.015,2.015,0,0,0,.717,2.736,17.751,17.751,0,0,0,13.476.478,7.734,7.734,0,0,0,4.344-3.67c.9-1.892,1.123-4.534-.5-6.085l-.883,3.342c4-.766,5.136-7.685,1.58-9.661l-.478,3.655a4.969,4.969,0,0,0,3.548-5.41c-.2-2.639-2.077-4.119-4.4-5l.478,3.655a5.465,5.465,0,0,0-.156-9.4,11.955,11.955,0,0,0-4.838-1.228,21.783,21.783,0,0,0-5.915.122,13.36,13.36,0,0,0-9.557,6.957,21.945,21.945,0,0,0-2.324,11.459c.313,3.882,1.906,8.864,5.624,10.787C173.663,180.864,175.689,177.413,173.4,176.229Z"/><path class="d" d="M188.068,157.335a39.68,39.68,0,0,0-4.992-.342,20.17,20.17,0,0,0-4.969.33,2.019,2.019,0,0,0-1.4,2.46,2.043,2.043,0,0,0,2.461,1.4c.13-.031.262-.055.394-.08.434-.08-.531.053-.057.008.346-.033.692-.062,1.04-.08.842-.043,1.685-.047,2.528-.035s1.656.042,2.482.091c.352.022.7.046,1.055.077.15.013.3.028.449.044l.217.024c.3.032-.573-.079-.274-.037a2.2,2.2,0,0,0,1.541-.2,2,2,0,0,0-.478-3.655Z"/><path class="d" d="M188.369,163.979a32.778,32.778,0,0,0-9.391-.551,2,2,0,0,0,0,4,32.031,32.031,0,0,1,4.468-.04q1.113.058,2.222.181c.175.02.349.047.523.064-.178-.018-.4-.057-.091-.01l.244.037c.322.051.643.109.962.176a2,2,0,1,0,1.063-3.857Z"/><path class="d" d="M187.817,169.891a17.013,17.013,0,0,0-4.1-.6,27.785,27.785,0,0,0-4.422.1,2.164,2.164,0,0,0-1.414.586,2,2,0,0,0,1.414,3.414,27.861,27.861,0,0,1,4.294-.1c.334.017.667.039,1,.069.159.014.318.029.477.047.1.01.192.022.288.033.281.033-.137-.014-.2-.026a14.487,14.487,0,0,1,1.6.34,2.017,2.017,0,0,0,2.46-1.4,2.043,2.043,0,0,0-1.4-2.46Z"/><path class="d" d="M104.713,148.382c2.949,3.42,5.873,6.862,8.723,10.365a2.007,2.007,0,0,0,2.829,0,2.058,2.058,0,0,0,0-2.829c-2.85-3.5-5.774-6.945-8.724-10.365a2.011,2.011,0,0,0-2.828,0,2.052,2.052,0,0,0,0,2.829Z"/><path class="d" d="M86.441,94.88a173.6,173.6,0,0,1,15.318,8.539c4.264,2.676,8.9,5.44,12.386,9.123a25.521,25.521,0,0,1,6.125,13.011c.874,4.559,1.818,9.11,2.414,13.716.631,4.882.881,9.8,1.266,14.7a133.17,133.17,0,0,1,.547,14.4,42.7,42.7,0,0,1-.826,7.8,17.457,17.457,0,0,1-2.7,6.847c-2.445,3.194-7,3.779-10.733,3.289a14.378,14.378,0,0,1-6.812-2.668,28.269,28.269,0,0,1-5.622-6.262c-3.207-4.428-5.812-9.236-8.588-13.937-1.309-2.215-4.768-.205-3.454,2.019,2.64,4.471,5.114,9.056,8.126,13.294,3.226,4.539,6.8,9.007,12.315,10.746a19.025,19.025,0,0,0,13.858-.708c4.767-2.361,6.775-7.658,7.675-12.6a68.556,68.556,0,0,0,.642-16.13c-.29-5.07-.659-10.158-1.1-15.217a154.033,154.033,0,0,0-2.231-15.58c-.5-2.633-.874-5.349-1.608-7.929A29.652,29.652,0,0,0,120.1,113.8c-3.265-5.221-8.381-8.645-13.433-11.977a169.213,169.213,0,0,0-18.21-10.4c-2.3-1.137-4.329,2.311-2.019,3.454Z"/><path class="a" d="M15.213,169.416c-2.937-1.4-5.242-7.064-4.8-11.723.411-4.333,1.156-8.35,4.411-11.61,2.962-2.967,6.84-3.63,11.037-3.326.575.064,1.757.189,1.757.189,2.036.216,3.977.916,4.715,2.542a3.5,3.5,0,0,1-1.4,4.534c1.806.644,2.971,1.622,3.056,3.352s-.609,3.111-2.173,3.444c1.07.464,1.352,2.114,1.124,3.209s-.93,2.9-2.267,3.023c.938.73.667,2.2.267,3.588A5.605,5.605,0,0,1,27.6,169.7,16.485,16.485,0,0,1,15.213,169.416Z"/><path class="d" d="M16.223,167.689c-2.764-1.424-3.8-5.7-3.861-8.536-.071-3.566.728-7.782,2.962-10.639,2.494-3.187,6.263-4.032,10.132-3.784a11.976,11.976,0,0,1,4,.685c1.2.535,1.762,2.087.465,2.88a2.028,2.028,0,0,0,.478,3.656c.674.254,1.4.588,1.578,1.341.159.679-.009,1.412-.7,1.6a2.022,2.022,0,0,0-.478,3.655c.36.2.193,1,.114,1.326a3.051,3.051,0,0,1-.349.89,1.534,1.534,0,0,1-.217.311c-.2.216.363-.057-.213.049a2.014,2.014,0,0,0-.882,3.343c.113.109-.019.808-.142,1.262a1.809,1.809,0,0,1-.447.889c-.985,1.2-2.687,1.588-4.13,1.881a13.887,13.887,0,0,1-8.312-.807,2.06,2.06,0,0,0-2.737.717,2.017,2.017,0,0,0,.718,2.737,18.331,18.331,0,0,0,13.692.57,8.036,8.036,0,0,0,4.693-3.855c.9-1.938,1.154-4.635-.507-6.223l-.883,3.343c4.1-.757,5.235-7.879,1.621-9.887l-.478,3.656a5.11,5.11,0,0,0,3.614-5.688c-.257-2.627-2.181-4.093-4.5-4.965l.477,3.655a5.6,5.6,0,0,0-.465-9.788,14.452,14.452,0,0,0-5.094-1.148,20.757,20.757,0,0,0-5.93.208,13.8,13.8,0,0,0-9.679,7.212,19.442,19.442,0,0,0-1.895,5.839,23.852,23.852,0,0,0-.446,6.2c.378,3.926,2.008,8.933,5.776,10.874C16.489,172.32,18.514,168.869,16.223,167.689Z"/><path class="d" d="M31.46,148.094a41.02,41.02,0,0,0-5.16-.352,20.833,20.833,0,0,0-5.135.34,2.019,2.019,0,0,0-1.4,2.46,2.044,2.044,0,0,0,2.461,1.4c.135-.033.272-.058.409-.083.44-.082-.521.051-.039,0,.359-.034.718-.065,1.078-.083.874-.044,1.749-.049,2.623-.036.859.013,1.718.043,2.576.095.365.022.73.047,1.094.079.155.014.311.029.465.045l.226.026c.3.032-.568-.079-.265-.036a2.2,2.2,0,0,0,1.541-.2,2,2,0,0,0-.477-3.655Z"/><path class="d" d="M31.772,154.987a33.94,33.94,0,0,0-9.724-.569,2,2,0,0,0,0,4,33.209,33.209,0,0,1,4.636-.042c.77.041,1.54.1,2.306.189.181.02.361.049.542.066-.192-.018-.379-.053-.074-.008l.253.038q.5.079,1,.183a2,2,0,1,0,1.063-3.857Z"/><path class="d" d="M31.2,161.121a17.563,17.563,0,0,0-4.232-.619,28.915,28.915,0,0,0-4.587.1,2.172,2.172,0,0,0-1.415.586A2,2,0,0,0,22.38,164.6a28.939,28.939,0,0,1,4.455-.107q.519.025,1.036.071c.165.015.33.031.5.049l.3.035c.281.032-.116-.012-.185-.025a15.578,15.578,0,0,1,1.656.353,2.017,2.017,0,0,0,2.46-1.4,2.042,2.042,0,0,0-1.4-2.46Z"/><path class="d" d="M22.739,143.5c1.563-9.307,3.509-18.55,5.28-27.82l-1.928,1.469c8.038.888,16.2,1.846,24.118,3.508l-1.468-1.928c-1.387,12.952-3.137,25.87-4.861,38.781q-.528,3.954-1.068,7.907l2.46-1.4c-4.043-.565-8.074-1.237-12.09-1.97-2.516-.459-3.6,3.4-1.063,3.857,4.016.733,8.047,1.405,12.09,1.97.955.134,2.3-.221,2.46-1.4q2.588-18.909,4.926-37.854c.4-3.3.792-6.595,1.146-9.9a2,2,0,0,0-1.469-1.929c-4.3-.9-8.69-1.471-13.043-2.078-4.04-.564-8.084-1.125-12.138-1.573a2,2,0,0,0-1.929,1.468c-1.771,9.269-3.717,18.512-5.28,27.82a2.059,2.059,0,0,0,1.4,2.46,2.015,2.015,0,0,0,2.46-1.4Z"/><path class="d" d="M107.013,210.235c4.937-.32,10.1-.106,14.938-1.242a16.334,16.334,0,0,0,12.263-10.849,37.959,37.959,0,0,0,1.423-7.51c.362-2.964.613-5.942.8-8.922.447-6.964.571-13.948.575-20.926.008-13.761-.511-27.515-1.014-41.265-.23-6.27-.2-13.11-4.068-18.423-3.262-4.486-8.961-6.4-14.069-7.933a120.307,120.307,0,0,0-17.315-3.7c-4.816-.7-9.659-.93-14.517-1.147l-1.489-.064c-2.574-.105-2.569,3.895,0,4,4,.164,8.032.282,12.018.695a118.587,118.587,0,0,1,14.808,2.623c5.08,1.2,10.647,2.551,15.019,5.542,4.505,3.082,5.3,9.735,5.489,14.982.452,12.829.977,25.655,1.107,38.492.128,12.639.263,25.563-1.626,38.1-.676,4.488-2.209,8.673-6.412,10.967a16.269,16.269,0,0,1-4.251,1.523c-.46.1-.923.19-1.388.272-.012,0-.7.1-.284.048.3-.041.035,0-.022,0-.51.056-1.02.1-1.531.138-2.585.2-5.175.317-7.763.45-.9.046-1.8.089-2.695.147-2.556.166-2.574,4.167,0,4Z"/><path class="d" d="M127.566,111.1a8.631,8.631,0,0,1,1.693.053l-.531-.071a8.687,8.687,0,0,1,2.123.579l-.478-.2a8.908,8.908,0,0,1,1.058.538,2,2,0,0,0,2.019-3.454,10.3,10.3,0,0,0-5.884-1.443,2.118,2.118,0,0,0-1.414.585,2,2,0,0,0,0,2.829,1.985,1.985,0,0,0,1.414.586Z"/><path class="a" d="M74.149,432.352c-.26.092-.523.18-.791.265-3.1.983-8.582,1.846-12.468,1.206-7.047-1.16-10.388-4.62-11.122-9.754-.4-2.823,3-5.755,5.322-7.564,2.66-2.077,7.32-4.44,10.794-6.674,3.876-2.491,5.462-6.752,12.264-6.8,2.035.05,6.107.844,7.57,5.118a2.459,2.459,0,0,0,3.7,1.237,40.777,40.777,0,0,1,7.566-4.178c2.081,1.68,2.759,7.157,2.888,11.187a5.588,5.588,0,0,1-2.766,5.029,35.273,35.273,0,0,1-6.9,3.318C83.709,426.723,79.886,430.326,74.149,432.352Z"/><path class="d" d="M73.617,430.424c-5.446,1.874-12.441,2.692-17.658-.281a8.1,8.1,0,0,1-3.872-4.794,3.546,3.546,0,0,1,.094-3.084,13.808,13.808,0,0,1,3.237-3.472c4.637-3.874,10.5-5.89,14.914-10.069,1.707-1.615,3.37-3.008,5.73-3.5a7.241,7.241,0,0,1,5.912,1.007c1.3.933,1.488,2.224,2.293,3.491a4.491,4.491,0,0,0,4.538,2c1.7-.294,3.209-1.663,4.666-2.525a21.526,21.526,0,0,1,4.045-2.063l-1.946-.514c1.835,1.6,2.01,5.337,2.188,7.661.105,1.384.355,2.9-.389,4.154-.873,1.467-2.9,2.219-4.354,2.962a54.747,54.747,0,0,1-5.412,2.131,43.675,43.675,0,0,0-4.872,2.254c-3.008,1.61-5.89,3.475-9.114,4.642-2.4.869-1.365,4.736,1.064,3.857,4.99-1.806,9.238-5.1,14.186-6.972a57.524,57.524,0,0,0,8.223-3.573c2.5-1.41,4.362-3.3,4.715-6.268a25.665,25.665,0,0,0-.577-7.377c-.383-2.079-1-4.409-2.5-5.985-1.824-1.92-4.613.11-6.442,1.15q-1.593.908-3.132,1.908c-.44.285-1.027.957-1.511.451-.37-.387-.511-1.3-.78-1.777a9.2,9.2,0,0,0-.948-1.347,8.876,8.876,0,0,0-2.52-2.086,11.4,11.4,0,0,0-5.077-1.37,13.154,13.154,0,0,0-6.693,1.59,22.531,22.531,0,0,0-4.418,3.547c-3.5,3.3-8.114,5.1-12.045,7.814a24.549,24.549,0,0,0-5.678,5.151,7.461,7.461,0,0,0-1.4,6.734c2.79,11.378,17.681,11.478,26.6,8.41C77.1,433.448,76.061,429.583,73.617,430.424Z"/><path class="d" d="M248.433,238.926a84.591,84.591,0,0,1,.508,10.326c.013,1.956.128,3.912.033,5.866a40.668,40.668,0,0,0-.122,5.881c.155,1.6.437,3.41,1.61,4.623a4.545,4.545,0,0,0,4.322,1.237c1.571-.391,2.348-1.585,3.181-2.694a13.214,13.214,0,0,0,2.091-4.207c.736-2.473-3.124-3.529-3.857-1.064a9.749,9.749,0,0,1-1.523,3.03c-.257.351-.644,1.235-1.119,1.075-.689-.232-.706-1.9-.742-2.461a38.111,38.111,0,0,1,.12-4.706c.165-2.846.013-5.707,0-8.557a68.119,68.119,0,0,0-.5-8.349,2.066,2.066,0,0,0-2-2,2.011,2.011,0,0,0-2,2Z"/><path class="d" d="M261.551,232.783a40.459,40.459,0,0,0,2.406,11.038c1.673,4.44,4.082,8.541,5.926,12.9a26.349,26.349,0,0,1,2.281,11.148c-.043,1.1-.184,2.688-1.327,2.861-1.528.233-2.9-.754-3.985-1.743a26.8,26.8,0,0,1-7.1-11.219c-.81-2.43-4.674-1.388-3.857,1.063a33.164,33.164,0,0,0,7.154,12c2.606,2.845,7.522,5.739,11.06,2.625,3.2-2.817,2.11-8.75,1.36-12.369-1.021-4.93-3.537-9.387-5.7-13.885a40.67,40.67,0,0,1-4.217-14.425c-.195-2.551-4.2-2.572-4,0Z"/><path class="a" d="M88.335,97.39c-3.612,9.638-4.994,21.146-5.319,29.619l-.062,1.624A5.36,5.36,0,0,1,84,128.571a34.539,34.539,0,0,1,5.77.83c4.579,1.08,6,2.314,7.325,4.431l.063-.85c.445-6,1.056-19.223,5.333-31a1.188,1.188,0,0,0-.6-1.545L91.112,93.713a1.139,1.139,0,0,0-1.486.533Q88.938,95.778,88.335,97.39Z"/><path class="d" d="M85.016,127.009a110.342,110.342,0,0,1,2.213-18.438A75.716,75.716,0,0,1,89.9,98.916q.41-1.153.866-2.29a7.2,7.2,0,0,0,.424-1.005l.081-.183q.436-.772-1.164.006c.122.219.729.454.934.582l8.635,5.388c.236.147.834.693,1.119.7.014,0,.063.054.079.049-1.318.426.313-1.677-.466-.29a13.405,13.405,0,0,0-.844,2.548,83.723,83.723,0,0,0-2.419,10.225,183.383,183.383,0,0,0-1.991,18.338c-.188,2.568,3.812,2.556,4,0A171.4,171.4,0,0,1,101.04,115.5a81.447,81.447,0,0,1,2.721-11.082c.579-1.771,1.452-3.712-.189-5.234a8.467,8.467,0,0,0-1.27-.845l-9.3-5.8c-1.79-1.118-4.038-1.336-5.182.884a50.187,50.187,0,0,0-3.585,10.407,110.809,110.809,0,0,0-3.217,23.183c-.1,2.574,3.9,2.57,4,0Z"/><path class="a" d="M84,128.571a5.2,5.2,0,0,0-4.971,2.969,6.317,6.317,0,0,0,.329,4.645c-1.827.176-3.6,1.677-3.821,3.04a6.923,6.923,0,0,0,.637,4.578c-1.136.857-1.229,2.791-1.2,3.684a6.416,6.416,0,0,0,1.674,3.4c-.221,3.142,1.259,5.664,2.447,6.128a10.453,10.453,0,0,0,4.459.469c.179-.019.359-.028.528-.036a2.2,2.2,0,0,1,2.479,1.34,21.577,21.577,0,0,0,5.6,5.674c2.751-1.409,5.977-3.089,8.17-5.239a17.514,17.514,0,0,0,4.3-8.8A78.1,78.1,0,0,0,98.933,137c-2.537-4.227-2.676-6.068-9.166-7.6A34.539,34.539,0,0,0,84,128.571Z"/><path class="d" d="M84,126.571a7.479,7.479,0,0,0-6.417,3.385,7.7,7.7,0,0,0,.048,7.238l1.195-2.938a6.485,6.485,0,0,0-5.051,3.888,8.385,8.385,0,0,0,.672,6.668l.313-2.424c-2.733,2.394-2.2,7.655.471,9.916l-.586-1.414a9.971,9.971,0,0,0,1.593,6.155c1.355,1.925,3.452,2.426,5.722,2.479.575.013,1.151-.008,1.725-.048.191-.013.675-.154.83-.086.2.087.3.388.417.563.335.518.717,1.01,1.1,1.493a23.388,23.388,0,0,0,5.114,4.746,2.008,2.008,0,0,0,2.019,0c3.789-1.943,7.727-4.008,10.242-7.565a19.563,19.563,0,0,0,2.615-5.555,7.968,7.968,0,0,0,.568-2.911,14.047,14.047,0,0,0-.987-3.168,77.853,77.853,0,0,0-4.81-10.762c-1.286-2.345-2.551-4.881-4.769-6.479C92.757,127.4,87.9,126.759,84,126.571c-2.573-.123-2.566,3.877,0,4a24.789,24.789,0,0,1,8.386,1.709,6.684,6.684,0,0,1,3.445,3.335,69.3,69.3,0,0,1,6.866,15.343V149.9a15.441,15.441,0,0,1-3.653,7.781c-2.19,2.233-5.147,3.652-7.9,5.062h2.019a18.981,18.981,0,0,1-3.1-2.72c-.932-.994-1.568-2.173-2.451-3.188a4.116,4.116,0,0,0-3.372-1.4c-1.326.05-2.938.375-4.2-.191a2.72,2.72,0,0,1-1.1-1.64c-.461-1.417.005-2.983-.952-4.176-.834-1.04-1.711-3.068-.411-4.207a2.018,2.018,0,0,0,.313-2.424,4.336,4.336,0,0,1-.372-3.311,2.933,2.933,0,0,1,2.361-1.369c1.328-.191,1.755-1.932,1.195-2.938-1.315-2.362.368-4.607,2.915-4.6C86.571,130.575,86.575,126.575,84,126.571Z"/><path class="d" d="M79.923,138.189c2.022.022,4.045,0,6.065.07a2.014,2.014,0,0,0,2-2,2.041,2.041,0,0,0-2-2c-2.02-.073-4.043-.048-6.065-.07a2,2,0,0,0,0,4Z"/><path class="d" d="M76.845,145.777c2.6-.012,5.207-.125,7.81-.073a2,2,0,0,0,0-4c-2.6-.052-5.207.061-7.81.073a2,2,0,0,0,0,4Z"/><path class="d" d="M77.488,152.892c2.331.051,4.668.2,7,.145a2,2,0,0,0,0-4c-2.332.052-4.669-.094-7-.145a2,2,0,0,0,0,4Z"/></svg>