<svg xmlns="http://www.w3.org/2000/svg" height="24" viewBox="0 -960 960 960" width="24"><path d="M200-170.001q-80.769 0-135.384-54.615Q10-279.231 10-360q0-80 55.615-135.384Q121.23-550.769 200-550.769q72.769 0 124.692 46.193 51.923 46.192 62.846 114.577h48.309l-78.923-220.002h-66.923v-59.998h179.998v59.998h-48.615l20.923 59.232h214.309l-62.615-172.308q-1.154-3.462-3.847-5.193-2.692-1.731-6.154-1.731h-93.999v-59.998H584q22.538 0 40.73 12.269 18.192 12.269 26.039 33.576l70.307 192.155H760q78.769 0 134.384 55.615Q949.999-440.769 949.999-362q0 79.384-55.307 135.307Q839.384-170.77 760-170.77q-70.461 0-122.846-45.192-52.384-45.193-64.692-114.039H387.538q-10.923 69-63.961 114.5-53.039 45.5-123.577 45.5Zm0-59.998q45.616 0 79.539-27.116 33.924-27.116 45.539-72.886H210.001v-59.998h115.077q-11.615-46.386-45.539-73.194-33.923-26.808-79.539-26.808-55.231 0-92.616 37.385T69.999-360q0 53.846 37.385 91.924 37.385 38.077 92.616 38.077Zm301.076-160h71.386q4.231-25.308 16.962-53.963 12.731-28.654 35.962-46.808H463.384l37.692 100.771Zm258.924 160q55.231 0 92.616-38.077 37.385-38.078 37.385-91.924 0-55.231-37.385-92.616T760-490.001q-5.462 0-9.308.193-3.847.192-8.539 1.346l40.769 108.308-56.768 21.076-38.769-108.308q-27.308 18.154-42.347 46.539-15.039 28.385-15.039 60.847 0 53.846 37.385 91.924 37.385 38.077 92.616 38.077ZM197.539-360ZM760-360Z"/></svg>