<svg xmlns="http://www.w3.org/2000/svg" height="24" viewBox="0 -960 960 960" width="24"><path d="M479.385-418ZM173.386-220.771l-66.769-239.536q-2.615-10.846 2.116-24.538 4.73-13.692 19.268-18.539l52-18v-178.615q0-30.307 21-51.307 21-21 51.308-21h127.692v-120h199.998v120h127.692q30.308 0 51.308 21t21 51.307v178.615l52 18q17.153 6.462 21.538 19.654 4.384 13.192 1.384 23.423l-68.307 239.536q-43.076-5.769-78.114-28.692-35.038-22.923-68.5-60.539-32.308 37.231-71.577 63.616-39.269 26.385-88.423 26.385t-88.423-26.385Q352.308-272.771 320-310.002q-33.077 37.616-68.307 60.539-35.231 22.923-78.307 28.692ZM90.001-60.001V-120H160q42 0 83-13t77-39q36 26 77 38t83 12q42 0 83-12t77-38q36 26 77 39t83 13h69.999v59.998H800q-42 0-82-10T640-100q-38 20-78.5 30t-81.5 10q-41 0-81.5-10t-78.5-30q-38 20-78 30t-82 10H90ZM240-541.23l240-78 240 78v-158.77q0-5.385-3.462-8.846-3.462-3.462-8.847-3.462H252.309q-5.385 0-8.847 3.462-3.462 3.461-3.462 8.846v158.77ZM480-280q47 0 79.115-32.808Q591.231-345.615 640-402q47.615 54 64.808 73.615Q722-308.769 746-294.769L790-454 480-556 168.769-454 214-296q24-14 41.192-32 17.193-18 64.808-74 50 57 81.5 89.5T480-280Z"/></svg>