<svg xmlns="http://www.w3.org/2000/svg" height="24" viewBox="0 -960 960 960" width="24"><path d="M260.771-140.001q-12.75 0-21.375-8.625t-8.625-21.375v-78.923q-18.769-14.23-34.769-40.269-16.001-26.038-16.001-58.5V-720q0-72.624 72.185-106.311 72.184-33.688 227.801-33.688 161.243 0 230.627 32.375Q779.999-795.249 779.999-720v372.307q0 32.462-16.001 58.5-16 26.039-34.769 40.269v78.923q0 12.75-8.625 21.375t-21.375 8.625h-24.614q-12.75 0-21.375-8.625-8.624-8.625-8.624-21.375v-50H315.384v50q0 12.75-8.625 21.375-8.624 8.625-21.374 8.625h-24.614Zm220.46-609.229h230.154-460.309 230.155ZM640-480H240h480-80Zm-400-59.999h480v-149.232H240v149.232Zm100.091 212.306q21.832 0 37.024-15.283 15.192-15.282 15.192-37.115 0-21.832-15.283-37.024-15.282-15.192-37.115-15.192-21.832 0-37.024 15.283-15.192 15.282-15.192 37.115 0 21.832 15.283 37.024 15.282 15.192 37.115 15.192Zm280 0q21.832 0 37.024-15.283 15.192-15.282 15.192-37.115 0-21.832-15.283-37.024-15.282-15.192-37.115-15.192-21.832 0-37.024 15.283-15.192 15.282-15.192 37.115 0 21.832 15.283 37.024 15.282 15.192 37.115 15.192ZM251.076-749.23h460.309q-12.692-23.924-64.308-37.347Q595.462-800 481.231-800q-112.385 0-164.001 14.039-51.615 14.038-66.154 36.731ZM320-280h320q33 0 56.5-23.5T720-360v-120H240v120q0 33 23.5 56.5T320-280Z"/></svg>