<svg xmlns="http://www.w3.org/2000/svg" height="24" viewBox="0 -960 960 960" width="24"><path d="M225.422-225.655v50.808q0 11.86-8.16 19.718-8.161 7.858-20.224 7.858h-21.289q-12.187 0-20.332-7.858-8.146-7.858-8.146-19.718v-301.384l80.884-228.922q4.225-12.611 15.22-20.094 10.994-7.482 24.471-7.482h425.846q13.068 0 23.512 7.521 10.443 7.52 14.641 20.055l80.884 228.922v301.384q0 11.86-8.16 19.718-8.16 7.858-20.223 7.858h-21.29q-12.186 0-20.332-7.858t-8.146-19.718v-50.808H225.422Zm.5-306.42h508.156l-51.27-144.694H277.192l-51.27 144.694Zm-22.691 55.96v194.5-194.5Zm96.841 147.538q21.12 0 35.908-14.784 14.789-14.784 14.789-35.904 0-21.119-14.784-35.908-14.784-14.788-35.904-14.788-21.119 0-35.908 14.784-14.788 14.784-14.788 35.903 0 21.12 14.784 35.908 14.784 14.789 35.903 14.789Zm359.847 0q21.119 0 35.908-14.784 14.788-14.784 14.788-35.904 0-21.119-14.784-35.908-14.784-14.788-35.903-14.788-21.12 0-35.908 14.784-14.789 14.784-14.789 35.903 0 21.12 14.784 35.908 14.784 14.789 35.904 14.789Zm-456.688 46.962h553.538v-194.5H203.231v194.5Z"/></svg>