<?xml version="1.0" encoding="utf-8"?>
<!-- Uploaded to: SVG Repo, www.svgrepo.com, Generator: SVG Repo Mixer Tools -->
<svg width="800px" height="800px" viewBox="0 0 1024 1024" class="icon"  version="1.1" xmlns="http://www.w3.org/2000/svg"><path d="M618.666667 170.666667h-128v85.333333H246.762667L149.333333 469.333333v85.333334h704v-85.333334z" fill="#80DEEA" /><path d="M396.096 256h-149.333333l-42.666667-106.666667h64z" fill="#80DEEA" /><path d="M764.565333 426.666667l-34.154666-42.666667H235.2l-19.477333 42.666667zM196.245333 469.333333l-1.898666 4.138667L192 512h618.666667v-27.690667L798.677333 469.333333zM696.298667 341.333333l-34.133334-42.666666H274.197333l-19.498666 42.666666zM533.333333 256h98.133334l-33.557334-42.666667H533.333333z" fill="#0288D1" /><path d="M789.333333 426.666667c-64 0-64 85.333333-106.666666 85.333333H256c-42.666667 0-42.666667-85.333333-85.333333-85.333333H85.333333l64 288c0 64.789333 52.522667 74.666667 117.333334 74.666666h456C787.456 789.333333 910.208 490.666667 938.666667 426.666667h-149.333334z" fill="#FF1744" /><path d="M714.666667 586.666667m-32 0a32 32 0 1 0 64 0 32 32 0 1 0-64 0Z" fill="#700808" /><path d="M608 586.666667m-32 0a32 32 0 1 0 64 0 32 32 0 1 0-64 0Z" fill="#700808" /><path d="M501.333333 586.666667m-32 0a32 32 0 1 0 64 0 32 32 0 1 0-64 0Z" fill="#700808" /><path d="M394.666667 586.666667m-32 0a32 32 0 1 0 64 0 32 32 0 1 0-64 0Z" fill="#700808" /><path d="M288 586.666667m-32 0a32 32 0 1 0 64 0 32 32 0 1 0-64 0Z" fill="#700808" /><path d="M132.736 640L149.333333 714.666667c0 64.789333 52.522667 74.666667 117.333334 74.666666h456c31.36 0 76.245333-69.909333 117.482666-149.333333H132.736z" fill="#880E4F" /><path d="M938.666667 682.666667c-64 0-85.333333-42.666667-85.333334-42.666667s-21.333333 42.666667-85.333333 42.666667-85.333333-42.666667-85.333333-42.666667-21.333333 42.666667-85.333334 42.666667-85.333333-42.666667-85.333333-42.666667-21.333333 42.666667-85.333333 42.666667-85.333333-42.666667-85.333334-42.666667-21.333333 42.666667-85.333333 42.666667-85.333333-42.666667-85.333333-42.666667-21.333333 42.666667-85.333334 42.666667v170.666666h853.333334v-170.666666z" fill="#90CAF9" /><path d="M938.666667 768c-64 0-85.333333-42.666667-85.333334-42.666667s-21.333333 42.666667-85.333333 42.666667-85.333333-42.666667-85.333333-42.666667-21.333333 42.666667-85.333334 42.666667-85.333333-42.666667-85.333333-42.666667-21.333333 42.666667-85.333333 42.666667-85.333333-42.666667-85.333334-42.666667-21.333333 42.666667-85.333333 42.666667-85.333333-42.666667-85.333333-42.666667-21.333333 42.666667-85.333334 42.666667v85.333333h853.333334v-85.333333z" fill="#2196F3" /></svg>