<svg xmlns="http://www.w3.org/2000/svg" height="24" viewBox="0 -960 960 960" width="24"><path d="m139.232-430.001 290.767-418.074v418.074H139.232Zm114.536-59.998h116.233v-166.926L253.768-489.999Zm260.079 59.998q11.231-28.769 23.692-95.5 12.462-66.73 12.462-134.499 0-70.846-12.154-140.115t-23.615-105.653q59.077 22.616 114.769 70.077 55.692 47.461 99.383 111.038 43.692 63.577 71.308 139.115Q827.307-510 829.615-430.001H513.847Zm78.229-59.998h171.079q-15.846-87.77-60.116-162.348-44.27-74.578-101.886-126.117 3.923 28.309 6.385 58.694 2.461 30.385 2.461 59.77 0 46.231-5.077 89.308-5.077 43.077-12.846 80.693ZM360-197.692q-33.692 0-64.692-14.308-31-14.307-55.308-40.307-11.692 12.307-25.692 23.576-14 11.27-29.769 17.731-33.461-25.231-57-61.038-23.538-35.808-34.461-77.961h773.844q-10.923 42.153-34.461 77.961-23.539 35.807-57 61.038-15.769-6.461-29.769-17.731-14-11.269-25.692-23.576-24.923 26-55.616 40.307-30.692 14.308-64.384 14.308T535.116-212Q503.923-226.307 480-252.692 456.077-226.307 424.884-212 393.692-197.692 360-197.692ZM90-50.001v-59.998h30q32 0 62.308-10 30.307-10 57.692-28.846 27.769 18.846 57.885 28.538Q328-110.615 360-110.615t61.808-9.692q29.807-9.692 58.192-28.538 27.769 18.846 57.885 28.538Q568-110.615 600-110.615t62-9.692q30-9.692 58-28.538 28.385 18.846 58.192 28.846 29.808 10 61.808 10h29.999v59.998H840q-29.846 0-59.846-7.692-30-7.692-60.154-23.462-30.154 15.77-60.154 23.462-30 7.692-59.846 7.692-29.846 0-59.846-7.692-30-7.692-60.154-23.462-30.154 15.77-60.154 23.462-30 7.692-59.846 7.692-29.846 0-59.846-7.692-30-7.692-60.154-23.462-30.154 15.77-60.154 23.462-30 7.692-59.846 7.692H90Zm280.001-439.998Zm222.075 0Z"/></svg>