<svg xmlns="http://www.w3.org/2000/svg" height="24" viewBox="0 -960 960 960" width="24"><path d="m284.616-50 120.307-613.923q4.846-24.384 23.154-37.154 18.307-12.769 38.23-12.769 20.308 0 37.692 8.846 17.385 8.846 27.846 26.539l40 64q18.769 30.154 52.077 55.961 33.308 25.808 78.386 39.116v-74.462h47.691v543.845h-47.691v-407.923q-50.308-11-95.347-38.269-45.039-27.27-80.424-69.578l-29 145.386 84.769 80.77v289.614h-59.998v-238.077l-101.694-86.154L348.23-50.001h-63.614Zm8.538-396.924-74.615-14.077q-12.154-2.615-19.23-12.653-7.077-10.039-4.462-22.807l30-157q5.616-27.769 30.154-44.346 24.538-16.577 52.307-10.962l35.999 7.462-50.153 254.383Zm239.153-299.23q-30.307 0-52.076-21.769-21.77-21.77-21.77-52.077t21.77-52.077q21.769-21.769 52.076-21.769 30.308 0 52.077 21.769 21.769 21.77 21.769 52.077t-21.769 52.077q-21.769 21.769-52.077 21.769Z"/></svg>