<?xml version="1.0" encoding="utf-8"?>
<!-- Uploaded to: SVG Repo, www.svgrepo.com, Generator: SVG Repo Mixer Tools -->
<svg width="800px" height="800px" viewBox="-1.88 0 20.372 20.372" xmlns="http://www.w3.org/2000/svg">
  <g id="trekking" transform="translate(-3.658 -2)">
    <circle id="secondary" fill="#2ca9bc" cx="2" cy="2" r="2" transform="translate(10 3)"/>
    <circle id="primary" cx="2" cy="2" r="2" transform="translate(10 3)" fill="none" stroke="#000000" stroke-linecap="round" stroke-linejoin="round" stroke-width="2"/>
    <path id="primary-2" data-name="primary" d="M19,10l-2.28.76a1,1,0,0,1-1.14-.4l-1-1.47A2,2,0,0,0,12.93,8H10.24a1,1,0,0,0-.45.11L6.3,9.85a1,1,0,0,0-.45.45L5,12" fill="none" stroke="#000000" stroke-linecap="round" stroke-linejoin="round" stroke-width="2"/>
    <path id="primary-3" data-name="primary" d="M10,8.05v5.67a2,2,0,0,0,1.18,1.83c.74.32,1.49.62,2.13.86a2,2,0,0,1,1.23,2.36L14,21" fill="none" stroke="#000000" stroke-linecap="round" stroke-linejoin="round" stroke-width="2"/>
    <line id="primary-4" data-name="primary" x1="3.18" y2="5.3" transform="translate(8 15.7)" fill="none" stroke="#000000" stroke-linecap="round" stroke-linejoin="round" stroke-width="2"/>
    <line id="primary-5" data-name="primary" y1="3.55" transform="translate(14 8.45)" fill="none" stroke="#000000" stroke-linecap="round" stroke-linejoin="round" stroke-width="2"/>
  </g>
</svg>