<svg xmlns="http://www.w3.org/2000/svg" height="24" viewBox="0 -960 960 960" width="24"><path d="M424.923-520h-86.924 176.925-90.001Zm-217.23 299.999q-74.923 0-127.46-52.538Q27.693-325.078 27.693-400t52.538-127.461q52.538-52.538 127.461-52.538h468.616l-96.54-96.539q-1.923-1.923-4.039-2.693-2.115-.769-4.423-.769H447.693v-59.999h122.998q14.462 0 27.808 5.616 13.346 5.615 23.192 15.461l140.154 140.154q72.23 2.923 121.345 54.73Q932.306-472.23 932.306-400q0 74.922-52.538 127.461-52.538 52.538-127.461 52.538-74.922 0-127.46-52.538Q572.309-325.078 572.309-400q0-24.539 8.269-47.232 8.27-22.692 22.963-42h-33.849L450.461-370.001h-66q-10.154 65-60.154 107.5-49.999 42.5-116.614 42.5ZM752.307-280q50 0 85-35t35-85q0-50-35-85t-85-35q-50 0-85 35t-35 85q0 50 35 85t85 35Zm-544.614 0q41.077 0 72.923-25.269 31.847-25.27 42.154-64.732H207.693v-59.998H322.77q-10.307-39.462-42.154-64.732Q248.77-520 207.693-520q-50 0-85 35t-35 85q0 50 35 85t85 35Zm178.768-149.999h38.462L514.924-520H337.999q19.615 17.385 32.115 40.462 12.501 23.077 16.347 49.539Z"/></svg>