<svg xmlns="http://www.w3.org/2000/svg" height="24" viewBox="0 -960 960 960" width="24"><path d="m776.923-123.848-42.153-42.153 54.001-54H461.23q-8.923 35.615-38.192 57.807-29.269 22.193-66.115 22.193t-65.615-22.193q-28.769-22.192-38.692-57.807h-45.692q-45.769 0-77.885-32.116-32.115-32.115-32.115-77.884v-219.998h229.23v-120H96.924v-59.999h487.69q30.308 0 51.308 21 20.999 21 20.999 51.307V-280H787.54l-52.77-52.77 42.153-43.384 126.153 126.153-126.153 126.153ZM387.691-549.999h209.232v-107.692q0-4.615-3.847-8.462-3.846-3.846-8.462-3.846H387.691v120ZM356.923-200q20.846 0 35.423-14.577 14.578-14.577 14.578-35.424 0-20.846-14.578-35.423-14.577-14.577-35.423-14.577-20.847 0-35.424 14.577-14.577 14.577-14.577 35.423 0 20.847 14.577 35.424Q336.076-200 356.923-200Zm-104.307-80q9.923-35.615 38.692-57.808Q320.077-360 356.923-360t66.115 22.192Q452.307-315.615 461.23-280h135.693v-210.001h-440v160q0 20.847 14.577 35.424Q186.077-280 206.924-280h45.692Zm0-210.001h-95.693 440-344.307Z"/></svg>