<svg xmlns="http://www.w3.org/2000/svg" height="24" viewBox="0 -960 960 960" width="24"><path d="M4.616-210.001v-59.998h172.462q9.077-69.539 56.692-121.308 47.616-51.769 114.385-66.384l-59.539-263.078q-.769-4.231-4.423-6.732-3.654-2.5-7.116-2.5H134.616v-59.998h142.461q23.538 0 44.115 15.577 20.577 15.576 26.192 40.268l74.154 329.538H400q-68.308 0-116.846 48.539-48.539 48.538-48.539 116.846v29.23h-230ZM400-129.231q-45.769 0-77.884-32.116-32.115-32.115-32.115-77.884t32.115-77.884Q354.231-349.23 400-349.23t77.884 32.115q32.115 32.115 32.115 77.884t-32.115 77.884Q445.769-129.231 400-129.231Zm0-59.999q20.846 0 35.424-14.577 14.577-14.577 14.577-35.424 0-20.846-14.577-35.423-14.578-14.577-35.424-14.577t-35.424 14.577q-14.577 14.577-14.577 35.423 0 20.847 14.577 35.424Q379.154-189.23 400-189.23Zm364.616-61.54q-70.846 0-123.038-44.115-52.193-44.116-64.5-115.116H476.154l-13.384-59.998h114.308q4.231-25.308 16.962-53.963 12.731-28.654 35.962-46.808H440.924l-13.385-59.999h233.693l-54.001-147.694q-1.153-3.462-3.846-5.193-2.692-1.73-6.154-1.73h-94v-59.999h94q22.538 0 40.73 12.269 18.192 12.269 26.038 33.577l61.693 167.54h38.924q79.538 0 134.768 55.23Q954.615-521.538 954.615-442q0 79.615-56.192 135.422-56.192 55.808-133.807 55.808Zm0-59.229q55.231 0 92.616-38.077 37.384-38.078 37.384-91.924 0-55.231-37.384-92.616-37.385-37.385-92.616-37.385-5.462 0-9.309.193-3.846.192-8.538 1.346l40.769 108.308-56.768 21.076-38.769-108.308q-27.308 18.154-42.347 46.539-15.039 28.385-15.039 60.847 0 53.846 37.385 91.924 37.385 38.077 92.616 38.077ZM400-239.231ZM764.616-440Z"/></svg>