<?xml version="1.0" encoding="iso-8859-1"?>
<!-- Uploaded to: SVG Repo, www.svgrepo.com, Generator: SVG Repo Mixer Tools -->
<svg height="800px" width="800px" version="1.1" id="Layer_1" xmlns="http://www.w3.org/2000/svg" xmlns:xlink="http://www.w3.org/1999/xlink" 
	 viewBox="0 0 511.995 511.995" xml:space="preserve">
<path style="fill:#565766;" d="M350.01,326.166l-95.909-132.485l0,0c-28.22,14.538-36.871,50.791-18.256,76.506l57.69,79.69
	l-18.719,74.465l57.85,14.542l22.11-87.956C356.926,342.374,355.181,333.309,350.01,326.166z"/>
<polygon style="fill:#70BBD6;" points="402.877,156.642 347.174,99.398 313.372,92.393 188.705,195.819 257.238,281.041 "/>
<path style="fill:#F0C19C;" d="M381.469,52.577l-33.013,56.537l0.023,0.119c3.864,19.998,18.011,37.432,38.659,44.513
	c20.654,7.083,42.528,1.998,57.851-11.428l0.081-0.072l8.631-64.898L381.469,52.577z"/>
<path style="fill:#7DD2F0;" d="M443.77,23.876l-21.643-7.421c-24.742-8.484-51.676,4.694-60.16,29.435l0,0l111.238,38.147l0,0
	C481.69,59.295,468.511,32.36,443.77,23.876z"/>
<g>
	<circle style="fill:#5A4146;" cx="388.025" cy="88.661" r="7.052"/>
	<circle style="fill:#5A4146;" cx="427.054" cy="102.426" r="7.052"/>
	<path style="fill:#5A4146;" d="M405.485,130.972c-3.165,0-6.505-0.573-9.793-1.729c-7.298-2.566-12.996-7.526-15.239-13.267
		c-1.642-4.201,0.432-8.938,4.635-10.579c4.199-1.642,8.938,0.432,10.579,4.634c0.268,0.686,2.011,2.595,5.443,3.802
		c3.432,1.207,5.987,0.808,6.624,0.44c3.909-2.249,8.904-0.903,11.151,3.008c2.249,3.909,0.903,8.902-3.008,11.152
		C412.942,130.121,409.343,130.972,405.485,130.972z"/>
</g>
<path style="fill:#70BBD6;" d="M341.13,422.558l-61.952-15.574l-8.729,34.726l90.598,22.774l1.528-6.079
	C366.553,442.586,356.951,426.535,341.13,422.558z"/>
<path style="fill:#626375;" d="M301.8,314.047l-95.909-132.485l0,0c-28.22,14.538-36.871,50.791-18.256,76.506l57.69,79.69
	l-14.356,57.11l24.404,24.586l29.085,7.311l22.11-87.956C308.716,330.256,306.972,321.19,301.8,314.047z"/>
<path style="fill:#565766;" d="M248.386,412.222l18.719-74.465l-57.69-79.69c-15.021-20.75-12.279-48.356,4.165-65.884
	l-7.689-10.621l0,0c-28.22,14.538-36.871,50.791-18.256,76.506l57.69,79.69l-14.356,57.11l53.488,31.897l1.295-5.15L248.386,412.222
	z"/>
<path style="fill:#7DD2F0;" d="M292.921,410.44l-61.952-15.574l-8.729,34.726l90.598,22.774l1.528-6.079
	C318.343,430.467,308.742,414.417,292.921,410.44z"/>
<path style="fill:#626375;" d="M309.47,180.722c-2.352,0-4.688-1.012-6.302-2.967L190.088,40.787
	c-2.872-3.478-2.381-8.626,1.099-11.499c3.478-2.873,8.626-2.381,11.499,1.099l113.079,136.967
	c2.873,3.478,2.381,8.626-1.098,11.499C313.143,180.11,311.302,180.722,309.47,180.722z"/>
<g>
	<path style="fill:#FFD782;" d="M229.77,76.023L229.77,76.023c10.175-8.402,11.615-23.461,3.214-33.637l-4.841-5.863l-36.851,30.423
		l4.841,5.863C204.534,82.985,219.594,84.425,229.77,76.023z"/>
	<path style="fill:#FFD782;" d="M377.806,509.701l-336.227-84.52c-10.649-2.677-17.113-13.481-14.436-24.131
		s13.482-17.113,24.131-14.436l336.227,84.52c15.948,4.009,32.736-3.192,40.824-17.509c5.401-9.562,17.537-12.937,27.091-7.534
		c9.562,5.401,12.935,17.53,7.534,27.091C446.08,503.046,411.068,518.062,377.806,509.701z"/>
	<circle style="fill:#FFD782;" cx="434.296" cy="16.232" r="16.232"/>
</g>
<g>
	<path style="fill:#5A4146;" d="M369.937,86.206c-3.697,10.781-11.731,18.838-21.48,22.909c-1.858-9.717-1.302-20.032,2.137-30.06
		l11.373-33.165l19.503,6.689L369.937,86.206z"/>
	<path style="fill:#5A4146;" d="M442.171,110.976c-3.697,10.781-2.299,22.073,2.901,31.27c7.43-6.532,13.322-15.017,16.761-25.046
		l11.373-33.165l-19.503-6.689L442.171,110.976z"/>
</g>
<path style="fill:#FFD782;" d="M477.178,72.45L365.941,34.303c-6.398-2.194-13.364,1.214-15.559,7.613
	c-2.194,6.399,1.214,13.365,7.612,15.559l111.238,38.147c6.399,2.194,13.364-1.214,15.559-7.613
	C486.986,81.611,483.577,74.645,477.178,72.45z"/>
<path style="fill:#7DD2F0;" d="M414.625,230.457c-17.403-8.209-32.271-19.092-42.625-31.502
	c-18.3-21.933-23.125-47.769-14.749-78.987c3.913-14.584-4.739-29.578-19.322-33.491c-14.621-3.944-29.578,4.738-33.491,19.322
	c-12.953,48.282-4.109,92.61,25.577,128.187c16.278,19.508,38.606,35.818,64.659,47.524l0.087,0.038l19.974-20.49v-30.543
	L414.625,230.457z"/>
<path style="fill:#9CE5FF;" d="M414.734,230.514l-0.11-0.058c-17.403-8.209-32.271-19.092-42.625-31.502
	c-18.3-21.933-23.125-47.769-14.749-78.987c3.913-14.584-4.739-29.578-19.322-33.491c-11.114-2.998-22.418,1.305-28.921,9.945
	c2.357,0,4.753,0.302,7.142,0.945c14.584,3.913,23.235,18.907,19.322,33.491c-8.376,31.218-3.551,57.054,14.749,78.987
	c10.355,12.41,25.223,23.292,42.625,31.502l0.11,0.058c4.848,2.283,9.897,4.349,15.094,6.191L414.734,230.514z"/>
<path style="fill:#FFD782;" d="M442.047,240.531c-9.565-2.595-18.744-5.983-27.312-10.016l-19.974,51.034
	c10.442,4.687,21.48,8.638,32.97,11.755c0.168,0.046,0.335,0.089,0.502,0.132c14.413,3.623,29.135-4.954,33.042-19.359
	C465.228,259.503,456.619,244.485,442.047,240.531z"/>
</svg>