<svg xmlns="http://www.w3.org/2000/svg" height="24" viewBox="0 -960 960 960" width="24"><path d="M741.154-50q-24.846 0-48.577-3.808-23.731-3.808-46.346-11.808L90.77-268.308l15.769-45.076L384.078-212l70.923-179.154-152.232-152.077Q278.462-567 283.385-600.884q4.923-33.884 35.076-51.576l150.54-88.078q14.692-8.846 30.076-10.154 15.385-1.307 30.077 4.923 14.692 5.231 25.653 16.693 10.962 11.461 16.577 27.153l13 43q14.923 49.154 45 83.308 30.077 34.154 77.616 51.539l21.385-64.769 45.076 14.538-39.615 119.537q-74.769-14.693-125.423-57.423-50.653-42.731-76.499-114.192L406.307-553l121 141.462-86.692 219.999 139.001 50.385 85.923-258.538q10.923 4.615 21.846 7.654 10.922 3.038 23.23 5.653l-86.539 262 36.001 12.924q19.923 6.769 39.615 10.269 19.693 3.5 41.462 3.5 25.231 0 48.154-4.423 22.923-4.423 44.538-13.654l35.384 36.153q-29.692 15.077-61.615 22.346Q775.692-50 741.154-50Zm-87.693-656.154q-30.307 0-52.077-21.769-21.769-21.77-21.769-52.077t21.769-52.077q21.77-21.769 52.077-21.769 30.308 0 52.077 21.769 21.769 21.77 21.769 52.077t-21.769 52.077q-21.769 21.769-52.077 21.769Z"/></svg>