<svg xmlns="http://www.w3.org/2000/svg" height="24" viewBox="0 -960 960 960" width="24"><path d="M100.001-100.001V-606q0-77.692 41.116-135.768 41.115-58.077 114.576-87.769Q307-849.383 366.462-854.691q59.461-5.308 113.538-5.308t113.538 5.308q59.462 5.308 110.769 25.154 73.461 29.692 114.576 87.769Q859.999-683.692 859.999-606v505.999H100.001ZM357.076-160h244.617l-60-63.077H417.076l-60 63.077ZM300-435.384h360V-600H300v164.616Zm311.605 132.307q15.394 0 25.74-10.414 10.346-10.413 10.346-25.807 0-15.394-10.413-25.74-10.414-10.346-25.808-10.346t-25.74 10.413q-10.346 10.414-10.346 25.808t10.414 25.74q10.413 10.346 25.807 10.346Zm-263.075 0q15.394 0 25.74-10.414 10.346-10.413 10.346-25.807 0-15.394-10.414-25.74-10.413-10.346-25.807-10.346-15.394 0-25.74 10.413-10.346 10.414-10.346 25.808t10.413 25.74q10.414 10.346 25.808 10.346ZM160-160h147.693v-20l42.769-45.077q-44.384-5.616-71.269-37.769Q252.309-295 252.309-340v-260q0-67.615 68.345-88.038Q389-708.461 480-708.461q100 0 163.846 20.423 63.845 20.423 63.845 88.038v260q0 45-26.884 76.961-26.885 31.962-71.269 37.962L652.307-180v20H800v-446q0-60-29.5-102.5T682-774q-44-17-97.5-21.5T480-800q-51 0-104.5 4.5T278-774q-59 23-88.5 65.5T160-606v446Zm0 0h640-640Z"/></svg>