<svg xmlns="http://www.w3.org/2000/svg" height="24" viewBox="0 -960 960 960" width="24"><path d="M187.271-350.116v-366.653q0-44.516 23.538-71.181 23.538-26.664 63.653-40.741 40.116-14.077 93.288-18.654 53.173-4.577 112.25-4.577 60.57 0 113.842 4.577 53.273 4.577 93.022 18.654 39.75 14.077 62.808 40.741 23.057 26.665 23.057 71.181v366.653q0 52.52-35.566 88.087-35.566 35.566-88.087 35.566l59.193 59.192v18.385h-52.383l-77.577-77.577H381.884l-77.577 77.577h-52.576v-18.385l59.193-59.192q-52.521 0-88.087-35.566-35.566-35.567-35.566-88.087ZM480-795.962q-110.462 0-163.231 13.885-52.77 13.885-65.693 37.693H709.77q-12.192-24.231-65.116-37.904Q591.731-795.962 480-795.962ZM243.231-535.96h209.193v-152.464H243.231v152.464ZM649.076-480H243.231h473.538-67.693Zm-140.692-55.96h208.385v-152.464H508.384v152.464ZM341.575-331.731q21.771 0 35.848-14.037 14.076-14.036 14.076-35.807t-14.036-35.848q-14.037-14.076-35.807-14.076-21.771 0-35.848 14.036-14.077 14.037-14.077 35.807 0 21.771 14.037 35.848 14.036 14.077 35.807 14.077Zm276.769 0q21.771 0 35.848-14.037 14.077-14.036 14.077-35.807t-14.037-35.848q-14.036-14.076-35.807-14.076t-35.848 14.036q-14.076 14.037-14.076 35.807 0 21.771 14.036 35.848 14.037 14.077 35.807 14.077Zm-307.42 49.308h338.152q28.693 0 48.193-19.5 19.5-19.5 19.5-48.193V-480H243.231v129.794q0 28.783 19.5 48.283t48.193 19.5ZM480-744.384h229.77-458.694H480Z"/></svg>