<svg xmlns="http://www.w3.org/2000/svg" height="24" viewBox="0 -960 960 960" width="24"><path d="M180.001-267.693V-640q0-85.076 79.615-111.23 79.615-26.153 189.615-28.769l30-60H281.539v-47.691h396.922v47.691H540.769l-30 60q115.538 2.616 192.384 28.462Q779.999-725.691 779.999-640v372.307q0 53.615-37.039 90.653-37.038 37.039-90.653 37.039l60 60v20h-56.921l-80-80H384.614l-80 80h-56.921v-20l60-60q-53.615 0-90.653-37.039-37.039-37.038-37.039-90.653ZM652.307-400H240h480-67.693ZM480-247.693q21.923 0 37.115-15.192 15.192-15.192 15.192-37.115 0-21.923-15.192-37.115-15.192-15.192-37.115-15.192-21.923 0-37.115 15.192-15.192 15.192-15.192 37.115 0 21.923 15.192 37.115 15.192 15.192 37.115 15.192Zm-1.231-421.537H711.385 249.846h228.923ZM240-459.999h480v-149.232H240v149.232ZM307.693-200h344.614Q681-200 700.5-219.5 720-239 720-267.693V-400H240v132.307Q240-239 259.5-219.5 279-200 307.693-200Zm171.076-520q-128.999 0-173.538 15.269-44.539 15.27-55.385 35.501h461.539q-10.846-22.077-56.616-36.424Q609-720 478.769-720Z"/></svg>