<svg xmlns="http://www.w3.org/2000/svg" height="24" viewBox="0 -960 960 960" width="24"><path d="m168.847-50 75.769-343.846h48.306L217.154-50.001h-48.307Zm124.231 0 112-570.924-95.079 38.385v132.538h-59.998v-171.845l192.384-80.999q28.23-11.616 54.769-4.039 26.538 7.577 42.384 32.269L579.153-611q26 42 70.308 69.77 44.308 27.769 100.538 30.461v59.999q-64.077-1.923-120.23-32.693Q573.615-514.232 535-567.31l-29.77 150.387 84.769 81.154v285.768h-59.998v-233.461l-100.155-95.77-74.308 329.231h-62.46ZM540-746.155q-30.307 0-52.077-21.769-21.769-21.77-21.769-52.077t21.769-52.077q21.77-21.769 52.077-21.769t52.077 21.769q21.769 21.77 21.769 52.077t-21.769 52.077q-21.77 21.769-52.077 21.769ZM706.154-50.001v-343.845h47.692v343.845h-47.692Z"/></svg>