<svg xmlns="http://www.w3.org/2000/svg" xmlns:xlink="http://www.w3.org/1999/xlink" width="500" zoomAndPan="magnify" viewBox="0 0 375 374.999991" height="500" preserveAspectRatio="xMidYMid meet" version="1.0"><defs><filter x="0%" y="0%" width="100%" height="100%" id="766a568980"><feColorMatrix values="0 0 0 0 1 0 0 0 0 1 0 0 0 0 1 0 0 0 1 0" color-interpolation-filters="sRGB"/></filter><mask id="813c111732"><g filter="url(#766a568980)"><rect x="-37.5" width="450" fill="#000000" y="-37.499999" height="449.999989" fill-opacity="0.9"/></g></mask><clipPath id="35525ab8d8"><path d="M 0.128906 0.738281 L 140.378906 0.738281 L 140.378906 200.988281 L 0.128906 200.988281 Z M 0.128906 0.738281 " clip-rule="nonzero"/></clipPath><clipPath id="150e790319"><rect x="0" width="141" y="0" height="202"/></clipPath><clipPath id="0257b7aa80"><path d="M 86.769531 54 L 288.519531 54 L 288.519531 249 L 86.769531 249 Z M 86.769531 54 " clip-rule="nonzero"/></clipPath><clipPath id="55bfa67326"><path d="M 144 248 L 215 248 L 215 320.863281 L 144 320.863281 Z M 144 248 " clip-rule="nonzero"/></clipPath></defs><g mask="url(#813c111732)"><g transform="matrix(1, 0, 0, 1, 124, 120)"><g clip-path="url(#150e790319)"><g clip-path="url(#35525ab8d8)"><path fill="#05445e" d="M 70.253906 0.738281 C 31.535156 0.738281 0.128906 32.125 0.128906 70.824219 C 0.128906 123.390625 70.253906 200.988281 70.253906 200.988281 C 70.253906 200.988281 140.378906 123.390625 140.378906 70.824219 C 140.378906 32.125 108.972656 0.738281 70.253906 0.738281 Z M 70.253906 95.855469 C 56.429688 95.855469 45.210938 84.640625 45.210938 70.824219 C 45.210938 57.007812 56.429688 45.792969 70.253906 45.792969 C 84.078125 45.792969 95.300781 57.007812 95.300781 70.824219 C 95.300781 84.640625 84.078125 95.855469 70.253906 95.855469 Z M 70.253906 95.855469 " fill-opacity="1" fill-rule="nonzero"/></g></g></g></g><g clip-path="url(#0257b7aa80)"><path fill="#30d9c8" d="M 279.699219 141.027344 C 275.382812 137.8125 259.359375 122.019531 236.5625 140.203125 C 231.519531 143.859375 228.964844 146.242188 228.964844 146.242188 C 228.964844 146.242188 192.082031 78.878906 86.742188 54.113281 C 86.742188 54.113281 211.867188 104.195312 219.175781 248.441406 C 255.203125 205.621094 260.503906 153.367188 275.066406 151.035156 C 283.714844 149.652344 288.484375 154.507812 288.484375 154.507812 C 288.484375 154.507812 287.828125 147.082031 279.699219 141.027344 " fill-opacity="1" fill-rule="nonzero"/></g><path fill="#30d9c8" d="M 214.023438 263.121094 L 213.296875 248.734375 C 212.6875 236.730469 211.230469 225.101562 208.960938 213.847656 L 144.351562 248.441406 C 144.351562 248.441406 176.40625 285.828125 214.023438 263.121094 " fill-opacity="1" fill-rule="nonzero"/><g clip-path="url(#55bfa67326)"><path fill="#15b5b0" d="M 144.351562 248.441406 L 193.828125 320.679688 L 214.023438 263.121094 C 176.40625 285.828125 144.351562 248.441406 144.351562 248.441406 " fill-opacity="1" fill-rule="nonzero"/></g></svg>