<svg xmlns="http://www.w3.org/2000/svg" xmlns:xlink="http://www.w3.org/1999/xlink" width="500" zoomAndPan="magnify" viewBox="0 0 375 374.999991" height="500" preserveAspectRatio="xMidYMid meet" version="1.0"><defs><clipPath id="55365061f7"><path d="M 10 25 L 363 25 L 363 353.578125 L 10 353.578125 Z M 10 25 " clip-rule="nonzero"/></clipPath><clipPath id="edb9da3ef1"><path d="M 11 205 L 169 205 L 169 353.578125 L 11 353.578125 Z M 11 205 " clip-rule="nonzero"/></clipPath></defs><g clip-path="url(#55365061f7)"><path fill="#e7e8ff" d="M 93.21875 353.03125 L 284.15625 353.03125 C 297.578125 353.03125 310.773438 349.589844 322.492188 343.035156 C 362.367188 320.730469 374.988281 269.195312 349.945312 230.917969 L 343.394531 220.902344 C 332.472656 204.207031 330.171875 183.28125 337.207031 164.601562 L 346.007812 141.234375 C 358.75 107.40625 330.714844 72.246094 294.992188 77.246094 C 284.21875 78.753906 273.257812 76.511719 263.9375 70.890625 L 212.542969 39.910156 C 188.613281 25.484375 159.824219 21.539062 132.90625 28.992188 L 110.15625 35.292969 C 66.347656 47.429688 41.609375 93.863281 55.914062 137.105469 L 60.523438 151.046875 C 68.992188 176.648438 59.449219 204.769531 37.164062 219.886719 C 11.945312 236.992188 3.476562 270.300781 17.453125 297.417969 L 24.496094 311.082031 C 37.777344 336.847656 64.289062 353.03125 93.21875 353.03125 Z M 93.21875 353.03125 " fill-opacity="1" fill-rule="nonzero"/></g><path fill="#032068" d="M 349.570312 304.433594 C 349.863281 326.671875 334.773438 345.445312 327.109375 352.019531 L 315.363281 352.019531 C 324.09375 322.351562 338.53125 307.597656 346.617188 302.6875 C 347.964844 301.871094 349.550781 302.851562 349.570312 304.433594 Z M 349.570312 304.433594 " fill-opacity="1" fill-rule="nonzero"/><path fill="#ffffff" d="M 350.8125 231.472656 C 362.84375 276.941406 332.515625 330.792969 319.476562 350.839844 L 293.050781 350.839844 C 304.402344 265.050781 323.429688 244.199219 347.488281 230.109375 C 348.777344 229.355469 350.425781 230.023438 350.8125 231.472656 Z M 350.8125 231.472656 " fill-opacity="1" fill-rule="nonzero"/><path fill="#032068" d="M 348.078125 231.132812 C 348.714844 230.761719 349.496094 231.09375 349.675781 231.777344 C 355.605469 254.175781 351.113281 278.738281 343.441406 300.292969 C 335.910156 321.449219 325.363281 339.566406 318.839844 349.660156 L 294.390625 349.660156 C 300.042969 307.601562 307.550781 281.46875 316.546875 264.132812 C 325.601562 246.679688 336.195312 238.09375 348.078125 231.132812 Z M 351.945312 231.171875 C 351.359375 228.953125 348.84375 227.949219 346.894531 229.089844 C 334.722656 236.21875 323.773438 245.101562 314.460938 263.042969 C 305.1875 280.917969 297.570312 307.738281 291.886719 350.683594 L 291.710938 352.019531 L 320.109375 352.019531 L 320.457031 351.484375 C 327.007812 341.417969 337.902344 322.859375 345.652344 301.089844 C 353.394531 279.339844 358.050781 254.238281 351.945312 231.171875 Z M 351.945312 231.171875 " fill-opacity="1" fill-rule="evenodd"/><path fill="#032068" d="M 308.203125 259.449219 C 318.597656 297.550781 306.699219 337.148438 298.921875 352.019531 L 279.542969 352.019531 C 275.183594 305.582031 292.902344 271.8125 304.550781 258.539062 C 305.699219 257.226562 307.746094 257.761719 308.203125 259.449219 Z M 308.203125 259.449219 " fill-opacity="1" fill-rule="nonzero"/><path fill="#032068" d="M 334.363281 263.828125 L 340.683594 245.976562 L 342.898438 246.769531 L 328.417969 287.65625 L 337.929688 284.785156 L 338.605469 287.046875 L 327.441406 290.417969 L 314.269531 327.605469 L 326.125 323.175781 L 326.941406 325.386719 L 313.242188 330.507812 L 305.902344 351.234375 L 303.6875 350.445312 L 318.597656 308.34375 L 313.085938 292.804688 L 315.296875 292.011719 L 319.84375 304.828125 L 333.03125 267.589844 L 328.921875 253.792969 L 331.171875 253.117188 Z M 334.363281 263.828125 " fill-opacity="1" fill-rule="evenodd"/><path fill="#ffffff" d="M 298.292969 289.875 L 301.289062 273.3125 L 303.601562 273.734375 L 297.519531 307.351562 L 305.421875 303.167969 L 306.515625 305.257812 L 296.984375 310.300781 L 291.769531 339.136719 L 298.304688 333.976562 L 299.753906 335.832031 L 291.136719 342.636719 L 289.507812 351.640625 L 287.195312 351.21875 L 291.375 328.125 L 284.484375 319.097656 L 286.347656 317.660156 L 291.941406 324.988281 L 297.769531 292.777344 L 292.1875 286.71875 L 293.910156 285.113281 Z M 298.292969 289.875 " fill-opacity="1" fill-rule="evenodd"/><path fill="#ffffff" d="M 318.769531 119.789062 L 322.277344 114.933594 C 322.902344 114.066406 324.269531 114.511719 324.265625 115.578125 L 324.238281 121.429688 C 324.238281 121.785156 324.40625 122.117188 324.695312 122.324219 L 329.886719 126.078125 C 330.722656 126.679688 330.335938 128 329.308594 128.0625 L 322.847656 128.449219 C 322.53125 128.46875 322.242188 128.621094 322.046875 128.871094 L 317.667969 134.472656 C 317.015625 135.304688 315.683594 134.828125 315.707031 133.773438 L 315.851562 127.109375 C 315.859375 126.78125 315.722656 126.472656 315.480469 126.257812 L 310.023438 121.480469 C 309.21875 120.777344 309.792969 119.457031 310.851562 119.5625 L 317.769531 120.238281 C 318.160156 120.273438 318.539062 120.105469 318.769531 119.789062 Z M 318.769531 119.789062 " fill-opacity="1" fill-rule="nonzero"/><path fill="#116f59" d="M 354.34375 184.613281 L 356.042969 183.683594 C 356.976562 183.171875 358.019531 184.160156 357.558594 185.121094 L 356.742188 186.8125 C 356.589844 187.132812 356.601562 187.507812 356.769531 187.816406 L 357.898438 189.875 C 358.390625 190.78125 357.476562 191.804688 356.523438 191.417969 L 354.28125 190.515625 C 353.988281 190.398438 353.660156 190.410156 353.378906 190.550781 L 350.960938 191.757812 C 350.019531 192.230469 349.015625 191.226562 349.492188 190.28125 L 350.585938 188.113281 C 350.730469 187.824219 350.742188 187.484375 350.613281 187.183594 L 349.527344 184.671875 C 349.105469 183.695312 350.1875 182.746094 351.101562 183.296875 L 353.25 184.589844 C 353.585938 184.792969 354 184.800781 354.34375 184.613281 Z M 354.34375 184.613281 " fill-opacity="1" fill-rule="nonzero"/><path fill="#ffffff" d="M 44.132812 108.246094 C 44.132812 123.332031 56.363281 135.558594 71.449219 135.558594 C 76.660156 135.558594 81.53125 134.097656 85.671875 131.570312 L 93.898438 134.484375 C 95.214844 134.953125 96.535156 133.789062 96.230469 132.421875 L 94.226562 123.332031 C 97.097656 119.007812 98.769531 113.824219 98.769531 108.246094 C 98.769531 93.164062 86.535156 80.9375 71.449219 80.9375 C 56.363281 80.9375 44.132812 93.164062 44.132812 108.246094 Z M 44.132812 108.246094 " fill-opacity="1" fill-rule="nonzero"/><path fill="#032068" d="M 71.449219 81.53125 C 56.691406 81.53125 44.726562 93.492188 44.726562 108.246094 C 44.726562 123.003906 56.691406 134.964844 71.449219 134.964844 C 76.546875 134.964844 81.3125 133.539062 85.363281 131.0625 L 85.605469 130.914062 L 94.097656 133.925781 C 94.972656 134.238281 95.851562 133.460938 95.652344 132.550781 L 93.59375 123.214844 L 93.730469 123.003906 C 96.539062 118.777344 98.175781 113.703125 98.175781 108.246094 C 98.175781 93.492188 86.210938 81.53125 71.449219 81.53125 Z M 43.539062 108.246094 C 43.539062 92.835938 56.035156 80.34375 71.449219 80.34375 C 86.867188 80.34375 99.363281 92.835938 99.363281 108.246094 C 99.363281 113.851562 97.707031 119.074219 94.859375 123.449219 L 96.8125 132.292969 C 97.214844 134.117188 95.457031 135.667969 93.699219 135.042969 L 85.738281 132.222656 C 81.558594 134.71875 76.671875 136.152344 71.449219 136.152344 C 56.035156 136.152344 43.539062 123.660156 43.539062 108.246094 Z M 43.539062 108.246094 " fill-opacity="1" fill-rule="evenodd"/><path fill="#116f59" d="M 67.847656 115.910156 C 67.519531 115.910156 67.253906 115.644531 67.261719 115.316406 C 67.308594 113.308594 67.597656 111.6875 68.128906 110.449219 C 68.710938 109.09375 69.769531 107.765625 71.308594 106.460938 C 72.863281 105.136719 73.898438 104.066406 74.414062 103.25 C 74.925781 102.417969 75.183594 101.546875 75.183594 100.628906 C 75.183594 97.871094 73.847656 96.492188 71.179688 96.492188 C 69.914062 96.492188 68.898438 96.867188 68.128906 97.617188 C 67.488281 98.242188 67.109375 99.070312 66.988281 100.101562 C 66.949219 100.421875 66.691406 100.679688 66.367188 100.679688 L 60.109375 100.679688 C 59.777344 100.679688 59.507812 100.410156 59.527344 100.078125 C 59.683594 97.246094 60.726562 95.007812 62.664062 93.359375 C 64.75 91.59375 67.589844 90.710938 71.179688 90.710938 C 74.804688 90.710938 77.621094 91.554688 79.621094 93.234375 C 81.621094 94.898438 82.621094 97.257812 82.621094 100.3125 C 82.621094 101.699219 82.296875 103.015625 81.648438 104.253906 C 80.996094 105.480469 79.859375 106.84375 78.234375 108.34375 L 76.15625 110.230469 C 74.859375 111.421875 74.113281 112.816406 73.925781 114.417969 L 73.859375 115.359375 C 73.839844 115.667969 73.582031 115.910156 73.269531 115.910156 Z M 66.511719 123.429688 C 66.511719 122.335938 66.894531 121.4375 67.664062 120.734375 C 68.453125 120.019531 69.453125 119.660156 70.667969 119.660156 C 71.882812 119.660156 72.875 120.019531 73.644531 120.734375 C 74.429688 121.4375 74.824219 122.335938 74.824219 123.429688 C 74.824219 124.507812 74.4375 125.398438 73.667969 126.097656 C 72.917969 126.800781 71.914062 127.152344 70.667969 127.152344 C 69.417969 127.152344 68.410156 126.800781 67.640625 126.097656 C 66.886719 125.398438 66.511719 124.507812 66.511719 123.429688 Z M 66.511719 123.429688 " fill-opacity="1" fill-rule="nonzero"/><path fill="#ffffff" d="M 129.121094 69.828125 C 129.121094 63.125 134.558594 57.691406 141.261719 57.691406 L 279.394531 57.691406 C 286.097656 57.691406 291.535156 63.125 291.535156 69.828125 L 291.535156 339.84375 C 291.535156 346.546875 286.097656 351.980469 279.394531 351.980469 L 141.261719 351.980469 C 134.558594 351.980469 129.121094 346.546875 129.121094 339.84375 Z M 129.121094 69.828125 " fill-opacity="1" fill-rule="nonzero"/><path fill="#032068" d="M 128.109375 69.828125 C 128.109375 62.566406 134 56.679688 141.261719 56.679688 L 279.390625 56.679688 C 286.65625 56.679688 292.546875 62.566406 292.546875 69.828125 L 292.546875 339.84375 C 292.546875 347.105469 286.65625 352.992188 279.390625 352.992188 L 141.261719 352.992188 C 134 352.992188 128.109375 347.105469 128.109375 339.84375 Z M 141.261719 58.703125 C 135.117188 58.703125 130.132812 63.683594 130.132812 69.828125 L 130.132812 339.84375 C 130.132812 345.988281 135.117188 350.96875 141.261719 350.96875 L 279.390625 350.96875 C 285.539062 350.96875 290.523438 345.988281 290.523438 339.84375 L 290.523438 69.828125 C 290.523438 63.683594 285.539062 58.703125 279.390625 58.703125 Z M 141.261719 58.703125 " fill-opacity="1" fill-rule="evenodd"/><path fill="#e7e8ff" d="M 260.65625 165.902344 C 260.65625 193.835938 238.003906 216.476562 210.066406 216.476562 C 182.125 216.476562 159.476562 193.835938 159.476562 165.902344 C 159.476562 137.972656 182.125 115.328125 210.066406 115.328125 C 238.003906 115.328125 260.65625 137.972656 260.65625 165.902344 Z M 260.65625 165.902344 " fill-opacity="1" fill-rule="nonzero"/><path fill="#ffffff" d="M 281.902344 131.511719 C 281.902344 144.359375 271.484375 154.777344 258.632812 154.777344 C 245.777344 154.777344 235.359375 144.359375 235.359375 131.511719 C 235.359375 118.664062 245.777344 108.246094 258.632812 108.246094 C 271.484375 108.246094 281.902344 118.664062 281.902344 131.511719 Z M 281.902344 131.511719 " fill-opacity="1" fill-rule="nonzero"/><path fill="#032068" d="M 258.632812 109.257812 C 246.335938 109.257812 236.371094 119.222656 236.371094 131.511719 C 236.371094 143.800781 246.335938 153.765625 258.632812 153.765625 C 270.921875 153.765625 280.890625 143.800781 280.890625 131.511719 C 280.890625 119.222656 270.921875 109.257812 258.632812 109.257812 Z M 234.347656 131.511719 C 234.347656 118.105469 245.21875 107.234375 258.632812 107.234375 C 272.042969 107.234375 282.914062 118.105469 282.914062 131.511719 C 282.914062 144.917969 272.042969 155.789062 258.632812 155.789062 C 245.21875 155.789062 234.347656 144.917969 234.347656 131.511719 Z M 234.347656 131.511719 " fill-opacity="1" fill-rule="evenodd"/><path fill="#116f59" d="M 252.304688 131.007812 L 245.476562 137.832031 L 252.308594 144.660156 L 259.136719 137.835938 L 265.964844 144.660156 L 272.792969 137.832031 L 265.964844 131.007812 L 272.796875 124.179688 L 265.964844 117.351562 L 259.136719 124.179688 L 252.304688 117.351562 L 245.476562 124.179688 Z M 252.304688 131.007812 " fill-opacity="1" fill-rule="evenodd"/><path fill="#032068" d="M 178.035156 67.554688 L 172.769531 57.691406 L 247.886719 57.691406 L 241.699219 68 C 239.871094 71.046875 236.574219 72.910156 233.019531 72.910156 L 186.960938 72.910156 C 183.226562 72.910156 179.792969 70.851562 178.035156 67.554688 Z M 178.035156 67.554688 " fill-opacity="1" fill-rule="nonzero"/><path fill="#032068" d="M 289.542969 63.777344 L 130.078125 63.777344 C 135.355469 58.5 140.398438 57.519531 142.257812 57.691406 L 277.359375 57.691406 C 283.859375 57.691406 288.1875 61.75 289.542969 63.777344 Z M 289.542969 63.777344 " fill-opacity="1" fill-rule="nonzero"/><path fill="#032068" d="M 289.421875 346.210938 L 131.144531 346.210938 C 136.628906 351.574219 139.800781 352.570312 141.734375 352.398438 L 278.828125 352.398438 C 285.582031 352.398438 288.011719 348.273438 289.421875 346.210938 Z M 289.421875 346.210938 " fill-opacity="1" fill-rule="nonzero"/><path fill="#116f59" d="M 152.394531 96.109375 C 152.394531 94.992188 153.296875 94.085938 154.417969 94.085938 L 208.300781 94.085938 C 209.417969 94.085938 210.324219 94.992188 210.324219 96.109375 L 210.324219 98.269531 C 210.324219 99.386719 209.417969 100.289062 208.300781 100.289062 L 154.417969 100.289062 C 153.296875 100.289062 152.394531 99.386719 152.394531 98.269531 Z M 152.394531 96.109375 " fill-opacity="1" fill-rule="nonzero"/><path fill="#032068" d="M 152.394531 232.664062 C 152.394531 231.546875 153.296875 230.640625 154.417969 230.640625 L 208.300781 230.640625 C 209.417969 230.640625 210.324219 231.546875 210.324219 232.664062 L 210.324219 234.820312 C 210.324219 235.9375 209.417969 236.84375 208.300781 236.84375 L 154.417969 236.84375 C 153.296875 236.84375 152.394531 235.9375 152.394531 234.820312 Z M 152.394531 232.664062 " fill-opacity="1" fill-rule="nonzero"/><path fill="#032068" d="M 152.394531 286.273438 C 152.394531 285.15625 153.296875 284.25 154.417969 284.25 L 186.792969 284.25 C 187.910156 284.25 188.816406 285.15625 188.816406 286.273438 L 188.816406 288.296875 C 188.816406 289.414062 187.910156 290.320312 186.792969 290.320312 L 154.417969 290.320312 C 153.296875 290.320312 152.394531 289.414062 152.394531 288.296875 Z M 152.394531 286.273438 " fill-opacity="1" fill-rule="nonzero"/><path fill="#e7e8ff" d="M 151.378906 247.835938 C 151.378906 246.160156 152.738281 244.800781 154.414062 244.800781 L 262.679688 244.800781 C 264.355469 244.800781 265.714844 246.160156 265.714844 247.835938 L 265.714844 268.066406 C 265.714844 269.742188 264.355469 271.101562 262.679688 271.101562 L 154.414062 271.101562 C 152.738281 271.101562 151.378906 269.742188 151.378906 268.066406 Z M 154.414062 246.824219 C 153.855469 246.824219 153.402344 247.277344 153.402344 247.835938 L 153.402344 268.066406 C 153.402344 268.625 153.855469 269.078125 154.414062 269.078125 L 262.679688 269.078125 C 263.238281 269.078125 263.6875 268.625 263.6875 268.066406 L 263.6875 247.835938 C 263.6875 247.277344 263.238281 246.824219 262.679688 246.824219 Z M 154.414062 246.824219 " fill-opacity="1" fill-rule="evenodd"/><path fill="#e7e8ff" d="M 151.378906 300.433594 C 151.378906 298.757812 152.738281 297.398438 154.414062 297.398438 L 262.679688 297.398438 C 264.355469 297.398438 265.714844 298.757812 265.714844 300.433594 L 265.714844 320.664062 C 265.714844 322.339844 264.355469 323.699219 262.679688 323.699219 L 154.414062 323.699219 C 152.738281 323.699219 151.378906 322.339844 151.378906 320.664062 Z M 154.414062 299.421875 C 153.855469 299.421875 153.402344 299.875 153.402344 300.433594 L 153.402344 320.664062 C 153.402344 321.222656 153.855469 321.675781 154.414062 321.675781 L 262.679688 321.675781 C 263.238281 321.675781 263.6875 321.222656 263.6875 320.664062 L 263.6875 300.433594 C 263.6875 299.875 263.238281 299.421875 262.679688 299.421875 Z M 154.414062 299.421875 " fill-opacity="1" fill-rule="evenodd"/><path fill="#032068" d="M 278.109375 72.152344 L 280.132812 72.152344 L 280.132812 80.425781 L 278.109375 80.425781 Z M 278.109375 72.152344 " fill-opacity="1" fill-rule="evenodd"/><path fill="#032068" d="M 272.9375 73.183594 L 274.960938 73.183594 L 274.960938 80.425781 L 272.9375 80.425781 Z M 272.9375 73.183594 " fill-opacity="1" fill-rule="evenodd"/><path fill="#032068" d="M 267.765625 75.253906 L 269.789062 75.253906 L 269.789062 80.425781 L 267.765625 80.425781 Z M 267.765625 75.253906 " fill-opacity="1" fill-rule="evenodd"/><path fill="#032068" d="M 262.589844 77.320312 L 264.617188 77.320312 L 264.617188 80.425781 L 262.589844 80.425781 Z M 262.589844 77.320312 " fill-opacity="1" fill-rule="evenodd"/><path fill="#032068" d="M 210.042969 136.230469 C 200.835938 136.230469 193.371094 143.816406 193.371094 153.171875 L 193.371094 164.773438 C 193.371094 166.148438 194.484375 167.265625 195.863281 167.265625 C 197.238281 167.265625 198.355469 166.148438 198.355469 164.773438 L 198.355469 152.855469 C 198.355469 146.296875 203.585938 140.980469 210.042969 140.980469 C 216.496094 140.980469 221.726562 146.296875 221.726562 152.855469 L 221.726562 164.152344 C 221.726562 165.527344 222.84375 166.644531 224.222656 166.644531 C 225.597656 166.644531 226.714844 165.527344 226.714844 164.152344 L 226.714844 153.171875 C 226.714844 143.816406 219.25 136.230469 210.042969 136.230469 Z M 210.042969 136.230469 " fill-opacity="1" fill-rule="evenodd"/><path fill="#116f59" d="M 188.769531 164.554688 C 188.769531 162.878906 190.128906 161.519531 191.804688 161.519531 L 228.277344 161.519531 C 229.953125 161.519531 231.3125 162.878906 231.3125 164.554688 L 231.3125 191.820312 C 231.3125 193.496094 229.953125 194.855469 228.277344 194.855469 L 191.804688 194.855469 C 190.128906 194.855469 188.769531 193.496094 188.769531 191.820312 Z M 188.769531 164.554688 " fill-opacity="1" fill-rule="nonzero"/><path fill="#ffffff" d="M 212.757812 179.566406 C 213.742188 178.773438 214.371094 177.554688 214.371094 176.191406 C 214.371094 173.800781 212.433594 171.863281 210.042969 171.863281 C 207.652344 171.863281 205.714844 173.800781 205.714844 176.191406 C 205.714844 177.679688 206.464844 178.988281 207.605469 179.769531 L 206.636719 183.824219 C 206.492188 184.429688 206.953125 185.007812 207.574219 185.007812 L 212.835938 185.007812 C 213.457031 185.007812 213.914062 184.429688 213.769531 183.824219 Z M 212.757812 179.566406 " fill-opacity="1" fill-rule="evenodd"/><path fill="#032068" d="M 273.46875 254.914062 L 248.855469 254.914062 C 247.324219 254.914062 246.347656 253.285156 247.070312 251.9375 L 259.375 228.921875 C 260.136719 227.492188 262.183594 227.492188 262.945312 228.921875 L 275.253906 251.9375 C 275.972656 253.285156 274.996094 254.914062 273.46875 254.914062 Z M 273.46875 254.914062 " fill-opacity="1" fill-rule="nonzero"/><path fill="#ffffff" d="M 260.03125 246.269531 L 262.246094 246.269531 L 262.597656 236.707031 L 259.683594 236.707031 Z M 262.679688 249.246094 C 262.679688 248.773438 262.535156 248.386719 262.246094 248.082031 C 261.957031 247.777344 261.59375 247.621094 261.160156 247.621094 C 260.726562 247.621094 260.367188 247.777344 260.082031 248.082031 C 259.789062 248.386719 259.644531 248.773438 259.644531 249.246094 C 259.644531 249.71875 259.789062 250.109375 260.082031 250.417969 C 260.367188 250.71875 260.726562 250.871094 261.160156 250.871094 C 261.59375 250.871094 261.957031 250.71875 262.246094 250.417969 C 262.535156 250.109375 262.679688 249.71875 262.679688 249.246094 Z M 262.679688 249.246094 " fill-opacity="1" fill-rule="nonzero"/><path fill="#116f59" d="M 167.664062 257.492188 C 167.664062 258.914062 166.507812 260.066406 165.085938 260.066406 C 163.664062 260.066406 162.507812 258.914062 162.507812 257.492188 C 162.507812 256.070312 163.664062 254.914062 165.085938 254.914062 C 166.507812 254.914062 167.664062 256.070312 167.664062 257.492188 Z M 167.664062 257.492188 " fill-opacity="1" fill-rule="nonzero"/><path fill="#116f59" d="M 180.03125 257.492188 C 180.03125 258.914062 178.875 260.066406 177.453125 260.066406 C 176.03125 260.066406 174.878906 258.914062 174.878906 257.492188 C 174.878906 256.070312 176.03125 254.914062 177.453125 254.914062 C 178.875 254.914062 180.03125 256.070312 180.03125 257.492188 Z M 180.03125 257.492188 " fill-opacity="1" fill-rule="nonzero"/><path fill="#116f59" d="M 192.398438 257.492188 C 192.398438 258.914062 191.242188 260.066406 189.820312 260.066406 C 188.398438 260.066406 187.246094 258.914062 187.246094 257.492188 C 187.246094 256.070312 188.398438 254.914062 189.820312 254.914062 C 191.242188 254.914062 192.398438 256.070312 192.398438 257.492188 Z M 192.398438 257.492188 " fill-opacity="1" fill-rule="nonzero"/><path fill="#116f59" d="M 204.765625 257.492188 C 204.765625 258.914062 203.609375 260.066406 202.1875 260.066406 C 200.765625 260.066406 199.609375 258.914062 199.609375 257.492188 C 199.609375 256.070312 200.765625 254.914062 202.1875 254.914062 C 203.609375 254.914062 204.765625 256.070312 204.765625 257.492188 Z M 204.765625 257.492188 " fill-opacity="1" fill-rule="nonzero"/><path fill="#116f59" d="M 217.132812 257.492188 C 217.132812 258.914062 215.976562 260.066406 214.554688 260.066406 C 213.132812 260.066406 211.976562 258.914062 211.976562 257.492188 C 211.976562 256.070312 213.132812 254.914062 214.554688 254.914062 C 215.976562 254.914062 217.132812 256.070312 217.132812 257.492188 Z M 217.132812 257.492188 " fill-opacity="1" fill-rule="nonzero"/><path fill="#116f59" d="M 229.5 257.492188 C 229.5 258.914062 228.34375 260.066406 226.921875 260.066406 C 225.5 260.066406 224.34375 258.914062 224.34375 257.492188 C 224.34375 256.070312 225.5 254.914062 226.921875 254.914062 C 228.34375 254.914062 229.5 256.070312 229.5 257.492188 Z M 229.5 257.492188 " fill-opacity="1" fill-rule="nonzero"/><path fill="#efcb96" d="M 92.257812 159.140625 C 77.910156 169.289062 83.941406 187.332031 86.644531 194.324219 L 85.460938 208.589844 C 86.6875 213.082031 91.136719 222.0625 99.121094 222.0625 C 107.105469 222.0625 110.765625 214.394531 111.597656 210.5625 L 110.347656 199.738281 C 119.707031 196.355469 120.328125 182.824219 119.707031 171.996094 C 118.964844 159.140625 104.894531 150.203125 92.257812 159.140625 Z M 92.257812 159.140625 " fill-opacity="1" fill-rule="nonzero"/><path fill="#032068" d="M 87.09375 190.789062 L 85.851562 203.054688 C 85.4375 202.144531 84.484375 199.511719 83.988281 196.238281 C 83.367188 192.148438 73.421875 176.476562 76.53125 164.886719 C 79.015625 155.621094 85.851562 156.027344 88.960938 157.390625 C 90.824219 153.984375 102.011719 142.398438 118.167969 143.761719 C 134.328125 145.125 136.191406 168.296875 123.140625 171.703125 C 112.699219 174.429688 100.972656 172.839844 96.417969 171.703125 C 96.003906 172.613281 94.800781 175.65625 93.308594 180.5625 C 91.445312 186.699219 91.445312 188.0625 90.824219 183.972656 C 90.203125 179.882812 87.714844 172.386719 84.609375 179.882812 C 82.121094 185.878906 85.230469 189.652344 87.09375 190.789062 Z M 87.09375 190.789062 " fill-opacity="1" fill-rule="nonzero"/><path fill="#032068" d="M 96.121094 199.492188 C 100.398438 202.007812 107.007812 200.539062 109.78125 199.492188 L 110.375 203.898438 C 104.199219 205.410156 98.296875 201.589844 96.121094 199.492188 Z M 96.121094 199.492188 " fill-opacity="1" fill-rule="nonzero"/><g clip-path="url(#edb9da3ef1)"><path fill="#116f59" d="M 98.574219 214.5 C 107.519531 214.5 111.851562 209.519531 113.15625 206.542969 C 113.308594 206.195312 113.636719 205.949219 114.015625 205.96875 C 118.953125 206.21875 125.960938 209.214844 127.714844 209.816406 C 127.761719 209.832031 127.804688 209.851562 127.847656 209.875 C 141.652344 217.289062 154.742188 230.414062 162.945312 277.746094 C 165.605469 297.5 170.351562 338.714844 168.074219 345.554688 C 165.792969 352.390625 150.03125 353.339844 142.4375 352.960938 L 42.746094 352.960938 C 40.105469 352.960938 40.921875 348.800781 42.035156 345.644531 C 42.289062 344.933594 41.605469 344.144531 40.855469 344.25 C 36.3125 344.878906 27.644531 344.054688 18.25 337.003906 C 0.0195312 322.191406 21.097656 262.933594 34.769531 235.011719 C 45.511719 213.074219 71.054688 206.5625 83.117188 205.976562 C 83.503906 205.957031 83.839844 206.207031 84 206.5625 C 85.3125 209.539062 89.644531 214.5 98.574219 214.5 Z M 98.574219 214.5 " fill-opacity="1" fill-rule="nonzero"/></g><path fill="#032068" d="M 38.769531 343.1875 C 32.503906 329.875 19.238281 316.714844 12.140625 310.726562 C 11.597656 310.269531 10.785156 310.628906 10.761719 311.339844 C 10.589844 317.464844 11.414062 328.667969 15.96875 335.296875 C 20.621094 342.0625 31.839844 344.121094 37.984375 344.382812 C 38.621094 344.410156 39.039062 343.761719 38.769531 343.1875 Z M 38.769531 343.1875 " fill-opacity="1" fill-rule="nonzero"/><path fill="#032068" d="M 96.863281 309.085938 C 70.886719 335.523438 49.199219 344.035156 41.605469 344.984375 L 40.464844 350.113281 C 62.796875 346.464844 87.371094 321.242188 96.863281 309.085938 Z M 96.863281 309.085938 " fill-opacity="1" fill-rule="nonzero"/><path fill="#ffffff" d="M 103.128906 300.574219 L 103.128906 261.96875 C 103.128906 261.539062 103.441406 261.171875 103.863281 261.097656 L 122.597656 257.976562 C 123.140625 257.886719 123.628906 258.308594 123.621094 258.855469 L 123.078125 296.429688 C 123.070312 296.835938 122.789062 297.183594 122.394531 297.273438 L 104.203125 301.433594 C 103.652344 301.558594 103.128906 301.140625 103.128906 300.574219 Z M 103.128906 300.574219 " fill-opacity="1" fill-rule="nonzero"/><path fill="#032068" d="M 122.453125 257.109375 C 123.535156 256.929688 124.515625 257.773438 124.5 258.871094 L 123.957031 296.441406 C 123.945312 297.253906 123.378906 297.949219 122.589844 298.132812 L 104.402344 302.289062 C 103.300781 302.542969 102.25 301.703125 102.25 300.574219 L 102.25 261.96875 C 102.25 261.109375 102.871094 260.375 103.71875 260.230469 Z M 122.742188 258.84375 L 104.007812 261.96875 L 104.007812 300.574219 L 122.199219 296.414062 Z M 122.742188 258.84375 " fill-opacity="1" fill-rule="evenodd"/><path fill="#032068" d="M 54.136719 289.140625 C 53.226562 290.964844 43.503906 295.601562 38.753906 297.691406 C 43.769531 296.320312 73.125 286.101562 87.175781 281.164062 C 83.191406 281.164062 59.832031 288.003906 59.265625 286.863281 C 58.808594 285.953125 60.59375 274.328125 61.542969 268.628906 C 59.453125 274.707031 55.046875 287.320312 54.136719 289.140625 Z M 54.136719 289.140625 " fill-opacity="1" fill-rule="nonzero"/><path fill="#efcb96" d="M 95.722656 278.886719 C 93.445312 282.53125 90.976562 284.203125 90.027344 284.585938 L 94.015625 297.691406 C 99.140625 294.839844 107.6875 295.410156 113.953125 291.992188 C 120.21875 288.574219 119.078125 272.046875 115.664062 273.1875 C 112.925781 274.101562 106.167969 276.988281 103.128906 278.316406 L 103.128906 270.339844 C 99.140625 272.046875 98.570312 274.328125 95.722656 278.886719 Z M 95.722656 278.886719 " fill-opacity="1" fill-rule="nonzero"/><path fill="#116f59" d="M 131.734375 207.863281 C 127.289062 207.863281 116.425781 218.238281 116.425781 223.175781 C 115.4375 227.128906 141.609375 283.4375 160.867188 293.8125 C 180.128906 304.183594 195.933594 291.339844 194.449219 271.582031 C 192.894531 250.835938 136.890625 207.863281 131.734375 207.863281 Z M 131.734375 207.863281 " fill-opacity="1" fill-rule="nonzero"/><path fill="#032068" d="M 194.449219 270.101562 C 176.277344 274.449219 168.441406 289.367188 166.796875 296.28125 C 171.074219 297.433594 179.140625 301.21875 188.523438 291.835938 C 195.25 285.105469 195.4375 274.710938 194.449219 270.101562 Z M 194.449219 270.101562 " fill-opacity="1" fill-rule="nonzero"/><path fill="#032068" d="M 139.140625 269.609375 C 150.992188 289.367188 161.527344 295.292969 165.3125 295.785156 L 166.300781 302.207031 C 163.339844 301.714844 156.226562 297.269531 145.558594 283.4375 C 130.546875 264.46875 119.386719 235.359375 116.421875 223.175781 C 118.894531 231.574219 124.324219 244.910156 139.140625 269.609375 Z M 139.140625 269.609375 " fill-opacity="1" fill-rule="nonzero"/><path fill="#efcb96" d="M 117.410156 193.125 C 118.105469 194.179688 124.550781 204.703125 127.289062 209.828125 C 124.695312 212.46875 119.246094 217.742188 118.207031 217.742188 C 116.910156 217.742188 109.558594 215.546875 106.535156 211.589844 C 103.507812 207.632812 108.261719 202.796875 108.261719 202.355469 C 108.261719 201.917969 100.480469 198.402344 99.183594 196.644531 C 97.886719 194.882812 99.632812 193.046875 101.609375 193.539062 C 102.738281 193.539062 110.003906 197.492188 112.472656 198.480469 C 113.511719 198.125 114.941406 196.996094 117.410156 193.125 Z M 117.410156 193.125 " fill-opacity="1" fill-rule="nonzero"/><path fill="#032068" d="M 98.644531 196.007812 C 99.039062 198.777344 102.761719 201.113281 104.570312 201.9375 L 106.054688 200.949219 C 105.394531 200.621094 103.582031 199.664062 101.609375 198.480469 C 99.632812 197.292969 98.808594 196.339844 98.644531 196.007812 Z M 98.644531 196.007812 " fill-opacity="1" fill-rule="nonzero"/><path fill="#032068" d="M 105.558594 213.296875 C 102.003906 209.742188 103.75 205.558594 105.066406 203.910156 L 107.535156 203.417969 C 104.570312 208.359375 106.382812 211.652344 107.535156 212.308594 Z M 105.558594 213.296875 " fill-opacity="1" fill-rule="nonzero"/></svg>