<svg xmlns="http://www.w3.org/2000/svg" xmlns:xlink="http://www.w3.org/1999/xlink" width="500" zoomAndPan="magnify" viewBox="0 0 375 374.999991" height="500" preserveAspectRatio="xMidYMid meet" version="1.0"><defs><clipPath id="7afdc427d1"><path d="M 11 27 L 366 27 L 366 355.734375 L 11 355.734375 Z M 11 27 " clip-rule="nonzero"/></clipPath></defs><g clip-path="url(#7afdc427d1)"><path fill="#e7e8ff" d="M 111.207031 355.699219 L 276.71875 355.699219 C 295.808594 355.699219 314.234375 348.726562 328.539062 336.097656 L 345.632812 321.003906 C 374.679688 295.359375 372.25 249.359375 340.660156 226.914062 C 315.238281 208.847656 307.84375 174.355469 323.625 147.464844 L 325.410156 144.425781 C 339.675781 120.117188 336.351562 89.339844 317.222656 68.636719 L 294.152344 43.664062 C 271.34375 18.980469 231.421875 22.195312 212.863281 50.214844 C 198.753906 71.523438 171.207031 79.363281 147.984375 68.679688 L 137.898438 64.042969 C 108.925781 50.714844 74.5625 60.449219 56.894531 86.984375 L 45.566406 103.996094 C 34.359375 120.828125 32.988281 142.355469 41.96875 160.472656 C 52.289062 181.296875 48.824219 206.316406 33.226562 223.554688 L 28.679688 228.578125 C 0.289062 259.953125 8.011719 309.492188 44.609375 330.746094 L 67.152344 343.835938 C 80.535156 351.605469 95.734375 355.699219 111.207031 355.699219 Z M 111.207031 355.699219 " fill-opacity="1" fill-rule="nonzero"/></g><path fill="#032068" d="M 356.097656 307.351562 C 356.375 328.566406 341.925781 346.480469 334.589844 352.753906 L 323.34375 352.753906 C 331.703125 324.445312 345.523438 310.371094 353.269531 305.6875 C 354.5625 304.90625 356.078125 305.84375 356.097656 307.351562 Z M 356.097656 307.351562 " fill-opacity="1" fill-rule="nonzero"/><path fill="#ffffff" d="M 357.285156 237.742188 C 368.808594 281.121094 339.765625 332.503906 327.277344 351.628906 L 301.972656 351.628906 C 312.84375 269.777344 331.066406 249.882812 354.101562 236.441406 C 355.339844 235.71875 356.917969 236.355469 357.285156 237.742188 Z M 357.285156 237.742188 " fill-opacity="1" fill-rule="nonzero"/><path fill="#032068" d="M 354.667969 237.414062 C 355.277344 237.058594 356.023438 237.378906 356.199219 238.03125 C 361.875 259.402344 357.574219 282.835938 350.226562 303.402344 C 343.015625 323.585938 332.914062 340.871094 326.667969 350.503906 L 303.257812 350.503906 C 308.667969 310.371094 315.859375 285.441406 324.472656 268.902344 C 333.144531 252.246094 343.285156 244.054688 354.667969 237.414062 Z M 358.371094 237.453125 C 357.808594 235.335938 355.402344 234.378906 353.535156 235.46875 C 341.878906 242.269531 331.390625 250.746094 322.476562 267.859375 C 313.59375 284.917969 306.300781 310.503906 300.859375 351.480469 L 300.6875 352.753906 L 327.886719 352.753906 L 328.21875 352.242188 C 334.492188 342.640625 344.921875 324.929688 352.34375 304.160156 C 359.757812 283.410156 364.21875 259.460938 358.371094 237.453125 Z M 358.371094 237.453125 " fill-opacity="1" fill-rule="evenodd"/><path fill="#032068" d="M 316.484375 264.429688 C 326.4375 300.785156 315.046875 338.566406 307.597656 352.753906 L 289.039062 352.753906 C 284.867188 308.449219 301.832031 276.226562 312.984375 263.5625 C 314.085938 262.3125 316.046875 262.824219 316.484375 264.429688 Z M 316.484375 264.429688 " fill-opacity="1" fill-rule="nonzero"/><path fill="#032068" d="M 341.53125 268.609375 L 347.585938 251.578125 L 349.703125 252.332031 L 335.839844 291.34375 L 344.949219 288.605469 L 345.59375 290.761719 L 334.902344 293.976562 L 322.292969 329.457031 L 333.644531 325.230469 L 334.425781 327.34375 L 321.308594 332.226562 L 314.277344 352.007812 L 312.160156 351.25 L 326.4375 311.082031 L 321.15625 296.257812 L 323.277344 295.5 L 327.628906 307.726562 L 340.257812 272.199219 L 336.320312 259.035156 L 338.476562 258.390625 Z M 341.53125 268.609375 " fill-opacity="1" fill-rule="evenodd"/><path fill="#ffffff" d="M 306.996094 293.460938 L 309.863281 277.65625 L 312.078125 278.0625 L 306.253906 310.136719 L 313.820312 306.144531 L 314.867188 308.136719 L 305.742188 312.949219 L 300.746094 340.460938 L 307.003906 335.539062 L 308.394531 337.308594 L 300.140625 343.804688 L 298.582031 352.394531 L 296.367188 351.988281 L 300.367188 329.957031 L 293.769531 321.34375 L 295.554688 319.972656 L 300.910156 326.964844 L 306.492188 296.230469 L 301.148438 290.449219 L 302.796875 288.917969 Z M 306.996094 293.460938 " fill-opacity="1" fill-rule="evenodd"/><path fill="#ffffff" d="M 108.457031 86.609375 L 112.78125 87.65625 C 113.550781 87.84375 113.628906 88.90625 112.894531 89.203125 L 108.863281 90.828125 C 108.621094 90.925781 108.4375 91.136719 108.375 91.390625 L 107.257812 96.011719 C 107.074219 96.753906 106.0625 96.859375 105.730469 96.171875 L 103.644531 91.84375 C 103.542969 91.632812 103.355469 91.472656 103.132812 91.410156 L 98.050781 89.976562 C 97.292969 89.765625 97.246094 88.710938 97.980469 88.433594 L 102.601562 86.660156 C 102.828125 86.574219 103.003906 86.394531 103.082031 86.167969 L 104.835938 81.074219 C 105.09375 80.328125 106.160156 80.347656 106.386719 81.109375 L 107.867188 86.050781 C 107.949219 86.328125 108.175781 86.539062 108.457031 86.609375 Z M 108.457031 86.609375 " fill-opacity="1" fill-rule="nonzero"/><path fill="#ffffff" d="M 73.878906 129.253906 L 74.996094 130.15625 C 75.609375 130.65625 75.222656 131.652344 74.433594 131.601562 L 73.039062 131.519531 C 72.777344 131.503906 72.523438 131.613281 72.355469 131.820312 L 71.257812 133.171875 C 70.777344 133.765625 69.8125 133.425781 69.808594 132.660156 L 69.800781 130.867188 C 69.800781 130.632812 69.699219 130.410156 69.523438 130.257812 L 68.015625 128.9375 C 67.425781 128.421875 67.832031 127.449219 68.617188 127.511719 L 70.414062 127.652344 C 70.65625 127.671875 70.890625 127.582031 71.0625 127.410156 L 72.484375 125.960938 C 73.039062 125.394531 73.992188 125.875 73.871094 126.65625 L 73.585938 128.496094 C 73.542969 128.78125 73.652344 129.070312 73.878906 129.253906 Z M 73.878906 129.253906 " fill-opacity="1" fill-rule="nonzero"/><path fill="#116f59" d="M 343.808594 195.34375 L 340.570312 199.738281 C 340.371094 200.003906 340.050781 200.132812 339.734375 200.070312 L 335.730469 199.277344 C 334.871094 199.105469 334.351562 200.253906 335.015625 200.859375 L 338.164062 203.71875 C 338.390625 203.925781 338.5 204.25 338.449219 204.566406 L 337.660156 209.285156 C 337.511719 210.171875 338.542969 210.71875 339.125 210.066406 L 342.359375 206.4375 C 342.546875 206.226562 342.824219 206.125 343.097656 206.164062 L 346.839844 206.703125 C 347.679688 206.824219 348.160156 205.710938 347.515625 205.117188 L 344.734375 202.546875 C 344.511719 202.34375 344.40625 202.027344 344.453125 201.71875 L 345.332031 196.050781 C 345.472656 195.121094 344.355469 194.605469 343.808594 195.34375 Z M 343.808594 195.34375 " fill-opacity="1" fill-rule="nonzero"/><path fill="#ffffff" d="M 147.96875 79.027344 C 147.96875 72.523438 153.246094 67.253906 159.753906 67.253906 L 293.8125 67.253906 C 300.320312 67.253906 305.597656 72.523438 305.597656 79.027344 L 305.597656 340.941406 C 305.597656 347.445312 300.320312 352.714844 293.8125 352.714844 L 159.753906 352.714844 C 153.246094 352.714844 147.96875 347.445312 147.96875 340.941406 Z M 147.96875 79.027344 " fill-opacity="1" fill-rule="nonzero"/><path fill="#032068" d="M 146.988281 79.027344 C 146.988281 71.980469 152.703125 66.269531 159.753906 66.269531 L 293.8125 66.269531 C 300.863281 66.269531 306.582031 71.980469 306.582031 79.027344 L 306.582031 340.941406 C 306.582031 347.984375 300.863281 353.695312 293.8125 353.695312 L 159.753906 353.695312 C 152.703125 353.695312 146.988281 347.984375 146.988281 340.941406 Z M 159.753906 68.234375 C 153.789062 68.234375 148.953125 73.066406 148.953125 79.027344 L 148.953125 340.941406 C 148.953125 346.902344 153.789062 351.734375 159.753906 351.734375 L 293.8125 351.734375 C 299.78125 351.734375 304.617188 346.902344 304.617188 340.941406 L 304.617188 79.027344 C 304.617188 73.066406 299.78125 68.234375 293.8125 68.234375 Z M 159.753906 68.234375 " fill-opacity="1" fill-rule="evenodd"/><path fill="#e7e8ff" d="M 272.679688 172.21875 C 272.679688 197.6875 252.019531 218.335938 226.527344 218.335938 C 201.039062 218.335938 180.375 197.6875 180.375 172.21875 C 180.375 146.75 201.039062 126.105469 226.527344 126.105469 C 252.019531 126.105469 272.679688 146.75 272.679688 172.21875 Z M 272.679688 172.21875 " fill-opacity="1" fill-rule="nonzero"/><path fill="#032068" d="M 195.441406 76.824219 L 190.332031 67.25 L 263.234375 67.25 L 257.230469 77.253906 C 255.457031 80.207031 252.257812 82.015625 248.808594 82.015625 L 204.105469 82.015625 C 200.480469 82.015625 197.148438 80.019531 195.441406 76.824219 Z M 195.441406 76.824219 " fill-opacity="1" fill-rule="nonzero"/><path fill="#032068" d="M 303.664062 73.15625 L 148.898438 73.15625 C 154.019531 68.039062 158.914062 67.085938 160.71875 67.25 L 291.84375 67.25 C 298.148438 67.25 302.351562 71.1875 303.664062 73.15625 Z M 303.664062 73.15625 " fill-opacity="1" fill-rule="nonzero"/><path fill="#032068" d="M 303.546875 347.117188 L 149.933594 347.117188 C 155.257812 352.320312 158.335938 353.285156 160.210938 353.121094 L 293.269531 353.121094 C 299.820312 353.121094 302.179688 349.121094 303.546875 347.117188 Z M 303.546875 347.117188 " fill-opacity="1" fill-rule="nonzero"/><path fill="#116f59" d="M 170.554688 104.519531 C 170.554688 103.433594 171.433594 102.558594 172.519531 102.558594 L 224.816406 102.558594 C 225.898438 102.558594 226.777344 103.433594 226.777344 104.519531 L 226.777344 106.613281 C 226.777344 107.699219 225.898438 108.574219 224.816406 108.574219 L 172.519531 108.574219 C 171.433594 108.574219 170.554688 107.699219 170.554688 106.613281 Z M 170.554688 104.519531 " fill-opacity="1" fill-rule="nonzero"/><path fill="#032068" d="M 170.554688 236.976562 C 170.554688 235.894531 171.433594 235.015625 172.519531 235.015625 L 224.816406 235.015625 C 225.898438 235.015625 226.777344 235.894531 226.777344 236.976562 L 226.777344 239.070312 C 226.777344 240.15625 225.898438 241.03125 224.816406 241.03125 L 172.519531 241.03125 C 171.433594 241.03125 170.554688 240.15625 170.554688 239.070312 Z M 170.554688 236.976562 " fill-opacity="1" fill-rule="nonzero"/><path fill="#032068" d="M 170.554688 288.976562 C 170.554688 287.894531 171.433594 287.015625 172.519531 287.015625 L 203.941406 287.015625 C 205.027344 287.015625 205.90625 287.894531 205.90625 288.976562 L 205.90625 290.941406 C 205.90625 292.023438 205.027344 292.902344 203.941406 292.902344 L 172.519531 292.902344 C 171.433594 292.902344 170.554688 292.023438 170.554688 290.941406 Z M 170.554688 288.976562 " fill-opacity="1" fill-rule="nonzero"/><path fill="#e7e8ff" d="M 170.554688 251.695312 C 170.554688 250.609375 171.433594 249.730469 172.519531 249.730469 L 277.589844 249.730469 C 278.675781 249.730469 279.554688 250.609375 279.554688 251.695312 L 279.554688 271.316406 C 279.554688 272.402344 278.675781 273.28125 277.589844 273.28125 L 172.519531 273.28125 C 171.433594 273.28125 170.554688 272.402344 170.554688 271.316406 Z M 170.554688 251.695312 " fill-opacity="1" fill-rule="nonzero"/><path fill="#e7e8ff" d="M 170.554688 302.714844 C 170.554688 301.632812 171.433594 300.753906 172.519531 300.753906 L 277.589844 300.753906 C 278.675781 300.753906 279.554688 301.632812 279.554688 302.714844 L 279.554688 322.339844 C 279.554688 323.421875 278.675781 324.300781 277.589844 324.300781 L 172.519531 324.300781 C 171.433594 324.300781 170.554688 323.421875 170.554688 322.339844 Z M 170.554688 302.714844 " fill-opacity="1" fill-rule="nonzero"/><path fill="#032068" d="M 292.566406 81.28125 L 294.53125 81.28125 L 294.53125 89.304688 L 292.566406 89.304688 Z M 292.566406 81.28125 " fill-opacity="1" fill-rule="evenodd"/><path fill="#032068" d="M 287.546875 82.28125 L 289.511719 82.28125 L 289.511719 89.304688 L 287.546875 89.304688 Z M 287.546875 82.28125 " fill-opacity="1" fill-rule="evenodd"/><path fill="#032068" d="M 282.527344 84.289062 L 284.492188 84.289062 L 284.492188 89.304688 L 282.527344 89.304688 Z M 282.527344 84.289062 " fill-opacity="1" fill-rule="evenodd"/><path fill="#032068" d="M 277.507812 86.296875 L 279.472656 86.296875 L 279.472656 89.304688 L 277.507812 89.304688 Z M 277.507812 86.296875 " fill-opacity="1" fill-rule="evenodd"/><path fill="#ffffff" d="M 226.96875 172.777344 C 213.980469 172.777344 203.277344 182.707031 201.839844 195.488281 C 201.65625 197.105469 202.996094 198.425781 204.621094 198.425781 L 249.320312 198.425781 C 250.949219 198.425781 252.285156 197.105469 252.101562 195.488281 C 250.664062 182.707031 239.960938 172.777344 226.96875 172.777344 Z M 226.96875 172.777344 " fill-opacity="1" fill-rule="nonzero"/><path fill="#ffffff" d="M 239.429688 157.6875 C 239.429688 164.351562 234.019531 169.757812 227.347656 169.757812 C 220.675781 169.757812 215.265625 164.351562 215.265625 157.6875 C 215.265625 151.019531 220.675781 145.613281 227.347656 145.613281 C 234.019531 145.613281 239.429688 151.019531 239.429688 157.6875 Z M 239.429688 157.6875 " fill-opacity="1" fill-rule="nonzero"/><path fill="#efcb96" d="M 124.488281 196.785156 L 128.476562 209.117188 C 130.074219 214.910156 124.488281 221.015625 111.1875 221.015625 C 100.546875 221.015625 98.421875 214.945312 98.957031 210.027344 L 102.144531 193.097656 C 99.484375 190.464844 97.355469 188.886719 97.355469 176.242188 C 97.355469 160.441406 105.867188 154.648438 115.976562 154.648438 C 126.082031 154.648438 134.59375 163.066406 134.59375 178.351562 C 134.59375 191.519531 127.5 195.730469 124.488281 196.785156 Z M 124.488281 196.785156 " fill-opacity="1" fill-rule="nonzero"/><path fill="#032068" d="M 149.730469 185.234375 C 157.644531 193.480469 156.582031 213.785156 155.367188 219.972656 C 142.550781 210.476562 133.875 207.332031 129.382812 206.96875 C 128.660156 206.910156 128.527344 208.589844 128.023438 208.664062 L 124.210938 196.058594 C 129.941406 194.511719 133.585938 189.359375 134.105469 177.503906 C 134.523438 168.015625 129.765625 161.523438 127.335938 159.460938 C 119.003906 158.945312 114.839844 169.253906 112.234375 173.378906 C 110.152344 176.675781 108.589844 176.128906 108.070312 175.441406 C 105.464844 169.253906 100.777344 168.738281 99.738281 175.441406 C 98.90625 180.800781 102.863281 183.515625 104.945312 184.203125 L 98.957031 210.484375 C 98.253906 210.523438 97.59375 208.207031 97.59375 207.175781 C 86.464844 208.410156 74.238281 214.289062 70.589844 216.730469 C 69.027344 200.234375 84.117188 187.8125 88.28125 177.503906 C 92.449219 167.191406 86.71875 162.039062 90.886719 155.335938 C 93.972656 150.371094 99.738281 149.664062 103.382812 148.632812 C 107.027344 147.605469 109.109375 143.480469 113.277344 141.417969 C 120.566406 138.839844 127.511719 145.199219 129.421875 149.664062 C 130.632812 149.492188 134.105469 149.972656 138.273438 153.273438 C 150.25 161.523438 139.835938 174.925781 149.730469 185.234375 Z M 149.730469 185.234375 " fill-opacity="1" fill-rule="nonzero"/><path fill="#032068" d="M 113.90625 196.128906 C 120.113281 197.582031 123.734375 197.035156 124.765625 196.582031 L 126.320312 201.574219 C 119.699219 202.296875 115.285156 198.246094 113.90625 196.128906 Z M 113.90625 196.128906 " fill-opacity="1" fill-rule="nonzero"/><path fill="#116f59" d="M 112.515625 216.242188 C 122.960938 216.242188 127.863281 209.8125 129.007812 206.597656 C 148.9375 206.597656 165.429688 220.378906 172.988281 230.023438 C 180.546875 239.667969 208.722656 290.648438 201.851562 311.3125 C 196.355469 327.847656 183.066406 330.375 175.738281 329.226562 L 176.953125 351.144531 C 177.039062 352.710938 175.796875 354.027344 174.230469 354.027344 L 73.34375 354.027344 C 62.808594 354.714844 39.808594 354.992188 32.113281 350.582031 C 22.492188 345.070312 13.558594 316.828125 32.113281 261.023438 C 46.957031 216.382812 81.820312 206.140625 97.394531 206.597656 C 98.082031 209.8125 102.070312 216.242188 112.515625 216.242188 Z M 112.515625 216.242188 " fill-opacity="1" fill-rule="nonzero"/><path fill="#032068" d="M 62.472656 354.070312 C 45.90625 333.828125 28.386719 326.605469 21.699219 325.523438 C 21.699219 332.011719 24.9375 344.335938 30.761719 350.175781 C 35.421875 354.847656 53.84375 354.71875 62.472656 354.070312 Z M 62.472656 354.070312 " fill-opacity="1" fill-rule="nonzero"/><path fill="#032068" d="M 190.609375 326.820312 C 201.480469 322.667969 203.335938 307.789062 202.90625 300.871094 C 193.066406 305.539062 179.824219 321.414062 174.429688 328.765625 C 175.292969 329.847656 179.738281 330.972656 190.609375 326.820312 Z M 190.609375 326.820312 " fill-opacity="1" fill-rule="nonzero"/><path fill="#032068" d="M 111.140625 279.625 C 106.332031 281.691406 70.597656 298.453125 54.105469 306.492188 C 56.164062 303.046875 64.410156 297.535156 66.472656 295.46875 C 68.535156 293.402344 76.09375 269.289062 76.09375 272.734375 C 76.09375 276.179688 71.972656 292.027344 74.03125 292.027344 C 76.09375 292.027344 104.957031 279.625 111.140625 279.625 Z M 111.140625 279.625 " fill-opacity="1" fill-rule="nonzero"/><path fill="#032068" d="M 125.574219 299.601562 C 96.433594 338.734375 72.65625 352.648438 64.410156 354.71875 L 78.84375 354.71875 C 103.582031 335.425781 120.304688 309.9375 125.574219 299.601562 Z M 125.574219 299.601562 " fill-opacity="1" fill-rule="nonzero"/><path fill="#032068" d="M 161.304688 292.714844 C 162.40625 305.941406 171.84375 322.566406 176.425781 329.226562 L 176.425781 335.425781 C 165.980469 323.851562 161.992188 302.128906 161.304688 292.714844 Z M 161.304688 292.714844 " fill-opacity="1" fill-rule="nonzero"/><path fill="#032068" d="M 174.363281 274.113281 C 178.210938 276.316406 185.128906 281.460938 188.109375 283.757812 L 177.113281 270.667969 C 176.5625 272.875 175.050781 273.882812 174.363281 274.113281 Z M 174.363281 274.113281 " fill-opacity="1" fill-rule="nonzero"/><path fill="#ffffff" d="M 133.742188 248.695312 L 128.445312 300.46875 C 128.382812 301.070312 128.914062 301.5625 129.507812 301.457031 L 154.480469 296.960938 C 154.863281 296.894531 155.160156 296.585938 155.21875 296.199219 L 162.515625 246.992188 C 162.601562 246.414062 162.132812 245.90625 161.550781 245.949219 L 134.578125 247.878906 C 134.140625 247.910156 133.785156 248.253906 133.742188 248.695312 Z M 133.742188 248.695312 " fill-opacity="1" fill-rule="nonzero"/><path fill="#032068" d="M 161.484375 245.039062 C 162.644531 244.957031 163.582031 245.972656 163.414062 247.125 L 156.117188 296.335938 C 156 297.109375 155.40625 297.722656 154.640625 297.859375 L 129.667969 302.351562 C 128.480469 302.566406 127.417969 301.578125 127.539062 300.375 L 132.835938 248.601562 C 132.925781 247.722656 133.632812 247.035156 134.515625 246.972656 Z M 161.617188 246.855469 L 134.644531 248.789062 L 129.347656 300.558594 L 154.320312 296.066406 Z M 161.617188 246.855469 " fill-opacity="1" fill-rule="evenodd"/><path fill="#efcb96" d="M 169.554688 274.113281 L 161.308594 286.515625 C 150.3125 287.203125 148.25 281.003906 150.3125 271.359375 C 151.960938 263.640625 158.101562 263.550781 160.621094 264.46875 L 161.992188 258.957031 C 169.554688 265.15625 169.554688 271.128906 169.554688 274.113281 Z M 169.554688 274.113281 " fill-opacity="1" fill-rule="nonzero"/><path fill="#efcb96" d="M 121.449219 272.734375 C 119.800781 277.144531 116.636719 280.085938 115.265625 281.003906 L 124.199219 294.78125 C 126.945312 292.027344 130.382812 292.027344 137.941406 288.582031 C 145.5 285.136719 147.5625 272.734375 145.5 265.847656 C 143.851562 260.335938 134.277344 264.46875 130.382812 267.226562 L 131.070312 259.648438 C 126.257812 261.714844 123.511719 267.226562 121.449219 272.734375 Z M 121.449219 272.734375 " fill-opacity="1" fill-rule="nonzero"/><path fill="#ffffff" d="M 361.058594 143.765625 C 361.058594 162.191406 346.113281 177.125 327.671875 177.125 C 309.234375 177.125 294.285156 162.191406 294.285156 143.765625 C 294.285156 125.339844 309.234375 110.40625 327.671875 110.40625 C 346.113281 110.40625 361.058594 125.339844 361.058594 143.765625 Z M 361.058594 143.765625 " fill-opacity="1" fill-rule="nonzero"/><path fill="#032068" d="M 327.671875 111.226562 C 309.6875 111.226562 295.105469 125.792969 295.105469 143.765625 C 295.105469 161.738281 309.6875 176.304688 327.671875 176.304688 C 345.660156 176.304688 360.238281 161.738281 360.238281 143.765625 C 360.238281 125.792969 345.660156 111.226562 327.671875 111.226562 Z M 293.464844 143.765625 C 293.464844 124.890625 308.78125 109.585938 327.671875 109.585938 C 346.566406 109.585938 361.878906 124.890625 361.878906 143.765625 C 361.878906 162.644531 346.566406 177.945312 327.671875 177.945312 C 308.78125 177.945312 293.464844 162.644531 293.464844 143.765625 Z M 293.464844 143.765625 " fill-opacity="1" fill-rule="evenodd"/><path fill="#032068" d="M 328.066406 123.113281 C 321.703125 123.113281 316.539062 128.355469 316.539062 134.820312 L 316.539062 142.839844 C 316.539062 143.789062 317.3125 144.558594 318.265625 144.558594 C 319.214844 144.558594 319.988281 143.789062 319.988281 142.839844 L 319.988281 134.601562 C 319.988281 130.070312 323.605469 126.398438 328.066406 126.398438 C 332.527344 126.398438 336.148438 130.070312 336.148438 134.601562 L 336.148438 142.410156 C 336.148438 143.359375 336.917969 144.128906 337.871094 144.128906 C 338.820312 144.128906 339.59375 143.359375 339.59375 142.410156 L 339.59375 134.820312 C 339.59375 128.355469 334.433594 123.113281 328.066406 123.113281 Z M 328.066406 123.113281 " fill-opacity="1" fill-rule="evenodd"/><path fill="#116f59" d="M 313.359375 143.050781 C 313.359375 141.691406 314.464844 140.589844 315.824219 140.589844 L 340.308594 140.589844 C 341.671875 140.589844 342.773438 141.691406 342.773438 143.050781 L 342.773438 161.160156 C 342.773438 162.519531 341.671875 163.621094 340.308594 163.621094 L 315.824219 163.621094 C 314.464844 163.621094 313.359375 162.519531 313.359375 161.160156 Z M 313.359375 143.050781 " fill-opacity="1" fill-rule="nonzero"/><path fill="#ffffff" d="M 329.941406 153.058594 C 330.625 152.511719 331.058594 151.671875 331.058594 150.726562 C 331.058594 149.074219 329.71875 147.738281 328.066406 147.738281 C 326.414062 147.738281 325.074219 149.074219 325.074219 150.726562 C 325.074219 151.753906 325.589844 152.660156 326.378906 153.199219 L 325.710938 156 C 325.613281 156.417969 325.929688 156.820312 326.359375 156.820312 L 329.996094 156.820312 C 330.425781 156.820312 330.742188 156.417969 330.644531 156 Z M 329.941406 153.058594 " fill-opacity="1" fill-rule="evenodd"/></svg>