<svg xmlns="http://www.w3.org/2000/svg" xmlns:xlink="http://www.w3.org/1999/xlink" width="500" zoomAndPan="magnify" viewBox="0 0 375 374.999991" height="500" preserveAspectRatio="xMidYMid meet" version="1.0"><defs><clipPath id="75228d40ea"><path d="M 104 202 L 260 202 L 260 335.703125 L 104 335.703125 Z M 104 202 " clip-rule="nonzero"/></clipPath></defs><path fill="#e7e8ff" d="M 96.949219 334.5625 L 295.308594 334.5625 C 332.914062 334.5625 354.695312 292.003906 332.679688 261.546875 C 319.382812 243.152344 321.480469 217.824219 337.625 201.859375 L 344.761719 194.800781 C 374.800781 165.09375 363.835938 114.28125 324.214844 99.578125 L 184.332031 47.660156 C 162.214844 39.449219 138.292969 54.3125 135.886719 77.757812 C 133.910156 97.011719 117.058594 111.269531 97.722656 110.042969 L 88.191406 109.4375 C 61.695312 107.757812 39.28125 128.777344 39.28125 155.300781 L 39.28125 173.96875 C 39.28125 188.585938 34.117188 202.894531 24.871094 214.222656 C 1.9375 242.320312 5.894531 284.097656 34.105469 306.902344 L 46.074219 316.574219 C 60.472656 328.214844 78.429688 334.5625 96.949219 334.5625 Z M 96.949219 334.5625 " fill-opacity="1" fill-rule="nonzero"/><path fill="#032068" d="M 292.292969 291.464844 C 280.40625 290.683594 269.839844 320.195312 266.539062 334.5625 L 274.464844 334.5625 C 285.027344 320.847656 304.179688 292.25 292.292969 291.464844 Z M 292.292969 291.464844 " fill-opacity="1" fill-rule="nonzero"/><path fill="#ffffff" d="M 289.320312 247.878906 C 269.117188 245.921875 259.773438 304.199219 257.625 333.582031 L 271.988281 333.582031 C 286.1875 305.832031 309.527344 249.839844 289.320312 247.878906 Z M 289.320312 247.878906 " fill-opacity="1" fill-rule="nonzero"/><path fill="#032068" d="M 258.511719 332.769531 L 271.484375 332.769531 C 278.542969 318.917969 287.753906 298.289062 292.765625 280.839844 C 295.300781 272.003906 296.734375 264.066406 296.316406 258.253906 C 296.105469 255.351562 295.4375 253.0625 294.289062 251.457031 C 293.167969 249.886719 291.542969 248.914062 289.242188 248.691406 C 284.660156 248.246094 280.53125 251.191406 276.832031 256.757812 C 273.152344 262.304688 270.050781 270.226562 267.492188 279.199219 C 262.480469 296.773438 259.628906 318.125 258.511719 332.769531 Z M 275.460938 255.867188 C 279.261719 250.140625 283.882812 246.539062 289.402344 247.074219 C 292.152344 247.339844 294.21875 248.542969 295.632812 250.519531 C 297.019531 252.460938 297.734375 255.082031 297.953125 258.136719 C 298.394531 264.242188 296.894531 272.40625 294.347656 281.28125 C 289.242188 299.0625 279.832031 320.050781 272.722656 333.949219 L 272.492188 334.394531 L 256.742188 334.394531 L 256.804688 333.523438 C 257.882812 318.800781 260.757812 296.828125 265.910156 278.757812 C 268.484375 269.730469 271.640625 261.617188 275.460938 255.867188 Z M 275.460938 255.867188 " fill-opacity="1" fill-rule="evenodd"/><path fill="#032068" d="M 287.140625 260.347656 L 277.742188 292.757812 L 285.988281 288.777344 L 286.710938 290.238281 L 277.132812 294.863281 L 265.84375 333.804688 L 264.265625 333.359375 L 269.890625 313.953125 L 266.253906 302.984375 L 267.816406 302.476562 L 270.695312 311.167969 L 280.226562 278.296875 L 275.6875 267.789062 L 277.199219 267.152344 L 280.945312 275.820312 L 285.558594 259.898438 Z M 287.140625 260.347656 " fill-opacity="1" fill-rule="evenodd"/><path fill="#ffffff" d="M 129.320312 108.332031 C 129.320312 123.207031 117.269531 135.269531 102.398438 135.269531 C 97.265625 135.269531 92.464844 133.828125 88.382812 131.332031 L 80.367188 134.175781 C 79.027344 134.652344 77.691406 133.46875 77.996094 132.082031 L 79.953125 123.207031 C 77.125 118.945312 75.476562 113.832031 75.476562 108.332031 C 75.476562 93.453125 87.53125 81.394531 102.398438 81.394531 C 117.269531 81.394531 129.320312 93.453125 129.320312 108.332031 Z M 129.320312 108.332031 " fill-opacity="1" fill-rule="nonzero"/><path fill="#032068" d="M 102.398438 81.996094 C 116.933594 81.996094 128.71875 93.785156 128.71875 108.332031 C 128.71875 122.875 116.933594 134.664062 102.398438 134.664062 C 97.378906 134.664062 92.6875 133.257812 88.695312 130.816406 L 88.453125 130.667969 L 80.167969 133.609375 C 79.273438 133.925781 78.382812 133.136719 78.585938 132.210938 L 80.597656 123.089844 L 80.457031 122.875 C 77.691406 118.707031 76.078125 113.707031 76.078125 108.332031 C 76.078125 93.785156 87.863281 81.996094 102.398438 81.996094 Z M 129.925781 108.332031 C 129.925781 93.121094 117.601562 80.789062 102.398438 80.789062 C 87.199219 80.789062 74.875 93.121094 74.875 108.332031 C 74.875 113.859375 76.503906 119.011719 79.308594 123.328125 L 77.40625 131.949219 C 77 133.800781 78.785156 135.378906 80.570312 134.746094 L 88.316406 131.996094 C 92.433594 134.457031 97.253906 135.871094 102.398438 135.871094 C 117.601562 135.871094 129.925781 123.539062 129.925781 108.332031 Z M 129.925781 108.332031 " fill-opacity="1" fill-rule="evenodd"/><path fill="#116f59" d="M 102.269531 107.613281 C 109.792969 107.613281 115.996094 113.347656 116.875 120.746094 C 116.996094 121.738281 116.171875 122.554688 115.171875 122.554688 L 89.367188 122.554688 C 88.371094 122.554688 87.546875 121.738281 87.664062 120.746094 C 88.542969 113.347656 94.746094 107.613281 102.269531 107.613281 Z M 102.269531 107.613281 " fill-opacity="1" fill-rule="nonzero"/><path fill="#116f59" d="M 95.335938 98.871094 C 95.335938 102.753906 98.480469 105.898438 102.363281 105.898438 C 106.242188 105.898438 109.390625 102.753906 109.390625 98.871094 C 109.390625 94.988281 106.242188 91.839844 102.363281 91.839844 C 98.480469 91.839844 95.335938 94.988281 95.335938 98.871094 Z M 95.335938 98.871094 " fill-opacity="1" fill-rule="nonzero"/><path fill="#ffffff" d="M 217.660156 91.035156 L 217.464844 85.332031 C 217.429688 84.3125 218.71875 83.851562 219.335938 84.65625 L 222.734375 89.074219 C 222.941406 89.339844 223.261719 89.492188 223.601562 89.480469 L 229.695312 89.269531 C 230.675781 89.234375 231.160156 90.453125 230.421875 91.101562 L 225.789062 95.171875 C 225.566406 95.371094 225.433594 95.652344 225.433594 95.953125 L 225.414062 102.730469 C 225.410156 103.734375 224.128906 104.15625 223.53125 103.351562 L 219.746094 98.25 C 219.5625 98 219.277344 97.84375 218.96875 97.828125 L 212.074219 97.417969 C 211.058594 97.359375 210.71875 96.035156 211.578125 95.492188 L 217.175781 91.957031 C 217.488281 91.757812 217.675781 91.40625 217.660156 91.035156 Z M 217.660156 91.035156 " fill-opacity="1" fill-rule="nonzero"/><path fill="#ffffff" d="M 282.289062 119.023438 L 283.023438 117.332031 C 283.425781 116.402344 284.789062 116.535156 285.003906 117.527344 L 285.378906 119.277344 C 285.449219 119.609375 285.675781 119.882812 285.984375 120.019531 L 288.035156 120.910156 C 288.9375 121.300781 288.847656 122.605469 287.90625 122.875 L 285.691406 123.503906 C 285.402344 123.585938 285.164062 123.785156 285.035156 124.054688 L 283.921875 126.378906 C 283.488281 127.285156 282.148438 127.117188 281.953125 126.128906 L 281.507812 123.855469 C 281.449219 123.550781 281.257812 123.289062 280.984375 123.140625 L 278.703125 121.882812 C 277.8125 121.394531 278.074219 120.050781 279.082031 119.929688 L 281.453125 119.644531 C 281.824219 119.601562 282.140625 119.367188 282.289062 119.023438 Z M 282.289062 119.023438 " fill-opacity="1" fill-rule="nonzero"/><path fill="#032068" d="M 182.027344 114.230469 C 151.203125 114.230469 126.214844 139.242188 126.214844 170.097656 L 126.214844 213.097656 C 126.214844 215.011719 127.765625 216.566406 129.679688 216.566406 L 139.441406 216.566406 C 141.355469 216.566406 142.90625 215.011719 142.90625 213.097656 L 142.90625 169.054688 C 142.90625 147.425781 160.421875 129.894531 182.027344 129.894531 C 203.636719 129.894531 221.152344 147.425781 221.152344 169.054688 L 221.152344 180.726562 C 221.152344 182.644531 222.703125 184.195312 224.613281 184.195312 L 234.378906 184.195312 C 236.292969 184.195312 237.84375 182.644531 237.84375 180.726562 L 237.84375 170.097656 C 237.84375 139.242188 212.855469 114.230469 182.027344 114.230469 Z M 182.027344 114.230469 " fill-opacity="1" fill-rule="evenodd"/><path fill="#ffffff" d="M 105.351562 207.5 C 105.351562 205.585938 106.898438 204.035156 108.8125 204.035156 L 255.246094 204.035156 C 257.15625 204.035156 258.707031 205.585938 258.707031 207.5 L 258.707031 331.09375 C 258.707031 333.007812 257.15625 334.5625 255.246094 334.5625 L 108.8125 334.5625 C 106.898438 334.5625 105.351562 333.007812 105.351562 331.09375 Z M 105.351562 207.5 " fill-opacity="1" fill-rule="nonzero"/><g clip-path="url(#75228d40ea)"><path fill="#032068" d="M 104.195312 207.5 C 104.195312 204.949219 106.261719 202.878906 108.8125 202.878906 L 255.246094 202.878906 C 257.796875 202.878906 259.863281 204.949219 259.863281 207.5 L 259.863281 331.09375 C 259.863281 333.648438 257.796875 335.714844 255.246094 335.714844 L 108.8125 335.714844 C 106.261719 335.714844 104.195312 333.648438 104.195312 331.09375 Z M 108.8125 205.191406 C 107.539062 205.191406 106.503906 206.226562 106.503906 207.5 L 106.503906 331.09375 C 106.503906 332.371094 107.539062 333.40625 108.8125 333.40625 L 255.246094 333.40625 C 256.519531 333.40625 257.554688 332.371094 257.554688 331.09375 L 257.554688 207.5 C 257.554688 206.226562 256.519531 205.191406 255.246094 205.191406 Z M 108.8125 205.191406 " fill-opacity="1" fill-rule="evenodd"/></g><path fill="#116f59" d="M 190.851562 272.976562 C 194.058594 270.390625 196.113281 266.429688 196.113281 261.988281 C 196.113281 254.203125 189.808594 247.890625 182.027344 247.890625 C 174.25 247.890625 167.945312 254.203125 167.945312 261.988281 C 167.945312 266.828125 170.378906 271.097656 174.09375 273.636719 L 170.949219 286.847656 C 170.480469 288.8125 171.972656 290.703125 173.996094 290.703125 L 191.109375 290.703125 C 193.128906 290.703125 194.621094 288.8125 194.152344 286.847656 Z M 190.851562 272.976562 " fill-opacity="1" fill-rule="evenodd"/><path fill="#ffffff" d="M 130.273438 108.824219 C 130.273438 124.496094 117.574219 137.203125 101.90625 137.203125 C 96.496094 137.203125 91.441406 135.6875 87.140625 133.058594 L 78.695312 136.054688 C 77.285156 136.554688 75.875 135.308594 76.195312 133.84375 L 78.257812 124.5 C 75.277344 120.007812 73.542969 114.617188 73.542969 108.824219 C 73.542969 93.148438 86.242188 80.441406 101.90625 80.441406 C 117.574219 80.441406 130.273438 93.148438 130.273438 108.824219 Z M 130.273438 108.824219 " fill-opacity="1" fill-rule="nonzero"/><path fill="#032068" d="M 101.90625 81.078125 C 117.222656 81.078125 129.636719 93.5 129.636719 108.824219 C 129.636719 124.144531 117.222656 136.566406 101.90625 136.566406 C 96.617188 136.566406 91.675781 135.085938 87.46875 132.515625 L 87.210938 132.355469 L 78.484375 135.453125 C 77.542969 135.789062 76.601562 134.957031 76.816406 133.980469 L 78.9375 124.371094 L 78.789062 124.148438 C 75.875 119.753906 74.179688 114.488281 74.179688 108.824219 C 74.179688 93.5 86.59375 81.078125 101.90625 81.078125 Z M 130.90625 108.824219 C 130.90625 92.796875 117.925781 79.804688 101.90625 79.804688 C 85.890625 79.804688 72.90625 92.796875 72.90625 108.824219 C 72.90625 114.648438 74.625 120.078125 77.582031 124.621094 L 75.578125 133.707031 C 75.148438 135.65625 77.027344 137.320312 78.910156 136.652344 L 87.066406 133.757812 C 91.410156 136.347656 96.484375 137.839844 101.90625 137.839844 C 117.925781 137.839844 130.90625 124.847656 130.90625 108.824219 Z M 130.90625 108.824219 " fill-opacity="1" fill-rule="evenodd"/><path fill="#116f59" d="M 101.773438 108.066406 C 109.699219 108.066406 116.234375 114.109375 117.160156 121.902344 C 117.285156 122.949219 116.417969 123.808594 115.367188 123.808594 L 88.179688 123.808594 C 87.125 123.808594 86.261719 122.949219 86.382812 121.902344 C 87.308594 114.109375 93.847656 108.066406 101.773438 108.066406 Z M 101.773438 108.066406 " fill-opacity="1" fill-rule="nonzero"/><path fill="#116f59" d="M 94.464844 98.855469 C 94.464844 102.945312 97.78125 106.261719 101.871094 106.261719 C 105.957031 106.261719 109.273438 102.945312 109.273438 98.855469 C 109.273438 94.761719 105.957031 91.449219 101.871094 91.449219 C 97.78125 91.449219 94.464844 94.761719 94.464844 98.855469 Z M 94.464844 98.855469 " fill-opacity="1" fill-rule="nonzero"/><path stroke-linecap="butt" transform="matrix(0.759, 0, 0, 0.759421, -7.449167, -19.629799)" fill-opacity="1" fill="#ffffff" fill-rule="nonzero" stroke-linejoin="miter" d="M 342.010369 239.734715 L 493.00056 239.734715 C 493.396847 239.734715 493.78284 239.81187 494.148246 239.961038 C 494.5188 240.11535 494.843034 240.331387 495.120949 240.614291 C 495.404011 240.892053 495.620167 241.216107 495.774564 241.586455 C 495.923815 241.95166 496.001013 242.337439 496.001013 242.733506 L 496.001013 417.47095 C 496.001013 417.867017 495.923815 418.247652 495.774564 418.618001 C 495.620167 418.983205 495.404011 419.30726 495.120949 419.590164 C 494.843034 419.873069 494.5188 420.089106 494.148246 420.238274 C 493.78284 420.392585 493.396847 420.469741 493.00056 420.469741 L 342.010369 420.469741 C 341.614082 420.469741 341.233236 420.392585 340.862683 420.238274 C 340.497276 420.089106 340.173042 419.873069 339.88998 419.590164 C 339.606919 419.30726 339.390762 418.983205 339.241512 418.618001 C 339.087115 418.247652 339.009916 417.867017 339.009916 417.47095 L 339.009916 242.733506 C 339.009916 242.337439 339.087115 241.95166 339.241512 241.586455 C 339.390762 241.216107 339.606919 240.892053 339.88998 240.614291 C 340.173042 240.331387 340.497276 240.11535 340.862683 239.961038 C 341.233236 239.81187 341.614082 239.734715 342.010369 239.734715 Z M 342.010369 239.734715 " stroke="#032068" stroke-width="2" stroke-opacity="1" stroke-miterlimit="4"/><path stroke-linecap="butt" transform="matrix(0.759, 0, 0, 0.759421, -7.449167, -19.629799)" fill="none" stroke-linejoin="miter" d="M 368.396854 284.587987 L 467.936744 284.587987 C 468.333031 284.587987 468.713877 284.665143 469.08443 284.814311 C 469.449837 284.968623 469.774071 285.184659 470.057133 285.467564 C 470.335048 285.750469 470.556351 286.074523 470.705601 286.439728 C 470.859999 286.804932 470.937197 287.190711 470.937197 287.586778 L 470.937197 305.332625 C 470.937197 305.733836 470.859999 306.114471 470.705601 306.479676 C 470.556351 306.850024 470.335048 307.174079 470.057133 307.456983 C 469.774071 307.734745 469.449837 307.950781 469.08443 308.105093 C 468.713877 308.259404 468.333031 308.331416 467.936744 308.33656 L 368.396854 308.33656 C 368.000568 308.331416 367.614575 308.259404 367.249168 308.105093 C 366.878615 307.950781 366.554381 307.734745 366.276466 307.456983 C 365.993404 307.174079 365.777248 306.850024 365.622851 306.479676 C 365.4736 306.114471 365.396401 305.733836 365.396401 305.332625 L 365.396401 287.586778 C 365.396401 287.190711 365.4736 286.804932 365.622851 286.439728 C 365.777248 286.074523 365.993404 285.750469 366.276466 285.467564 C 366.554381 285.184659 366.878615 284.968623 367.249168 284.814311 C 367.614575 284.665143 368.000568 284.587987 368.396854 284.587987 Z M 368.396854 284.587987 " stroke="#e7e8ff" stroke-width="2" stroke-opacity="1" stroke-miterlimit="4"/><path stroke-linecap="butt" transform="matrix(0.759, 0, 0, 0.759421, -7.449167, -19.629799)" fill="none" stroke-linejoin="miter" d="M 368.396854 333.401927 L 467.936744 333.401927 C 468.333031 333.401927 468.713877 333.473939 469.08443 333.628251 C 469.449837 333.782562 469.774071 333.998599 470.057133 334.27636 C 470.335048 334.559265 470.556351 334.883319 470.705601 335.253667 C 470.859999 335.618872 470.937197 336.004651 470.937197 336.400718 L 470.937197 354.146565 C 470.937197 354.542632 470.859999 354.928411 470.705601 355.293616 C 470.556351 355.663964 470.335048 355.988018 470.057133 356.265779 C 469.774071 356.548684 469.449837 356.764721 469.08443 356.919032 C 468.713877 357.0682 468.333031 357.145356 467.936744 357.145356 L 368.396854 357.145356 C 368.000568 357.145356 367.614575 357.0682 367.249168 356.919032 C 366.878615 356.764721 366.554381 356.548684 366.276466 356.265779 C 365.993404 355.988018 365.777248 355.663964 365.622851 355.293616 C 365.4736 354.928411 365.396401 354.542632 365.396401 354.146565 L 365.396401 336.400718 C 365.396401 336.004651 365.4736 335.618872 365.622851 335.253667 C 365.777248 334.883319 365.993404 334.559265 366.276466 334.27636 C 366.554381 333.998599 366.878615 333.782562 367.249168 333.628251 C 367.614575 333.473939 368.000568 333.401927 368.396854 333.401927 Z M 368.396854 333.401927 " stroke="#e7e8ff" stroke-width="2" stroke-opacity="1" stroke-miterlimit="4"/><path fill="#032068" d="M 291.191406 265.621094 L 328.691406 265.621094 C 328.992188 265.621094 329.285156 265.679688 329.5625 265.792969 C 329.839844 265.910156 330.089844 266.074219 330.300781 266.289062 C 330.515625 266.5 330.679688 266.746094 330.796875 267.027344 C 330.910156 267.304688 330.96875 267.597656 330.96875 267.898438 L 330.96875 279.371094 C 330.96875 279.671875 330.910156 279.964844 330.796875 280.242188 C 330.679688 280.523438 330.515625 280.769531 330.300781 280.984375 C 330.089844 281.195312 329.839844 281.359375 329.5625 281.476562 C 329.285156 281.59375 328.992188 281.648438 328.691406 281.648438 L 291.191406 281.648438 C 290.890625 281.648438 290.597656 281.59375 290.320312 281.476562 C 290.039062 281.359375 289.792969 281.195312 289.582031 280.984375 C 289.367188 280.769531 289.203125 280.523438 289.085938 280.242188 C 288.972656 279.964844 288.914062 279.671875 288.914062 279.371094 L 288.914062 267.898438 C 288.914062 267.597656 288.972656 267.304688 289.085938 267.027344 C 289.203125 266.746094 289.367188 266.5 289.582031 266.289062 C 289.792969 266.074219 290.039062 265.910156 290.320312 265.792969 C 290.597656 265.679688 290.890625 265.621094 291.191406 265.621094 Z M 291.191406 265.621094 " fill-opacity="1" fill-rule="nonzero"/><path fill="#032068" d="M 296.921875 179.460938 L 322.957031 179.460938 C 323.222656 179.460938 323.476562 179.511719 323.722656 179.613281 C 323.96875 179.714844 324.183594 179.859375 324.371094 180.046875 C 324.558594 180.234375 324.703125 180.453125 324.804688 180.699219 C 324.90625 180.941406 324.957031 181.199219 324.957031 181.464844 C 324.957031 181.730469 324.90625 181.984375 324.804688 182.230469 C 324.703125 182.476562 324.558594 182.695312 324.371094 182.882812 C 324.183594 183.070312 323.96875 183.214844 323.722656 183.316406 C 323.476562 183.417969 323.222656 183.46875 322.957031 183.46875 L 296.921875 183.46875 C 296.65625 183.46875 296.398438 183.417969 296.15625 183.316406 C 295.910156 183.214844 295.691406 183.070312 295.503906 182.882812 C 295.316406 182.695312 295.171875 182.476562 295.070312 182.230469 C 294.96875 181.984375 294.917969 181.730469 294.917969 181.464844 C 294.917969 181.199219 294.96875 180.941406 295.070312 180.699219 C 295.171875 180.453125 295.316406 180.234375 295.503906 180.046875 C 295.691406 179.859375 295.910156 179.714844 296.15625 179.613281 C 296.398438 179.511719 296.65625 179.460938 296.921875 179.460938 Z M 296.921875 179.460938 " fill-opacity="1" fill-rule="nonzero"/><path fill="#116f59" d="M 281.902344 243.078125 C 281.902344 243.410156 281.839844 243.730469 281.714844 244.035156 C 281.585938 244.34375 281.40625 244.613281 281.171875 244.847656 C 280.9375 245.082031 280.664062 245.265625 280.359375 245.390625 C 280.050781 245.519531 279.734375 245.582031 279.402344 245.582031 C 279.070312 245.582031 278.75 245.519531 278.441406 245.390625 C 278.136719 245.265625 277.863281 245.082031 277.628906 244.847656 C 277.394531 244.613281 277.214844 244.34375 277.085938 244.035156 C 276.960938 243.730469 276.898438 243.410156 276.898438 243.078125 C 276.898438 242.746094 276.960938 242.425781 277.085938 242.121094 C 277.214844 241.8125 277.394531 241.542969 277.628906 241.308594 C 277.863281 241.070312 278.136719 240.890625 278.441406 240.765625 C 278.75 240.636719 279.070312 240.574219 279.402344 240.574219 C 279.734375 240.574219 280.050781 240.636719 280.359375 240.765625 C 280.664062 240.890625 280.9375 241.070312 281.171875 241.308594 C 281.40625 241.542969 281.585938 241.8125 281.714844 242.121094 C 281.839844 242.425781 281.902344 242.746094 281.902344 243.078125 Z M 281.902344 243.078125 " fill-opacity="1" fill-rule="nonzero"/><path fill="#116f59" d="M 293.921875 243.078125 C 293.921875 243.410156 293.855469 243.730469 293.730469 244.035156 C 293.601562 244.34375 293.421875 244.613281 293.1875 244.847656 C 292.953125 245.082031 292.679688 245.265625 292.375 245.390625 C 292.066406 245.519531 291.75 245.582031 291.417969 245.582031 C 291.085938 245.582031 290.765625 245.519531 290.457031 245.390625 C 290.152344 245.265625 289.882812 245.082031 289.648438 244.847656 C 289.414062 244.613281 289.230469 244.34375 289.105469 244.035156 C 288.976562 243.730469 288.914062 243.410156 288.914062 243.078125 C 288.914062 242.746094 288.976562 242.425781 289.105469 242.121094 C 289.230469 241.8125 289.414062 241.542969 289.648438 241.308594 C 289.882812 241.070312 290.152344 240.890625 290.457031 240.765625 C 290.765625 240.636719 291.085938 240.574219 291.417969 240.574219 C 291.75 240.574219 292.066406 240.636719 292.375 240.765625 C 292.679688 240.890625 292.953125 241.070312 293.1875 241.308594 C 293.421875 241.542969 293.601562 241.8125 293.730469 242.121094 C 293.855469 242.425781 293.921875 242.746094 293.921875 243.078125 Z M 293.921875 243.078125 " fill-opacity="1" fill-rule="nonzero"/><path fill="#116f59" d="M 305.933594 243.078125 C 305.933594 243.410156 305.867188 243.730469 305.742188 244.035156 C 305.613281 244.34375 305.433594 244.613281 305.199219 244.847656 C 304.964844 245.082031 304.695312 245.265625 304.386719 245.390625 C 304.082031 245.519531 303.761719 245.582031 303.429688 245.582031 C 303.097656 245.582031 302.777344 245.519531 302.472656 245.390625 C 302.164062 245.265625 301.894531 245.082031 301.660156 244.847656 C 301.425781 244.613281 301.242188 244.34375 301.117188 244.035156 C 300.988281 243.730469 300.925781 243.410156 300.925781 243.078125 C 300.925781 242.746094 300.988281 242.425781 301.117188 242.121094 C 301.242188 241.8125 301.425781 241.542969 301.660156 241.308594 C 301.894531 241.070312 302.164062 240.890625 302.472656 240.765625 C 302.777344 240.636719 303.097656 240.574219 303.429688 240.574219 C 303.761719 240.574219 304.082031 240.636719 304.386719 240.765625 C 304.695312 240.890625 304.964844 241.070312 305.199219 241.308594 C 305.433594 241.542969 305.613281 241.8125 305.742188 242.121094 C 305.867188 242.425781 305.933594 242.746094 305.933594 243.078125 Z M 305.933594 243.078125 " fill-opacity="1" fill-rule="nonzero"/><path fill="#116f59" d="M 317.945312 243.078125 C 317.945312 243.410156 317.882812 243.730469 317.757812 244.035156 C 317.628906 244.34375 317.449219 244.613281 317.214844 244.847656 C 316.980469 245.082031 316.707031 245.265625 316.402344 245.390625 C 316.09375 245.519531 315.777344 245.582031 315.445312 245.582031 C 315.113281 245.582031 314.792969 245.519531 314.484375 245.390625 C 314.179688 245.265625 313.910156 245.082031 313.675781 244.847656 C 313.4375 244.613281 313.257812 244.34375 313.132812 244.035156 C 313.003906 243.730469 312.941406 243.410156 312.941406 243.078125 C 312.941406 242.746094 313.003906 242.425781 313.132812 242.121094 C 313.257812 241.8125 313.4375 241.542969 313.675781 241.308594 C 313.910156 241.070312 314.179688 240.890625 314.484375 240.765625 C 314.792969 240.636719 315.113281 240.574219 315.445312 240.574219 C 315.777344 240.574219 316.09375 240.636719 316.402344 240.765625 C 316.707031 240.890625 316.980469 241.070312 317.214844 241.308594 C 317.449219 241.542969 317.628906 241.8125 317.757812 242.121094 C 317.882812 242.425781 317.945312 242.746094 317.945312 243.078125 Z M 317.945312 243.078125 " fill-opacity="1" fill-rule="nonzero"/><path fill="#116f59" d="M 329.964844 243.078125 C 329.964844 243.410156 329.898438 243.730469 329.773438 244.035156 C 329.644531 244.34375 329.464844 244.613281 329.230469 244.847656 C 328.996094 245.082031 328.726562 245.265625 328.417969 245.390625 C 328.113281 245.519531 327.792969 245.582031 327.460938 245.582031 C 327.128906 245.582031 326.808594 245.519531 326.503906 245.390625 C 326.195312 245.265625 325.925781 245.082031 325.691406 244.847656 C 325.457031 244.613281 325.273438 244.34375 325.148438 244.035156 C 325.019531 243.730469 324.957031 243.410156 324.957031 243.078125 C 324.957031 242.746094 325.019531 242.425781 325.148438 242.121094 C 325.273438 241.8125 325.457031 241.542969 325.691406 241.308594 C 325.925781 241.070312 326.195312 240.890625 326.503906 240.765625 C 326.808594 240.636719 327.128906 240.574219 327.460938 240.574219 C 327.792969 240.574219 328.113281 240.636719 328.417969 240.765625 C 328.726562 240.890625 328.996094 241.070312 329.230469 241.308594 C 329.464844 241.542969 329.644531 241.8125 329.773438 242.121094 C 329.898438 242.425781 329.964844 242.746094 329.964844 243.078125 Z M 329.964844 243.078125 " fill-opacity="1" fill-rule="nonzero"/><path fill="#116f59" d="M 281.898438 206.011719 C 281.898438 206.34375 281.835938 206.660156 281.707031 206.96875 C 281.578125 207.273438 281.398438 207.546875 281.164062 207.78125 C 280.929688 208.015625 280.660156 208.195312 280.351562 208.324219 C 280.046875 208.449219 279.726562 208.515625 279.394531 208.515625 C 279.0625 208.515625 278.742188 208.449219 278.4375 208.324219 C 278.128906 208.195312 277.859375 208.015625 277.625 207.78125 C 277.390625 207.546875 277.207031 207.273438 277.082031 206.96875 C 276.953125 206.660156 276.890625 206.34375 276.890625 206.011719 C 276.890625 205.679688 276.953125 205.359375 277.082031 205.050781 C 277.207031 204.746094 277.390625 204.472656 277.625 204.238281 C 277.859375 204.003906 278.128906 203.824219 278.4375 203.695312 C 278.742188 203.570312 279.0625 203.503906 279.394531 203.503906 C 279.726562 203.503906 280.046875 203.570312 280.351562 203.695312 C 280.660156 203.824219 280.929688 204.003906 281.164062 204.238281 C 281.398438 204.472656 281.578125 204.746094 281.707031 205.050781 C 281.835938 205.359375 281.898438 205.679688 281.898438 206.011719 Z M 281.898438 206.011719 " fill-opacity="1" fill-rule="nonzero"/><path fill="#116f59" d="M 293.914062 206.011719 C 293.914062 206.34375 293.851562 206.660156 293.722656 206.96875 C 293.597656 207.273438 293.414062 207.546875 293.179688 207.78125 C 292.945312 208.015625 292.675781 208.195312 292.367188 208.324219 C 292.0625 208.449219 291.742188 208.515625 291.410156 208.515625 C 291.078125 208.515625 290.757812 208.449219 290.453125 208.324219 C 290.144531 208.195312 289.875 208.015625 289.640625 207.78125 C 289.40625 207.546875 289.226562 207.273438 289.097656 206.96875 C 288.972656 206.660156 288.90625 206.34375 288.90625 206.011719 C 288.90625 205.679688 288.972656 205.359375 289.097656 205.050781 C 289.226562 204.746094 289.40625 204.472656 289.640625 204.238281 C 289.875 204.003906 290.144531 203.824219 290.453125 203.695312 C 290.757812 203.570312 291.078125 203.503906 291.410156 203.503906 C 291.742188 203.503906 292.0625 203.570312 292.367188 203.695312 C 292.675781 203.824219 292.945312 204.003906 293.179688 204.238281 C 293.414062 204.472656 293.597656 204.746094 293.722656 205.050781 C 293.851562 205.359375 293.914062 205.679688 293.914062 206.011719 Z M 293.914062 206.011719 " fill-opacity="1" fill-rule="nonzero"/><path fill="#116f59" d="M 305.929688 206.011719 C 305.929688 206.34375 305.867188 206.660156 305.738281 206.96875 C 305.613281 207.273438 305.429688 207.546875 305.195312 207.78125 C 304.960938 208.015625 304.691406 208.195312 304.382812 208.324219 C 304.078125 208.449219 303.757812 208.515625 303.425781 208.515625 C 303.09375 208.515625 302.773438 208.449219 302.46875 208.324219 C 302.160156 208.195312 301.890625 208.015625 301.65625 207.78125 C 301.421875 207.546875 301.238281 207.273438 301.113281 206.96875 C 300.984375 206.660156 300.921875 206.34375 300.921875 206.011719 C 300.921875 205.679688 300.984375 205.359375 301.113281 205.050781 C 301.238281 204.746094 301.421875 204.472656 301.65625 204.238281 C 301.890625 204.003906 302.160156 203.824219 302.46875 203.695312 C 302.773438 203.570312 303.09375 203.503906 303.425781 203.503906 C 303.757812 203.503906 304.078125 203.570312 304.382812 203.695312 C 304.691406 203.824219 304.960938 204.003906 305.195312 204.238281 C 305.429688 204.472656 305.613281 204.746094 305.738281 205.050781 C 305.867188 205.359375 305.929688 205.679688 305.929688 206.011719 Z M 305.929688 206.011719 " fill-opacity="1" fill-rule="nonzero"/><path fill="#116f59" d="M 317.945312 206.011719 C 317.945312 206.34375 317.882812 206.660156 317.753906 206.96875 C 317.628906 207.273438 317.445312 207.546875 317.210938 207.78125 C 316.976562 208.015625 316.707031 208.195312 316.398438 208.324219 C 316.09375 208.449219 315.773438 208.515625 315.441406 208.515625 C 315.109375 208.515625 314.792969 208.449219 314.484375 208.324219 C 314.175781 208.195312 313.90625 208.015625 313.671875 207.78125 C 313.4375 207.546875 313.257812 207.273438 313.128906 206.96875 C 313.003906 206.660156 312.9375 206.34375 312.9375 206.011719 C 312.9375 205.679688 313.003906 205.359375 313.128906 205.050781 C 313.257812 204.746094 313.4375 204.472656 313.671875 204.238281 C 313.90625 204.003906 314.175781 203.824219 314.484375 203.695312 C 314.792969 203.570312 315.109375 203.503906 315.441406 203.503906 C 315.773438 203.503906 316.09375 203.570312 316.398438 203.695312 C 316.707031 203.824219 316.976562 204.003906 317.210938 204.238281 C 317.445312 204.472656 317.628906 204.746094 317.753906 205.050781 C 317.882812 205.359375 317.945312 205.679688 317.945312 206.011719 Z M 317.945312 206.011719 " fill-opacity="1" fill-rule="nonzero"/><path fill="#116f59" d="M 329.960938 206.011719 C 329.960938 206.34375 329.898438 206.660156 329.769531 206.96875 C 329.644531 207.273438 329.460938 207.546875 329.226562 207.78125 C 328.992188 208.015625 328.722656 208.195312 328.414062 208.324219 C 328.109375 208.449219 327.789062 208.515625 327.457031 208.515625 C 327.125 208.515625 326.804688 208.449219 326.5 208.324219 C 326.191406 208.195312 325.921875 208.015625 325.6875 207.78125 C 325.453125 207.546875 325.273438 207.273438 325.144531 206.96875 C 325.019531 206.660156 324.953125 206.34375 324.953125 206.011719 C 324.953125 205.679688 325.019531 205.359375 325.144531 205.050781 C 325.273438 204.746094 325.453125 204.472656 325.6875 204.238281 C 325.921875 204.003906 326.191406 203.824219 326.5 203.695312 C 326.804688 203.570312 327.125 203.503906 327.457031 203.503906 C 327.789062 203.503906 328.109375 203.570312 328.414062 203.695312 C 328.722656 203.824219 328.992188 204.003906 329.226562 204.238281 C 329.460938 204.472656 329.644531 204.746094 329.769531 205.050781 C 329.898438 205.359375 329.960938 205.679688 329.960938 206.011719 Z M 329.960938 206.011719 " fill-opacity="1" fill-rule="nonzero"/><path fill="#116f59" d="M 341.976562 206.011719 C 341.976562 206.34375 341.914062 206.660156 341.785156 206.96875 C 341.660156 207.273438 341.480469 207.546875 341.242188 207.78125 C 341.007812 208.015625 340.738281 208.195312 340.433594 208.324219 C 340.125 208.449219 339.804688 208.515625 339.472656 208.515625 C 339.140625 208.515625 338.824219 208.449219 338.515625 208.324219 C 338.210938 208.195312 337.9375 208.015625 337.703125 207.78125 C 337.46875 207.546875 337.289062 207.273438 337.160156 206.96875 C 337.035156 206.660156 336.96875 206.34375 336.96875 206.011719 C 336.96875 205.679688 337.035156 205.359375 337.160156 205.050781 C 337.289062 204.746094 337.46875 204.472656 337.703125 204.238281 C 337.9375 204.003906 338.210938 203.824219 338.515625 203.695312 C 338.824219 203.570312 339.140625 203.503906 339.472656 203.503906 C 339.804688 203.503906 340.125 203.570312 340.433594 203.695312 C 340.738281 203.824219 341.007812 204.003906 341.242188 204.238281 C 341.476562 204.472656 341.660156 204.746094 341.785156 205.050781 C 341.914062 205.359375 341.976562 205.679688 341.976562 206.011719 Z M 341.976562 206.011719 " fill-opacity="1" fill-rule="nonzero"/><path fill="#116f59" d="M 341.976562 243.078125 C 341.976562 243.410156 341.914062 243.730469 341.789062 244.035156 C 341.660156 244.34375 341.480469 244.613281 341.246094 244.847656 C 341.011719 245.082031 340.738281 245.265625 340.433594 245.390625 C 340.125 245.519531 339.808594 245.582031 339.476562 245.582031 C 339.144531 245.582031 338.824219 245.519531 338.515625 245.390625 C 338.210938 245.265625 337.941406 245.082031 337.707031 244.847656 C 337.46875 244.613281 337.289062 244.34375 337.164062 244.035156 C 337.035156 243.730469 336.972656 243.410156 336.972656 243.078125 C 336.972656 242.746094 337.035156 242.425781 337.164062 242.121094 C 337.289062 241.8125 337.46875 241.542969 337.707031 241.308594 C 337.941406 241.070312 338.210938 240.890625 338.515625 240.765625 C 338.824219 240.636719 339.144531 240.574219 339.476562 240.574219 C 339.808594 240.574219 340.125 240.636719 340.433594 240.765625 C 340.738281 240.890625 341.011719 241.070312 341.246094 241.308594 C 341.480469 241.542969 341.660156 241.8125 341.789062 242.121094 C 341.914062 242.425781 341.976562 242.746094 341.976562 243.078125 Z M 341.976562 243.078125 " fill-opacity="1" fill-rule="nonzero"/><path fill="#efcb96" d="M 59.277344 191.695312 L 57.199219 204.160156 C 57.890625 206.929688 61.25 212.464844 69.148438 212.464844 C 77.046875 212.464844 79.714844 207.621094 80.0625 205.195312 L 77.464844 195.332031 C 84.738281 193.773438 84.21875 178.195312 81.621094 170.925781 C 79.027344 162.097656 65.515625 159.5 57.199219 169.886719 C 50.960938 178.714844 55.636719 188.753906 59.277344 191.695312 Z M 59.277344 191.695312 " fill-opacity="1" fill-rule="nonzero"/><path fill="#032068" d="M 60.839844 189.097656 L 58.679688 196.003906 C 58.496094 196.585938 57.71875 196.699219 57.363281 196.203125 C 41.023438 173.421875 47.945312 164.667969 53.566406 163.136719 C 55.644531 158.980469 61.878906 155.347656 72.273438 153.789062 C 82.664062 152.230469 87.34375 159.5 86.304688 167.289062 C 85.472656 173.519531 74.175781 173.695312 68.632812 173 C 68.632812 175.078125 65.515625 185.984375 64.476562 184.945312 C 63.4375 183.90625 60.839844 177.675781 58.761719 181.3125 C 57.097656 184.21875 59.453125 187.714844 60.839844 189.097656 Z M 60.839844 189.097656 " fill-opacity="1" fill-rule="nonzero"/><path fill="#032068" d="M 69.152344 195.332031 C 73.726562 196.160156 76.601562 195.675781 77.464844 195.332031 L 78.507812 198.964844 C 73.515625 199.382812 70.191406 196.714844 69.152344 195.332031 Z M 69.152344 195.332031 " fill-opacity="1" fill-rule="nonzero"/><path fill="#116f59" d="M 69.152344 209.351562 C 77.050781 209.351562 80.066406 205.195312 81.105469 203.121094 C 86.820312 203.121094 110.207031 208.3125 119.039062 225.96875 C 127.875 243.621094 130.472656 283.085938 131.511719 289.320312 C 132.34375 294.304688 142.597656 321.511719 147.621094 334.496094 L 7.3125 334.496094 C 0.242188 334.496094 6.445312 295.722656 10.429688 276.335938 C 8.527344 268.375 6.167969 248.191406 11.988281 231.160156 C 17.808594 214.128906 44.207031 205.371094 56.679688 203.121094 C 57.199219 205.195312 61.253906 209.351562 69.152344 209.351562 Z M 69.152344 209.351562 " fill-opacity="1" fill-rule="nonzero"/><path fill="#032068" d="M 52.003906 282.566406 L 47.847656 261.796875 L 57.199219 281.011719 C 73.308594 279.453125 87.167969 278.242188 91.496094 278.414062 C 87.757812 278.414062 57.71875 285.335938 43.167969 288.800781 Z M 52.003906 282.566406 " fill-opacity="1" fill-rule="nonzero"/><path fill="#032068" d="M 104.230469 218.117188 C 104.234375 217.703125 104.570312 217.375 104.984375 217.378906 L 111.535156 217.453125 C 111.945312 217.457031 112.277344 217.792969 112.273438 218.207031 L 112.238281 221.308594 C 112.234375 221.71875 112.5625 222.054688 112.976562 222.0625 L 122.972656 222.171875 C 123.382812 222.175781 123.714844 222.515625 123.710938 222.925781 L 123.648438 228.324219 C 123.644531 228.734375 123.304688 229.066406 122.894531 229.0625 L 112.898438 228.949219 C 112.488281 228.945312 112.148438 229.277344 112.144531 229.6875 L 112.109375 232.789062 C 112.105469 233.199219 112.433594 233.539062 112.847656 233.542969 L 118.25 233.601562 C 118.660156 233.605469 118.992188 233.945312 118.988281 234.355469 L 118.925781 239.753906 C 118.921875 240.164062 118.585938 240.496094 118.171875 240.492188 L 112.769531 240.429688 C 112.359375 240.425781 112.019531 240.757812 112.015625 241.167969 L 110.980469 333.824219 C 110.976562 334.234375 110.640625 334.566406 110.226562 334.5625 L 103.675781 334.488281 C 103.265625 334.484375 102.933594 334.144531 102.941406 333.734375 Z M 104.230469 218.117188 " fill-opacity="1" fill-rule="evenodd"/><path fill="#032068" d="M 10.429688 276.335938 C 12.507812 293.472656 23.941406 317.152344 36.414062 322.550781 C 52.984375 328.882812 86.019531 310.085938 96.054688 302.160156 C 96.640625 301.671875 97.199219 301.199219 97.734375 300.742188 C 97.28125 301.160156 96.71875 301.636719 96.054688 302.160156 C 83.304688 312.8125 58.296875 330.65625 36.933594 326.1875 C 19.785156 322.03125 10.082031 297.28125 8.871094 284.125 Z M 10.429688 276.335938 " fill-opacity="1" fill-rule="nonzero"/><path fill="#032068" d="M 52.523438 323.589844 C 42.128906 314.035156 28.792969 313.03125 23.421875 313.722656 C 24.980469 315.972656 29.65625 321.097656 35.894531 323.589844 C 42.128906 326.082031 49.578125 324.628906 52.523438 323.589844 Z M 52.523438 323.589844 " fill-opacity="1" fill-rule="nonzero"/><path fill="#efcb96" d="M 97.46875 277.320312 C 97.46875 278.894531 94.875 281.253906 93.578125 282.238281 L 96.007812 295.03125 C 96.65625 294.703125 99.609375 293.359375 102.335938 292.570312 C 105.738281 291.585938 112.550781 291.585938 115.46875 288.636719 C 118.390625 285.683594 117.902344 273.875 115.46875 271.417969 C 113.523438 269.449219 106.875 272.894531 103.792969 274.859375 L 103.792969 266.988281 C 98.929688 268.957031 97.46875 275.351562 97.46875 277.320312 Z M 97.46875 277.320312 " fill-opacity="1" fill-rule="nonzero"/><path fill="#032068" d="M 116.441406 243.105469 C 117.6875 256.398438 120.425781 309.570312 121.636719 334.496094 L 125.277344 334.496094 Z M 116.441406 243.105469 " fill-opacity="1" fill-rule="nonzero"/></svg>